<svg width="230" height="230" viewBox="0 0 230 230" fill="none" xmlns="http://www.w3.org/2000/svg">
<circle cx="115" cy="115" r="113.5" stroke="url(#paint0_linear_3314_9918)" stroke-width="3"/>
<path d="M166.1 49.4868C166.563 49.0233 167.262 48.8714 167.869 49.1157C168.484 49.3517 168.897 49.9251 168.931 50.5825L169.529 62.6938L181.64 63.2925C182.297 63.3262 182.87 63.7388 183.106 64.354C183.342 64.9692 183.199 65.66 182.735 66.1235L166.293 82.5669C165.981 82.8787 165.56 83.0561 165.122 83.0562L165.113 83.0396H165.029L152.49 82.4175L150.182 84.7271C157.994 93.1073 162.782 104.342 162.782 116.676C162.782 142.534 141.746 163.57 115.891 163.57C90.0351 163.57 69.0001 142.533 69 116.676C69 90.8189 90.035 69.782 115.891 69.7817C128.224 69.7817 139.459 74.5703 147.839 82.3833L149.823 80.3989L149.168 67.1772C149.143 66.7138 149.32 66.25 149.648 65.9214L166.1 49.4868ZM115.887 73.103C91.8617 73.1054 72.3125 92.6491 72.3125 116.676C72.3126 140.705 91.8559 160.25 115.883 160.25C139.91 160.249 159.453 140.705 159.453 116.676C159.453 105.259 155.038 94.8556 147.829 87.0786L139.546 95.3628C144.641 101.013 147.748 108.489 147.748 116.676C147.748 134.24 133.454 148.535 115.892 148.535C98.3286 148.535 84.0354 134.24 84.0352 116.676C84.0352 99.1121 98.3285 84.8179 115.892 84.8179C124.078 84.8179 131.554 87.9247 137.203 93.02L145.487 84.7358C137.711 77.5219 127.306 73.1041 115.887 73.103ZM115.892 88.1382C100.157 88.1382 87.3555 100.941 87.3555 116.676C87.3557 132.411 100.157 145.213 115.892 145.213C131.626 145.213 144.427 132.411 144.427 116.676C144.427 109.404 141.691 102.759 137.196 97.7134L128.355 106.554C130.605 109.319 131.956 112.842 131.956 116.675C131.956 125.533 124.75 132.74 115.893 132.74C107.035 132.739 99.8301 125.533 99.8301 116.675C99.8302 107.818 107.035 100.612 115.893 100.612C119.725 100.612 123.249 101.962 126.013 104.21L134.854 95.3696C129.809 90.8743 123.164 88.1382 115.892 88.1382ZM115.893 103.932C108.864 103.932 103.151 109.646 103.15 116.675C103.15 123.704 108.864 129.418 115.893 129.418C122.921 129.418 128.636 123.704 128.636 116.675C128.636 113.757 127.648 111.068 125.993 108.917L117.063 117.848C116.743 118.168 116.314 118.336 115.893 118.336C115.471 118.336 115.041 118.177 114.721 117.848C114.072 117.199 114.072 116.153 114.721 115.504L123.65 106.574C121.5 104.919 118.81 103.932 115.893 103.932ZM152.522 67.7417L153.087 79.1196L164.465 79.6851L177.738 66.4106L167.86 65.9214C167.009 65.879 166.327 65.1963 166.285 64.3452L165.796 54.4673L152.522 67.7417Z" fill="url(#paint1_linear_3314_9918)"/>
<defs>
<linearGradient id="paint0_linear_3314_9918" x1="115" y1="0" x2="115" y2="230" gradientUnits="userSpaceOnUse">
<stop stop-color="#25E2CC"/>
<stop offset="1" stop-color="#007380"/>
</linearGradient>
<linearGradient id="paint1_linear_3314_9918" x1="126.109" y1="49.0005" x2="126.109" y2="163.57" gradientUnits="userSpaceOnUse">
<stop stop-color="#25E2CC"/>
<stop offset="1" stop-color="#007380"/>
</linearGradient>
</defs>
</svg>
