<svg width="48" height="69" viewBox="0 0 48 69" fill="none" xmlns="http://www.w3.org/2000/svg">
<path d="M24.0108 68.1563C22.6602 68.1563 21.4451 67.4584 20.7672 66.2834L3.25366 35.956C1.12471 32.2756 0 28.1382 0 23.9958C0 23.4385 0.020077 22.9464 0.0552247 22.4995C0.838515 9.89155 11.3577 0 24.0108 0C36.664 0 47.1531 9.89155 47.9514 22.5146C48.2527 27.1742 47.148 31.8187 44.763 35.956L27.2494 66.2834C26.5716 67.4534 25.3615 68.1563 24.0058 68.1563H24.0108ZM24.0108 1.97831C11.0514 1.97831 2.65612 12.4824 2.02848 22.6401C1.99333 23.0569 1.97828 23.4937 1.97828 23.9958C1.97828 27.7917 3.01266 31.5827 4.96587 34.9669L22.4744 65.2943C22.7958 65.8466 23.3681 66.178 24.0058 66.178C24.6435 66.178 25.2159 65.8466 25.5373 65.2943L43.0458 34.9669C45.235 31.176 46.2492 26.9131 45.9731 22.6451C45.3304 12.4875 36.9401 1.97831 24.0058 1.97831H24.0108Z" fill="#25E2CC"/>
<path d="M24.0062 20.1037C20.4914 20.1037 17.1775 18.748 14.672 16.2826C14.2854 15.901 14.2753 15.2734 14.6619 14.8867C15.0435 14.4951 15.6712 14.4901 16.0578 14.8767C18.1918 16.9755 21.0136 18.1304 24.0112 18.1304C27.0088 18.1304 29.8306 16.9755 31.9646 14.8767C32.3562 14.4951 32.9789 14.5001 33.3605 14.8867C33.7421 15.2784 33.7371 15.901 33.3504 16.2826C30.8449 18.7429 27.526 20.1037 24.0112 20.1037H24.0062Z" fill="#25E2CC"/>
<path d="M32.6517 34.161C32.4006 34.161 32.1497 34.0656 31.9589 33.8798C29.8249 31.781 26.998 30.6261 24.0054 30.6261C21.0128 30.6261 18.191 31.781 16.052 33.8798C15.6654 34.2614 15.0377 34.2564 14.6561 33.8697C14.2745 33.4831 14.2796 32.8555 14.6662 32.4739C17.1717 30.0135 20.4906 28.6528 24.0004 28.6528C27.5101 28.6528 30.8341 30.0085 33.3397 32.4739C33.7313 32.8555 33.7363 33.4831 33.3496 33.8697C33.1538 34.0656 32.8978 34.166 32.6467 34.166L32.6517 34.161Z" fill="#25E2CC"/>
<path d="M36.3336 25.3597H11.665C11.1177 25.3597 10.6758 24.9178 10.6758 24.3705C10.6758 23.8232 11.1177 23.3813 11.665 23.3813H36.3336C36.8809 23.3813 37.3228 23.8232 37.3228 24.3705C37.3228 24.9178 36.8809 25.3597 36.3336 25.3597Z" fill="#25E2CC"/>
<path d="M24.0048 37.6977C23.4575 37.6977 23.0156 37.2558 23.0156 36.7086V12.0399C23.0156 11.4926 23.4575 11.0508 24.0048 11.0508C24.5521 11.0508 24.9939 11.4926 24.9939 12.0399V36.7086C24.9939 37.2558 24.5521 37.6977 24.0048 37.6977Z" fill="#25E2CC"/>
<path d="M23.9968 37.7003C16.6509 37.7003 10.6758 31.7252 10.6758 24.3743C10.6758 17.0234 16.6509 11.0483 23.9968 11.0483C31.3426 11.0483 37.3228 17.0234 37.3228 24.3743C37.3228 31.7252 31.3476 37.7003 23.9968 37.7003ZM23.9968 13.0317C17.7405 13.0317 12.6491 18.1231 12.6491 24.3793C12.6491 30.6356 17.7405 35.727 23.9968 35.727C30.253 35.727 35.3444 30.6356 35.3444 24.3793C35.3444 18.1231 30.253 13.0317 23.9968 13.0317Z" fill="#25E2CC"/>
</svg>
