<svg width="230" height="230" viewBox="0 0 230 230" fill="none" xmlns="http://www.w3.org/2000/svg">
<circle cx="115" cy="115" r="113.5" stroke="url(#paint0_linear_3314_9956)" stroke-width="3"/>
<path d="M115.177 170.206H115.169C115.17 170.206 115.172 170.205 115.173 170.205C115.174 170.205 115.175 170.206 115.177 170.206ZM115.177 59C135.822 59 152.937 75.1393 154.239 95.7354C154.731 103.338 152.928 110.916 149.036 117.667L120.461 167.15C119.356 169.058 117.383 170.204 115.173 170.205C112.971 170.204 110.99 169.066 109.885 167.15L81.3086 117.667C77.835 111.662 76 104.911 76 98.1523C76 97.243 76.0325 96.44 76.0898 95.7109C77.3679 75.1394 94.5315 59 115.177 59ZM115.172 62.2275C94.0297 62.2302 80.3336 79.3682 79.3096 95.9404C79.2522 96.6204 79.2275 97.3332 79.2275 98.1523C79.2276 104.346 80.9157 110.531 84.1025 116.053L112.67 165.536C113.194 166.437 114.129 166.978 115.169 166.978C116.209 166.977 117.143 166.437 117.667 165.536L146.234 116.053C149.806 109.867 151.461 102.912 151.011 95.9482C149.962 79.3756 136.274 62.2293 115.172 62.2275ZM115.146 77.0273C120.989 77.0275 126.303 79.3457 130.215 83.1113C130.288 83.164 130.359 83.2225 130.425 83.2891C130.477 83.3426 130.523 83.4006 130.566 83.459C134.471 87.3909 136.888 92.8022 136.888 98.7705C136.888 104.758 134.458 110.185 130.532 114.12C130.494 114.169 130.453 114.218 130.408 114.263C130.353 114.317 130.294 114.367 130.234 114.412C126.322 118.187 121.002 120.514 115.146 120.514C109.232 120.514 103.863 118.139 99.9404 114.294C99.9295 114.284 99.9179 114.273 99.9072 114.263C99.9022 114.258 99.8975 114.252 99.8926 114.247C95.8932 110.302 93.4102 104.823 93.4102 98.7705C93.4102 86.7766 103.16 77.0273 115.146 77.0273ZM113.551 109.041C109.84 109.36 106.35 110.775 103.465 113.133C106.266 115.417 109.746 116.897 113.551 117.224V109.041ZM116.778 117.221C120.576 116.887 124.048 115.403 126.843 113.118C123.966 110.771 120.48 109.36 116.778 109.041V117.221ZM96.6992 100.378C97.0426 104.372 98.6591 108.007 101.141 110.876C104.651 107.908 108.967 106.144 113.551 105.81V100.378H96.6992ZM116.778 100.378V105.811C121.348 106.147 125.657 107.902 129.16 110.862C131.635 107.996 133.248 104.366 133.591 100.378H116.778ZM129.164 86.6982C125.659 89.6519 121.354 91.4082 116.778 91.7422V97.1504H133.588C133.24 93.1759 131.631 89.5573 129.164 86.6982ZM101.146 86.6738C98.6668 89.5366 97.0511 93.165 96.7021 97.1504H113.551V91.7422C108.964 91.4075 104.654 89.6469 101.146 86.6738ZM116.778 88.5117C120.485 88.1949 123.966 86.7855 126.844 84.4395C124.048 82.1545 120.576 80.6696 116.778 80.3359V88.5117ZM113.551 80.332C109.749 80.6579 106.272 82.1379 103.472 84.4189C106.351 86.7749 109.838 88.1909 113.551 88.5107V80.332Z" fill="url(#paint1_linear_3314_9956)"/>
<defs>
<linearGradient id="paint0_linear_3314_9956" x1="115" y1="0" x2="115" y2="230" gradientUnits="userSpaceOnUse">
<stop stop-color="#25E2CC"/>
<stop offset="1" stop-color="#007380"/>
</linearGradient>
<linearGradient id="paint1_linear_3314_9956" x1="115.159" y1="59" x2="115.159" y2="170.206" gradientUnits="userSpaceOnUse">
<stop stop-color="#25E2CC"/>
<stop offset="1" stop-color="#007380"/>
</linearGradient>
</defs>
</svg>
