<svg width="54" height="63" viewBox="0 0 54 63" fill="none" xmlns="http://www.w3.org/2000/svg">
<path d="M25.8293 27.1529C25.8293 27.1529 25.7973 27.1529 25.779 27.1529C25.5092 27.1392 25.2578 27.0021 25.0978 26.778L22.373 22.9879C22.0804 22.5856 22.1764 22.0232 22.5787 21.7306C22.9811 21.4426 23.5434 21.534 23.836 21.9363L25.907 24.8212L31.672 18.4251C32.0057 18.0547 32.5727 18.0273 32.943 18.3611C33.3133 18.6948 33.3407 19.2617 33.0069 19.6321L26.4922 26.8558C26.3185 27.0478 26.0762 27.1529 25.8247 27.1529H25.8293Z" fill="#25E2CC"/>
<path d="M26.9943 37.5114C18.7971 37.5114 12.127 30.8409 12.127 22.6434C12.127 14.4459 18.7971 7.77539 26.9943 7.77539C35.1914 7.77539 41.8616 14.4459 41.8616 22.6434C41.8616 30.8409 35.1914 37.5114 26.9943 37.5114ZM26.9943 9.57674C19.7892 9.57674 13.9282 15.438 13.9282 22.6434C13.9282 29.8488 19.7892 35.71 26.9943 35.71C34.1994 35.71 40.0603 29.8488 40.0603 22.6434C40.0603 15.438 34.1994 9.57674 26.9943 9.57674Z" fill="#25E2CC"/>
<path d="M42.1287 62.6815C41.8041 62.6815 41.507 62.5078 41.347 62.2289L31.3029 44.604C31.152 44.3388 31.1474 44.0142 31.2846 43.7444L34.0185 38.4638C34.2013 38.1072 34.5991 37.9152 34.9923 37.9929L40.0395 38.9896L40.172 34.3994C40.1812 33.997 40.46 33.6496 40.8532 33.5535C41.2464 33.4575 41.6533 33.6313 41.8545 33.9787L53.8827 55.0692C54.0427 55.3526 54.0382 55.6955 53.8736 55.9744C53.7091 56.2533 53.3844 56.427 53.0826 56.4133L46.2708 56.2807L42.9151 62.2151C42.7551 62.4986 42.4579 62.6723 42.1333 62.6723L42.1287 62.6815ZM33.1041 44.1376L42.1242 59.9566L44.9632 54.932C45.1232 54.6486 45.4205 54.4748 45.7451 54.4748H45.7633L51.5283 54.5845L41.8728 37.6546L41.7996 40.1006C41.7904 40.3658 41.667 40.6126 41.4613 40.7772C41.2556 40.9418 40.9859 41.0058 40.7253 40.9555L35.2986 39.8857L33.0995 44.1331L33.1041 44.1376Z" fill="#25E2CC"/>
<path d="M22.0368 45.2987C21.9682 45.2987 21.9042 45.2895 21.8356 45.2758C21.575 45.2164 21.3556 45.0472 21.2367 44.8095L18.6948 39.8946L13.2636 40.9645C13.003 41.0148 12.7332 40.9508 12.5275 40.7862C12.3218 40.6216 12.1983 40.3747 12.1892 40.1095L12.0338 34.5774L6.67565 33.2013C6.41963 33.1373 6.20485 32.959 6.09056 32.7212C5.97627 32.4835 5.97169 32.2046 6.08141 31.9623L8.33982 26.9103L4.12011 23.335C3.91895 23.1613 3.80469 22.9144 3.80469 22.6492C3.80469 22.384 3.91895 22.1326 4.12011 21.9634L8.33982 18.3881L6.08141 13.3361C5.97169 13.0938 5.97627 12.8195 6.09056 12.5772C6.20485 12.3394 6.41963 12.1611 6.67565 12.0971L12.0384 10.7118L12.1892 5.17975C12.1983 4.91458 12.3218 4.66769 12.5275 4.5031C12.7332 4.33851 13.003 4.2745 13.2636 4.32479L18.6948 5.40378L21.2367 0.488922C21.3601 0.251181 21.5796 0.082018 21.8356 0.0225826C22.0916 -0.0322809 22.3659 0.0225828 22.5762 0.182601L26.9926 3.51099L31.418 0.182601C31.6283 0.0225828 31.8981 -0.0368529 32.1587 0.0225826C32.4193 0.082018 32.6386 0.251181 32.7575 0.488922L35.2994 5.40378L40.7261 4.32479C40.9821 4.2745 41.2564 4.33851 41.4621 4.5031C41.6678 4.66769 41.7913 4.91458 41.8004 5.17975L41.9605 10.7164L47.3231 12.1017C47.5791 12.1657 47.794 12.344 47.9083 12.5818C48.0226 12.8195 48.0272 13.0984 47.9175 13.3407L45.6544 18.3881L49.8832 21.9634C50.0844 22.1326 50.2033 22.384 50.2033 22.6492C50.2033 22.9144 50.0844 23.1658 49.8832 23.335L45.6544 26.9103L47.9175 31.9577C48.0272 32.2 48.0226 32.4789 47.9083 32.7167C47.794 32.9544 47.5791 33.1327 47.3231 33.1967L41.9605 34.582L41.8004 40.1095C41.7913 40.3747 41.6678 40.6216 41.4621 40.7862C41.2564 40.9508 40.9867 41.0148 40.7261 40.9645L35.2994 39.8946L32.7575 44.8095C32.634 45.0472 32.4193 45.2164 32.1587 45.2758C31.8981 45.3353 31.6283 45.2758 31.418 45.1158L26.9926 41.7874L22.5762 45.1158C22.4208 45.2347 22.2288 45.2987 22.0368 45.2987ZM26.9972 39.762C27.1892 39.762 27.3766 39.8215 27.5366 39.9403L31.6512 43.0356L34.0193 38.4636C34.2022 38.107 34.6 37.915 34.9931 37.9927L40.0404 38.9894L40.1866 33.8505C40.1957 33.4482 40.4746 33.1053 40.8632 33.0047L45.8465 31.72L43.7434 27.0246C43.5788 26.6588 43.6794 26.229 43.9811 25.9684L47.9129 22.6401L43.9811 19.3117C43.6748 19.0511 43.5788 18.6213 43.7434 18.2556L45.8465 13.5602L40.8632 12.2754C40.4746 12.1748 40.2003 11.8319 40.1912 11.4296L40.0404 6.28159L34.9977 7.28285C34.6045 7.36057 34.2067 7.16855 34.0239 6.81194L31.6557 2.23998L27.5412 5.3352C27.2211 5.57751 26.7776 5.57751 26.4576 5.3352L22.3476 2.23998L19.9841 6.81194C19.8012 7.16855 19.4035 7.356 19.0103 7.28285L13.9585 6.28159L13.8168 11.4296C13.8076 11.8319 13.5288 12.1748 13.1402 12.2754L8.15242 13.5602L10.2508 18.2556C10.4154 18.6213 10.3148 19.0511 10.013 19.3117L6.08598 22.6401L10.013 25.9684C10.3194 26.229 10.4154 26.6588 10.2508 27.02L8.15242 31.7154L13.1356 32.9955C13.5242 33.0961 13.803 33.4436 13.8122 33.8459L13.9539 38.9894L19.0057 37.9927C19.3989 37.915 19.7966 38.107 19.9795 38.4636L22.343 43.031L26.4485 39.9358C26.6085 39.8169 26.8006 39.7529 26.988 39.7529L26.9972 39.762Z" fill="#25E2CC"/>
<path d="M11.8666 62.6852C11.542 62.6852 11.2448 62.5114 11.0848 62.228L7.72911 56.2936L0.917257 56.4262C0.583519 56.4353 0.290936 56.2616 0.126353 55.9872C-0.0382295 55.7084 -0.0428101 55.3655 0.117201 55.082L12.1455 33.9916C12.3467 33.6395 12.7535 33.4658 13.1467 33.5664C13.5398 33.6624 13.8187 34.0098 13.8279 34.4122L13.9559 39.0024L19.0077 38.0057C19.4009 37.928 19.7985 38.12 19.9814 38.4767L22.7153 43.7573C22.857 44.027 22.8479 44.3516 22.697 44.6168L12.6529 62.2417C12.4929 62.5206 12.1957 62.6943 11.8711 62.6943L11.8666 62.6852ZM8.24578 54.4785C8.57037 54.4785 8.86752 54.6522 9.02753 54.9357L11.8666 59.9603L20.8866 44.1413L18.6876 39.8985L13.2564 40.9684C12.9958 41.0187 12.726 40.9546 12.5203 40.7901C12.3146 40.6255 12.1911 40.3786 12.182 40.1134L12.1135 37.672L2.46245 54.5974L8.22748 54.4876H8.24578V54.4785Z" fill="#25E2CC"/>
</svg>
