<svg width="230" height="230" viewBox="0 0 230 230" fill="none" xmlns="http://www.w3.org/2000/svg">
<circle cx="115" cy="115" r="113.5" stroke="url(#paint0_linear_3314_9970)" stroke-width="3"/>
<path d="M102.141 63.001C120.397 63.0011 135.959 76.9589 138.044 94.9648C154.041 98.8826 165.537 113.466 165.537 130.058C165.537 137.059 163.537 143.82 159.757 149.667L163.695 162.101C163.869 162.644 163.711 163.248 163.296 163.633C162.873 164.025 162.27 164.138 161.734 163.927L150.439 159.445C144.268 163.867 137.009 166.198 129.389 166.198V166.19C111.142 166.19 95.582 152.244 93.5 134.25C89.0178 133.155 84.8532 131.242 81.0977 128.543L69.8027 133.032C69.2746 133.243 68.6637 133.13 68.2412 132.737C67.8187 132.345 67.6598 131.749 67.8408 131.206L71.7793 118.772C67.9917 112.918 66 106.149 66 99.1553C66.0001 79.2218 82.2144 63.001 102.141 63.001ZM138.276 98.0771C138.287 98.4272 138.296 98.7845 138.296 99.1475C138.296 112.535 130.977 124.248 120.125 130.492C119.82 130.668 119.512 130.837 119.202 131.004C118.995 131.115 118.788 131.226 118.578 131.333C113.645 133.863 108.057 135.291 102.141 135.293V135.295C102.023 135.295 101.905 135.291 101.787 135.29C101.648 135.289 101.51 135.288 101.371 135.285C101.214 135.282 101.057 135.277 100.9 135.271C100.771 135.267 100.643 135.263 100.514 135.257C100.368 135.25 100.222 135.244 100.076 135.236C99.9057 135.227 99.7355 135.215 99.5654 135.203C99.3577 135.189 99.1505 135.171 98.9434 135.153C98.7967 135.141 98.6502 135.128 98.5039 135.113C98.3817 135.101 98.2596 135.089 98.1377 135.075C97.9221 135.052 97.7069 135.026 97.4922 134.999C97.4382 134.992 97.3841 134.986 97.3301 134.979C97.0778 134.945 96.8261 134.91 96.5752 134.872C98.9219 150.92 112.971 163.218 129.389 163.218C136.647 163.218 143.543 160.917 149.33 156.563C149.745 156.254 150.289 156.179 150.771 156.367L159.923 159.996L156.709 149.871C156.573 149.441 156.641 148.965 156.897 148.588C160.61 143.103 162.571 136.69 162.571 130.043C162.571 115.137 152.465 101.995 138.276 98.0771ZM102.141 65.9883C83.8516 65.9883 68.9727 80.8746 68.9727 99.1709C68.9727 105.81 70.9345 112.23 74.6465 117.73C74.903 118.108 74.9705 118.576 74.8271 119.014L71.6211 129.139L80.7734 125.502C80.9544 125.434 81.1357 125.396 81.3242 125.396L81.3164 125.381C81.6333 125.381 81.9498 125.487 82.2139 125.684C86.0827 128.602 90.442 130.592 95.1777 131.604L95.1797 131.604C97.4356 132.087 99.7749 132.337 102.129 132.337C120.425 132.337 135.312 117.458 135.312 99.1689C135.312 98.1506 135.267 97.1925 135.184 96.3174C135.178 96.2564 135.175 96.1954 135.177 96.1348C133.639 79.2093 119.161 65.9884 102.141 65.9883Z" fill="url(#paint1_linear_3314_9970)"/>
<defs>
<linearGradient id="paint0_linear_3314_9970" x1="115" y1="0" x2="115" y2="230" gradientUnits="userSpaceOnUse">
<stop stop-color="#25E2CC"/>
<stop offset="1" stop-color="#007380"/>
</linearGradient>
<linearGradient id="paint1_linear_3314_9970" x1="115.769" y1="63" x2="115.769" y2="166.198" gradientUnits="userSpaceOnUse">
<stop stop-color="#25E2CC"/>
<stop offset="1" stop-color="#007380"/>
</linearGradient>
</defs>
</svg>
