<svg width="70" height="71" viewBox="0 0 70 71" fill="none" xmlns="http://www.w3.org/2000/svg">
<path d="M58.9029 20.8608C58.9029 20.8608 58.8719 20.8608 58.8513 20.8608L50.5095 20.4476C49.9878 20.4218 49.5694 20.0034 49.5436 19.4817L49.1304 11.1399C49.1149 10.8558 49.2233 10.5717 49.4248 10.3703L59.5072 0.298183C59.7913 0.0140975 60.22 -0.0788759 60.5919 0.0709146C60.969 0.21554 61.2221 0.566773 61.2427 0.969658L61.6095 8.39204L69.0318 8.75877C69.4347 8.77943 69.786 9.03252 69.9306 9.40958C70.0752 9.78664 69.9874 10.2102 69.7033 10.4943L59.626 20.5716C59.4349 20.7627 59.1767 20.8711 58.9081 20.8711L58.9029 20.8608ZM51.5322 18.459L58.5052 18.8051L66.6404 10.6699L60.5868 10.3703C60.0651 10.3445 59.6467 9.9261 59.6209 9.40442L59.3213 3.35081L51.1861 11.486L51.5322 18.459Z" fill="#25E2CC"/>
<path d="M28.7394 51.3201C23.3108 51.3201 18.8945 46.9038 18.8945 41.4752C18.8945 36.0466 23.3108 31.6304 28.7394 31.6304C34.168 31.6304 38.5842 36.0466 38.5842 41.4752C38.5842 46.9038 34.168 51.3201 28.7394 51.3201ZM28.7394 33.6655C24.4316 33.6655 20.9296 37.1675 20.9296 41.4752C20.9296 45.783 24.4316 49.285 28.7394 49.285C33.0472 49.285 36.5492 45.783 36.5492 41.4752C36.5492 37.1675 33.0472 33.6655 28.7394 33.6655Z" fill="#25E2CC"/>
<path d="M28.7393 60.9995C17.975 60.9995 9.21484 52.2394 9.21484 41.4751C9.21484 30.7108 17.975 21.9507 28.7393 21.9507C39.5035 21.9507 48.2637 30.7108 48.2637 41.4751C48.2637 52.2394 39.5035 60.9995 28.7393 60.9995ZM28.7393 23.9858C19.0959 23.9858 11.2499 31.8317 11.2499 41.4751C11.2499 51.1185 19.0959 58.9644 28.7393 58.9644C38.3827 58.9644 46.2286 51.1185 46.2286 41.4751C46.2286 31.8317 38.3827 23.9858 28.7393 23.9858Z" fill="#25E2CC"/>
<path d="M28.7391 70.2141C12.8923 70.2141 0 57.3218 0 41.475C0 25.6282 12.8923 12.7358 28.7391 12.7358C44.5859 12.7358 57.4783 25.6282 57.4783 41.475C57.4783 57.3218 44.5859 70.2141 28.7391 70.2141ZM28.7391 14.7709C14.0132 14.7709 2.02992 26.749 2.02992 41.475C2.02992 56.2009 14.008 68.179 28.734 68.179C43.4599 68.179 55.438 56.2009 55.438 41.475C55.438 26.749 43.4599 14.7709 28.734 14.7709H28.7391Z" fill="#25E2CC"/>
<path d="M28.7389 42.4923C28.4806 42.4923 28.2172 42.3942 28.0209 42.1928C27.6232 41.795 27.6232 41.1546 28.0209 40.7568L49.9575 18.8203C50.3552 18.4225 50.9957 18.4225 51.3934 18.8203C51.7912 19.218 51.7912 19.8585 51.3934 20.2562L29.4569 42.1928C29.2606 42.389 28.9972 42.4923 28.7389 42.4923Z" fill="#25E2CC"/>
</svg>
