<svg width="230" height="230" viewBox="0 0 230 230" fill="none" xmlns="http://www.w3.org/2000/svg">
<circle cx="115" cy="115" r="113.5" stroke="url(#paint0_linear_3314_9933)" stroke-width="3"/>
<path d="M125.678 151.285C126.285 151.285 126.849 151.603 127.166 152.131C127.474 152.65 127.492 153.303 127.201 153.84L116.641 173.452C116.341 174.016 115.751 174.368 115.117 174.368C114.474 174.368 113.893 174.016 113.594 173.452L103.033 153.84C102.743 153.303 102.76 152.65 103.068 152.131C103.377 151.602 103.95 151.285 104.558 151.285H125.678ZM115.117 168.979L122.771 154.755H107.464L115.117 168.979ZM114.197 55.2627C114.77 54.9017 115.474 54.9245 116.016 55.2578C116.018 55.2594 116.021 55.2611 116.023 55.2627C116.667 55.6594 131.823 65.2151 131.823 80.2744V100.564L161.955 129.294C162.58 129.893 162.669 130.862 162.167 131.566L151.113 146.899C150.787 147.348 150.268 147.621 149.704 147.621H130.273C130.213 147.627 130.151 147.631 130.089 147.631L130.098 147.622H115.271C115.219 147.627 115.167 147.63 115.113 147.63V147.621H100.132C100.13 147.621 100.128 147.62 100.127 147.62C100.125 147.62 100.124 147.621 100.122 147.621H80.5176C79.9629 147.621 79.4343 147.348 79.1084 146.899L68.0547 131.566C67.5439 130.862 67.6413 129.893 68.2666 129.294L98.3965 100.566V80.2744C98.3965 65.2145 113.554 55.659 114.197 55.2627ZM115.116 58.8369C111.982 61.0715 101.866 69.1444 101.866 80.2744V144.16H114.958C115.01 144.155 115.063 144.152 115.116 144.152H128.362V80.2744C128.362 69.1089 118.256 61.0642 115.116 58.8369ZM71.7451 130.765L81.3984 144.151H98.3965V105.352L71.7451 130.765ZM131.823 144.151H148.823L158.477 130.765L131.823 105.35V144.151ZM115.116 92.0928C120.198 92.093 124.337 96.232 124.337 101.313C124.337 106.395 120.198 110.534 115.116 110.534C110.034 110.534 105.895 106.395 105.895 101.313C105.895 96.2318 110.034 92.0928 115.116 92.0928ZM115.116 95.5537C111.946 95.5537 109.355 98.1342 109.355 101.313C109.356 104.493 111.937 107.064 115.116 107.064C118.295 107.064 120.867 104.484 120.867 101.313C120.867 98.1431 118.287 95.5539 115.116 95.5537ZM69.5645 75.2461C70.4614 75.2961 71.1609 76.0277 71.1934 76.916C71.2489 77.7293 72.0674 87.2203 79.1357 87.2666C79.153 87.2665 79.1702 87.2666 79.1875 87.2666C80.0514 87.2666 80.7641 87.8946 80.8984 88.7197C80.9136 88.8121 80.9229 88.9072 80.9229 89.0039C80.9226 89.9637 80.1474 90.7383 79.1875 90.7383C79.1702 90.7383 79.153 90.7374 79.1357 90.7373C72.0675 90.7836 71.2504 100.278 71.1934 101.088C71.1658 101.981 70.4648 102.717 69.5645 102.768H69.458C68.651 102.767 67.9675 102.213 67.7803 101.455C67.774 101.431 67.7698 101.406 67.7646 101.381C67.7591 101.353 67.7523 101.326 67.748 101.298C67.7376 101.232 67.7313 101.165 67.7285 101.097C67.6717 100.269 66.8458 90.7464 59.7354 90.7461C58.7753 90.7461 58 89.9707 58 89.0107C58 88.9802 58.0033 88.95 58.0049 88.9199C58.048 87.9987 58.8032 87.2676 59.7354 87.2676C66.85 87.2673 67.6711 77.7318 67.7285 76.917C67.7375 76.6688 67.7983 76.433 67.9014 76.2207C67.9158 76.1905 67.9331 76.1619 67.9492 76.1328C67.9591 76.1151 67.9671 76.0964 67.9775 76.0791C67.9902 76.0579 68.005 76.0381 68.0186 76.0176C68.0367 75.9903 68.0546 75.9627 68.0742 75.9365C68.0863 75.9204 68.0997 75.9053 68.1123 75.8896C68.1329 75.8641 68.1528 75.8379 68.1748 75.8135C68.2318 75.7503 68.2945 75.6927 68.3604 75.6387C68.3808 75.6218 68.4006 75.6039 68.4219 75.5879C68.438 75.5759 68.4551 75.5652 68.4717 75.5537C68.5015 75.5329 68.5313 75.5121 68.5625 75.4932C68.5703 75.4884 68.579 75.4851 68.5869 75.4805C68.8153 75.3467 69.0768 75.2628 69.3584 75.2471C69.4163 75.2438 69.4741 75.2434 69.5312 75.2461H69.5645ZM69.4609 83.9492C68.5564 85.9 67.2527 87.7369 65.4375 89.0068C67.2519 90.2762 68.5554 92.1118 69.46 94.0615C70.3635 92.1116 71.6657 90.2742 73.4785 89.0029C71.6665 87.733 70.3644 85.898 69.4609 83.9492ZM160.848 59.4023C160.853 59.4025 160.858 59.4021 160.863 59.4023C161.767 59.4527 162.469 60.194 162.492 61.0908C162.56 62.0328 163.423 71.4227 170.484 71.4229C171.415 71.4229 172.17 72.1512 172.216 73.0703C172.217 73.1 172.22 73.1301 172.22 73.1602C172.22 74.12 171.444 74.8945 170.484 74.8945C163.622 74.8946 162.616 83.7662 162.502 85.127C162.535 86.0712 161.812 86.8705 160.873 86.9229H160.767C160.67 86.9228 160.575 86.9131 160.482 86.8975C160.48 86.8972 160.479 86.8968 160.477 86.8965C160.443 86.8907 160.409 86.8838 160.376 86.876C159.581 86.6989 159.002 85.9763 159.025 85.1338C158.912 83.768 157.905 74.9016 151.044 74.9014C150.621 74.9014 150.233 74.7506 149.933 74.5C149.546 74.1821 149.299 73.6995 149.299 73.1582C149.299 72.1984 150.074 71.4238 151.034 71.4238C158.097 71.4236 158.957 62.0253 159.025 61.0918C159.048 60.1941 159.751 59.4517 160.655 59.4014C160.72 59.3977 160.784 59.3987 160.848 59.4023ZM160.758 68.1045C159.854 70.0528 158.552 71.8872 156.74 73.1572C158.554 74.4241 159.857 76.2575 160.763 78.2051C161.666 76.2597 162.968 74.4274 164.777 73.1592C162.964 71.8893 161.662 70.0538 160.758 68.1045Z" fill="url(#paint1_linear_3314_9933)"/>
<defs>
<linearGradient id="paint0_linear_3314_9933" x1="115" y1="0" x2="115" y2="230" gradientUnits="userSpaceOnUse">
<stop stop-color="#25E2CC"/>
<stop offset="1" stop-color="#007380"/>
</linearGradient>
<linearGradient id="paint1_linear_3314_9933" x1="115.11" y1="55" x2="115.11" y2="174.368" gradientUnits="userSpaceOnUse">
<stop stop-color="#25E2CC"/>
<stop offset="1" stop-color="#007380"/>
</linearGradient>
</defs>
</svg>
