<svg width="61" height="64" viewBox="0 0 61 64" fill="none" xmlns="http://www.w3.org/2000/svg">
<path d="M38.8467 63.2379C27.4442 63.2379 17.7526 54.3512 16.7862 43.0093C16.7631 42.7226 16.874 42.4406 17.0913 42.251C17.3087 42.0615 17.6 41.9828 17.882 42.043C19.2646 42.3389 20.6979 42.4915 22.1406 42.4915C33.3535 42.4915 42.4765 33.3735 42.4765 22.1657C42.4765 21.5415 42.4487 20.9543 42.3978 20.418C42.3701 20.1313 42.4811 19.8446 42.6984 19.6504C42.9158 19.4562 43.207 19.3776 43.4937 19.4377C53.6385 21.5924 60.9997 30.7011 60.9997 41.0951C60.9997 45.3859 59.7744 49.5287 57.4578 53.1121L59.8715 60.7319C59.9778 61.0648 59.8807 61.4347 59.6264 61.6705C59.3674 61.9109 58.9975 61.9803 58.6692 61.8508L51.7473 59.1044C47.9649 61.8139 43.5168 63.2426 38.8467 63.2426V63.2379ZM18.7375 44.045C20.1755 53.8796 28.7852 61.4162 38.8467 61.4162C43.2949 61.4162 47.5211 60.006 51.0676 57.3381C51.3219 57.1485 51.6549 57.1023 51.9508 57.2179L57.5595 59.4419L55.5897 53.2369C55.5065 52.9734 55.5481 52.6821 55.7053 52.4509C57.9803 49.0895 59.1825 45.1593 59.1825 41.0859C59.1825 31.9494 52.9865 23.895 44.289 21.4953C44.2936 21.7126 44.2983 21.9345 44.2983 22.1565C44.2983 34.3676 34.3615 44.3039 22.1406 44.3039C20.9939 44.3039 19.8518 44.2161 18.7328 44.045H18.7375Z" fill="#25E2CC"/>
<path d="M22.1483 44.3042C20.5762 44.3042 19.0134 44.1423 17.506 43.8141C14.5098 43.176 11.7354 41.9507 9.25238 40.166L2.33045 42.9171C2.00678 43.0465 1.63221 42.9772 1.37328 42.7367C1.11434 42.4963 1.01723 42.131 1.1282 41.7981L3.54185 34.1783C1.22066 30.5903 0 26.4429 0 22.1567C0 9.94093 9.93666 0 22.1483 0C33.5554 0 43.2471 8.89135 44.2181 20.2379C44.2736 20.8251 44.306 21.4724 44.306 22.1521C44.306 34.3633 34.3692 44.2996 22.1483 44.2996V44.3042ZM9.38649 38.2286C9.58069 38.2286 9.77487 38.2934 9.9367 38.4136C12.3088 40.203 14.9813 41.4236 17.8851 42.0432C19.2677 42.3391 20.701 42.4917 22.1483 42.4917C33.3612 42.4917 42.4841 33.3738 42.4841 22.166C42.4841 21.5418 42.4564 20.9546 42.4055 20.4182C41.5178 9.99179 32.6168 1.83098 22.1483 1.83098C10.94 1.83098 1.82178 10.9535 1.82178 22.166C1.82178 26.2348 3.024 30.1696 5.29894 33.5402C5.45616 33.7714 5.49777 34.0581 5.40991 34.3263L3.44476 40.5313L9.05359 38.3026C9.16456 38.261 9.27552 38.2379 9.39112 38.2379L9.38649 38.2286Z" fill="#25E2CC"/>
</svg>
