<svg width="70" height="74" viewBox="0 0 70 74" fill="none" xmlns="http://www.w3.org/2000/svg">
<path d="M35.0021 56.7644H25.8211C25.2328 56.7644 24.7578 56.2894 24.7578 55.7011V15.4902C24.7578 6.26056 34.0468 0.404342 34.4408 0.161457C34.9374 -0.151594 35.5959 0.00493133 35.9035 0.506893C36.2112 1.00346 36.0601 1.66194 35.5635 1.9696C35.4771 2.02357 26.8844 7.45879 26.8844 15.4902V54.6432H35.0021C35.5905 54.6432 36.0654 55.1181 36.0654 55.7065C36.0654 56.2948 35.5905 56.7698 35.0021 56.7698V56.7644Z" fill="#25E2CC"/>
<path d="M44.1831 56.7646H35.002C34.4137 56.7646 33.9388 56.2896 33.9388 55.7013C33.9388 55.113 34.4137 54.638 35.002 54.638H43.1198V15.4904C43.1198 7.43203 34.5325 2.0238 34.4407 1.96983C33.9442 1.66217 33.7876 1.00369 34.0953 0.507123C34.4029 0.0105585 35.0614 -0.145967 35.558 0.161687C35.952 0.404572 45.241 6.26079 45.241 15.4904V55.7067C45.241 56.295 44.766 56.77 44.1777 56.77L44.1831 56.7646Z" fill="#25E2CC"/>
<path d="M25.8215 56.7645H13.8014C13.4614 56.7645 13.1375 56.5972 12.9378 56.3219L6.16401 46.925C5.85096 46.4932 5.91033 45.8995 6.29355 45.5324L25.0874 27.613C25.5138 27.2082 26.1831 27.2243 26.5879 27.6507C26.9927 28.0771 26.9765 28.7464 26.5501 29.1512L8.42554 46.4338L14.3411 54.6379H25.8161C26.4044 54.6379 26.8794 55.1129 26.8794 55.7012C26.8794 56.2895 26.4044 56.7645 25.8161 56.7645H25.8215Z" fill="#25E2CC"/>
<path d="M56.2042 56.7645H44.1841C43.5958 56.7645 43.1208 56.2895 43.1208 55.7012C43.1208 55.1129 43.5958 54.6379 44.1841 54.6379H55.6591L61.5747 46.4338L43.4501 29.1512C43.0237 28.7464 43.0075 28.0717 43.4123 27.6507C43.8171 27.2243 44.4918 27.2082 44.9128 27.613L63.7067 45.5324C64.0899 45.8995 64.1438 46.4932 63.8362 46.925L57.0624 56.3219C56.8627 56.5972 56.5442 56.7645 56.1988 56.7645H56.2042Z" fill="#25E2CC"/>
<path d="M35.0031 73.1564C34.6091 73.1564 34.2528 72.9405 34.0693 72.5951L27.5978 60.575C27.4197 60.2458 27.4305 59.8464 27.6194 59.5279C27.8083 59.2041 28.1591 59.0098 28.5316 59.0098H41.4746C41.8471 59.0098 42.1925 59.2041 42.3868 59.5279C42.5757 59.8464 42.5865 60.2458 42.4084 60.575L35.9369 72.5951C35.7533 72.9405 35.3917 73.1564 35.0031 73.1564ZM30.3127 61.1364L35.0031 69.8532L39.6935 61.1364H30.3127Z" fill="#25E2CC"/>
<path d="M35.0007 34.0356C31.8864 34.0356 29.3496 31.4988 29.3496 28.3845C29.3496 25.2702 31.8864 22.7334 35.0007 22.7334C38.115 22.7334 40.6518 25.2702 40.6518 28.3845C40.6518 31.4988 38.115 34.0356 35.0007 34.0356ZM35.0007 24.8546C33.0576 24.8546 31.4708 26.436 31.4708 28.3845C31.4708 30.333 33.0522 31.909 35.0007 31.909C36.9492 31.909 38.5252 30.3276 38.5252 28.3845C38.5252 26.4414 36.9438 24.8546 35.0007 24.8546Z" fill="#25E2CC"/>
<path d="M57.0145 12.1925C56.4262 12.1925 55.9512 11.7176 55.9512 11.1292C55.9512 10.5409 56.4262 10.0659 57.0145 10.0659C61.4728 10.0659 61.8992 3.95604 61.9154 3.69696C61.9531 3.11404 62.4335 2.67145 63.038 2.69844C63.6209 2.73082 64.0689 3.23278 64.0366 3.8211C63.8692 6.71413 62.1852 12.1925 57.0145 12.1925Z" fill="#25E2CC"/>
<path d="M68.9358 12.192C63.7651 12.192 62.0811 6.71905 61.9138 3.82062C61.8814 3.2323 62.3293 2.73034 62.9123 2.69796C63.479 2.66557 63.9972 3.10816 64.0349 3.69648C64.0511 3.97175 64.4829 10.0655 68.9358 10.0655C69.5241 10.0655 69.9991 10.5404 69.9991 11.1288C69.9991 11.7171 69.5241 12.192 68.9358 12.192Z" fill="#25E2CC"/>
<path d="M62.9771 19.5654C62.4212 19.5654 61.9516 19.1282 61.9192 18.5669C61.903 18.2916 61.4713 12.1979 57.0184 12.1979C56.4301 12.1979 55.9551 11.7229 55.9551 11.1346C55.9551 10.5463 56.4301 10.0713 57.0184 10.0713C62.1891 10.0713 63.8731 15.5443 64.0405 18.4427C64.0728 19.031 63.6248 19.533 63.0419 19.5654C63.0203 19.5654 62.9987 19.5654 62.9771 19.5654Z" fill="#25E2CC"/>
<path d="M62.977 19.56C62.977 19.56 62.9339 19.56 62.9123 19.56C62.3293 19.5276 61.8814 19.0257 61.9138 18.4373C62.0811 15.5443 63.7651 10.0659 68.9358 10.0659C69.5241 10.0659 69.9991 10.5409 69.9991 11.1292C69.9991 11.7175 69.5241 12.1925 68.9358 12.1925C64.4775 12.1925 64.0511 18.3024 64.0349 18.5615C64.0026 19.1228 63.533 19.56 62.977 19.56Z" fill="#25E2CC"/>
<path d="M1.06328 21.9025C0.474958 21.9025 0 21.4275 0 20.8392C0 20.2509 0.474958 19.7759 1.06328 19.7759C5.52156 19.7759 5.94797 13.666 5.96416 13.4069C6.00194 12.824 6.48232 12.3814 7.08683 12.4084C7.66976 12.4408 8.11773 12.9427 8.08535 13.5311C7.91803 16.4295 6.23402 21.9025 1.06328 21.9025Z" fill="#25E2CC"/>
<path d="M12.9866 21.9025C7.81587 21.9025 6.13186 16.4295 5.96454 13.5311C5.93216 12.9427 6.38016 12.4408 6.96309 12.4084C7.52982 12.376 8.04795 12.824 8.08573 13.4069C8.10192 13.6822 8.53373 19.7759 12.9866 19.7759C13.5749 19.7759 14.0499 20.2509 14.0499 20.8392C14.0499 21.4275 13.5749 21.9025 12.9866 21.9025Z" fill="#25E2CC"/>
<path d="M7.02207 29.2753C6.46073 29.2753 5.99654 28.8381 5.96416 28.2768C5.94797 28.0015 5.51616 21.9078 1.06328 21.9078C0.474958 21.9078 0 21.4329 0 20.8445C0 20.2562 0.474958 19.7812 1.06328 19.7812C6.23402 19.7812 7.91803 25.2543 8.08535 28.1527C8.11773 28.741 7.66976 29.243 7.08683 29.2753C7.06524 29.2753 7.04366 29.2753 7.02207 29.2753Z" fill="#25E2CC"/>
<path d="M7.02785 29.27C7.02785 29.27 6.98468 29.27 6.96309 29.27C6.38016 29.2376 5.93216 28.7356 5.96454 28.1473C6.13186 25.2543 7.81587 19.7759 12.9866 19.7759C13.5749 19.7759 14.0499 20.2509 14.0499 20.8392C14.0499 21.4275 13.5749 21.9025 12.9866 21.9025C8.52833 21.9025 8.10192 28.0124 8.08573 28.2714C8.05334 28.8328 7.58379 29.27 7.02785 29.27Z" fill="#25E2CC"/>
</svg>
