<svg width="230" height="230" viewBox="0 0 230 230" fill="none" xmlns="http://www.w3.org/2000/svg">
<circle cx="115" cy="115" r="113.5" stroke="url(#paint0_linear_3314_9981)" stroke-width="3"/>
<path d="M122.262 64.2979C122.605 64.0368 123.046 63.9401 123.471 64.0371C123.896 64.1342 124.253 64.4101 124.447 64.7979L128.595 72.8164L137.449 71.0557C137.867 70.9736 138.315 71.0783 138.65 71.3467C138.986 71.6152 139.187 72.0185 139.202 72.4512L139.464 81.4844L148.214 83.7451C148.632 83.8496 148.982 84.1404 149.169 84.5283C149.355 84.9161 149.363 85.3714 149.184 85.7666L145.491 94.002L152.392 99.835C152.72 100.111 152.914 100.522 152.914 100.954C152.914 101.386 152.72 101.796 152.392 102.072L145.491 107.906L149.184 116.142C149.363 116.537 149.355 116.992 149.169 117.38C148.982 117.768 148.632 118.059 148.214 118.163L139.799 120.336L158.914 153.849C159.175 154.311 159.168 154.871 158.899 155.326C158.631 155.781 158.101 156.064 157.608 156.042L146.493 155.825L141.018 165.508C140.756 165.97 140.272 166.254 139.742 166.254L139.735 166.269C139.206 166.269 138.72 165.985 138.459 165.53L122.671 137.828C122.525 137.778 122.387 137.706 122.262 137.61L115.041 132.18L107.835 137.61C107.718 137.7 107.588 137.768 107.452 137.818L91.6455 165.553C91.3844 166.008 90.8997 166.291 90.3701 166.291L90.3623 166.276C89.8328 166.276 89.3479 165.993 89.0869 165.53L83.6113 155.848L72.4971 156.064C71.9525 156.079 71.4746 155.795 71.2061 155.348C70.9378 154.893 70.9304 154.333 71.1914 153.871L90.3174 120.335L81.8896 118.17C81.472 118.065 81.121 117.775 80.9346 117.387C80.7483 116.999 80.741 116.544 80.9199 116.148L84.6055 107.906L77.7197 102.072C77.3918 101.789 77.2052 101.387 77.2051 100.954C77.2051 100.522 77.3916 100.111 77.7197 99.835L84.6055 94.002L80.9199 85.7588C80.7409 85.3635 80.7482 84.9158 80.9346 84.5205C81.121 84.1326 81.4719 83.8418 81.8896 83.7373L90.6396 81.4766L90.8857 72.4512C90.9007 72.0185 91.1028 71.6152 91.4385 71.3467C91.7741 71.0783 92.2146 70.9736 92.6396 71.0557L101.501 72.8164L105.649 64.7979C105.851 64.4101 106.208 64.1341 106.626 64.0371C107.044 63.9476 107.492 64.0368 107.835 64.2979L115.041 69.7285L122.262 64.2979ZM75.0186 153.08L84.4248 152.901H84.4551V152.887C84.9846 152.887 85.4694 153.17 85.7305 153.633L90.3623 161.83L105.081 136.021L101.492 129.098L92.6309 130.844C92.2057 130.926 91.7654 130.821 91.4297 130.553C91.094 130.284 90.8919 129.881 90.877 129.448L90.7656 125.465L75.0186 153.08ZM139.202 129.441C139.187 129.874 138.986 130.277 138.65 130.546C138.315 130.814 137.874 130.919 137.449 130.837L128.595 129.091L125.012 136.017L139.728 161.823L144.36 153.625C144.621 153.163 145.106 152.879 145.636 152.879H145.665L155.072 153.058L139.317 125.437L139.202 129.441ZM115.936 72.7051C115.414 73.1 114.69 73.1001 114.168 72.7051L107.462 67.6543L103.605 75.1143C103.307 75.6959 102.658 76.0019 102.017 75.8828L93.7734 74.249L93.542 82.6484C93.527 83.3048 93.0715 83.8642 92.4375 84.0283L84.2998 86.124L87.7236 93.7852C87.9921 94.3819 87.8273 95.0836 87.335 95.5088L80.9277 100.938L87.335 106.369C87.8347 106.794 87.992 107.496 87.7236 108.085L84.2998 115.746L92.4307 117.835C93.0646 117.999 93.5193 118.566 93.5342 119.223L93.5566 120.068C93.5586 120.094 93.5619 120.12 93.5625 120.146L93.7705 127.612L102.009 125.988C102.65 125.862 103.299 126.174 103.598 126.756L107.454 134.208L114.153 129.158C114.414 128.964 114.727 128.86 115.033 128.86L115.048 128.875C115.361 128.875 115.668 128.972 115.929 129.166L122.64 134.214L126.502 126.756C126.8 126.174 127.449 125.861 128.091 125.987L136.326 127.613L136.542 120.124C136.542 120.106 136.544 120.088 136.545 120.069L136.569 119.229C136.584 118.573 137.039 118.014 137.673 117.85L145.805 115.754L142.373 108.093C142.104 107.496 142.268 106.794 142.761 106.369L149.177 100.938L142.761 95.5088C142.261 95.0836 142.104 94.3819 142.373 93.7852L145.805 86.124L137.673 84.0283C137.039 83.8641 136.592 83.3046 136.577 82.6484L136.331 74.249L128.103 75.8828C127.461 76.0095 126.812 75.6959 126.514 75.1143L122.649 67.6543L115.936 72.7051ZM115.04 76.6846C128.415 76.6846 139.299 87.5684 139.299 100.943C139.299 114.318 128.415 125.201 115.04 125.201C101.665 125.201 90.7813 114.318 90.7812 100.943C90.7812 87.5685 101.665 76.6847 115.04 76.6846ZM115.04 79.624C103.284 79.6242 93.7207 89.1872 93.7207 100.943C93.7208 112.699 103.284 122.263 115.04 122.263C126.796 122.263 136.36 112.7 136.36 100.943C136.36 89.1872 126.797 79.624 115.04 79.624ZM122.677 94.0615C123.221 93.4573 124.147 93.4126 124.751 93.957C125.355 94.5016 125.4 95.427 124.855 96.0312L114.226 107.817C113.942 108.131 113.546 108.302 113.136 108.302H113.062C112.621 108.279 112.211 108.056 111.95 107.69L107.504 101.507C107.026 100.85 107.183 99.9325 107.84 99.4551C108.496 98.9852 109.413 99.1346 109.891 99.791L113.271 104.498L122.677 94.0615Z" fill="url(#paint1_linear_3314_9981)"/>
<defs>
<linearGradient id="paint0_linear_3314_9981" x1="115" y1="0" x2="115" y2="230" gradientUnits="userSpaceOnUse">
<stop stop-color="#25E2CC"/>
<stop offset="1" stop-color="#007380"/>
</linearGradient>
<linearGradient id="paint1_linear_3314_9981" x1="115.053" y1="64" x2="115.053" y2="166.291" gradientUnits="userSpaceOnUse">
<stop stop-color="#25E2CC"/>
<stop offset="1" stop-color="#007380"/>
</linearGradient>
</defs>
</svg>
