<svg width="175" height="27" viewBox="0 0 175 27" fill="none" xmlns="http://www.w3.org/2000/svg">
<path d="M147.155 6.494H140.661C139.8 6.494 138.974 6.15191 138.365 5.54298C137.756 4.93405 137.414 4.10816 137.414 3.247C137.414 2.38584 137.756 1.55995 138.365 0.951024C138.974 0.342094 139.8 0 140.661 0L147.155 0C148.016 0 148.842 0.342094 149.451 0.951024C150.06 1.55995 150.402 2.38584 150.402 3.247C150.402 4.10816 150.06 4.93405 149.451 5.54298C148.842 6.15191 148.016 6.494 147.155 6.494Z" fill="#25E2CC"/>
<path d="M0 17.8931C0 12.8361 4.113 8.87406 9.547 8.87406C11.8268 8.7972 14.0684 9.47375 15.925 10.7991L13.925 14.5351C12.8059 13.761 11.4747 13.3523 10.114 13.3651C7.095 13.3651 5.057 15.2521 5.057 17.8931C5.057 20.5341 7.057 22.4211 10.038 22.4211C11.4247 22.4511 12.7853 22.0416 13.925 21.2511L15.887 24.9511C14.0402 26.2712 11.8167 26.9603 9.547 26.9161C4 26.9161 0 22.9871 0 17.8931Z" fill="#003D5B"/>
<path d="M16.7441 17.8931C16.6681 16.0196 17.1541 14.1661 18.1397 12.571C19.1253 10.9759 20.5654 9.71201 22.275 8.94177C23.9845 8.17154 25.8854 7.93017 27.7331 8.24869C29.5809 8.56721 31.2913 9.43107 32.6443 10.7292C33.9972 12.0274 34.9311 13.7005 35.3258 15.5335C35.7204 17.3666 35.5579 19.2758 34.859 21.0157C34.1601 22.7556 32.9568 24.2468 31.4038 25.2975C29.8508 26.3483 28.0191 26.9105 26.1441 26.9121C24.931 26.9513 23.7224 26.7476 22.5892 26.3131C21.456 25.8785 20.4211 25.2218 19.5453 24.3815C18.6695 23.5413 17.9706 22.5344 17.4895 21.4201C17.0085 20.3059 16.755 19.1067 16.7441 17.8931ZM30.5561 17.8931C30.5342 17.0244 30.2567 16.1815 29.7582 15.4699C29.2596 14.7582 28.5623 14.2094 27.7534 13.8921C26.9445 13.5748 26.06 13.5031 25.2106 13.6861C24.3611 13.869 23.5845 14.2984 22.9779 14.9205C22.3714 15.5426 21.9617 16.3298 21.8003 17.1836C21.6389 18.0374 21.7329 18.9198 22.0706 19.7204C22.4082 20.521 22.9745 21.2043 23.6985 21.6846C24.4225 22.165 25.2722 22.4212 26.1411 22.4211C26.7302 22.4203 27.3133 22.3018 27.856 22.0726C28.3987 21.8433 28.8901 21.508 29.3014 21.0861C29.7127 20.6643 30.0356 20.1646 30.251 19.6162C30.4665 19.0679 30.5702 18.482 30.5561 17.8931Z" fill="#003D5B"/>
<path d="M55.7907 16.9872V26.5722H50.8477V17.6672C50.8477 15.0252 49.3007 13.3272 47.0357 13.3272C46.4894 13.316 45.9467 13.4178 45.4417 13.6263C44.9366 13.8349 44.4802 14.1456 44.101 14.539C43.7218 14.9324 43.428 15.3999 43.2381 15.9123C43.0483 16.4246 42.9664 16.9707 42.9977 17.5162V26.5732H38.0547V9.2162H41.6017L41.7907 12.1602C42.4605 11.0902 43.4064 10.2206 44.5288 9.64283C45.6513 9.06508 46.9086 8.8006 48.1687 8.8772C52.8097 8.8772 55.7917 12.0472 55.7917 16.9902" fill="#003D5B"/>
<path d="M58.082 17.8931C58.082 12.8361 62.195 8.87406 67.629 8.87406C69.9088 8.7972 72.1504 9.47375 74.007 10.7991L72.007 14.5351C70.8879 13.7611 69.5567 13.3524 68.196 13.3651C65.177 13.3651 63.139 15.2521 63.139 17.8931C63.139 20.5341 65.139 22.4211 68.12 22.4211C69.5067 22.4511 70.8673 22.0416 72.007 21.2511L73.969 24.9511C72.1218 26.2701 69.8984 26.9582 67.629 26.9131C62.082 26.9131 58.082 22.9871 58.082 17.8931Z" fill="#003D5B"/>
<path d="M92.4863 19.2519H79.7312C80.0848 20.3331 80.7891 21.2654 81.7325 21.9011C82.6758 22.5367 83.8044 22.8393 84.9392 22.7609C86.6425 22.778 88.288 22.1438 89.5392 20.9879L91.5773 24.5349C89.5766 26.2104 87.0127 27.0608 84.4072 26.9129C78.8982 26.9129 74.8602 22.9879 74.8602 17.8939C74.83 16.6981 75.0438 15.5086 75.4887 14.3981C75.9336 13.2877 76.6003 12.2796 77.448 11.4355C78.2956 10.5914 79.3065 9.92897 80.4188 9.48871C81.5311 9.04846 82.7215 8.83961 83.9172 8.87493C89.1622 8.87493 92.5592 12.7239 92.5592 17.9319C92.5592 18.5739 92.4842 19.2529 92.4842 19.2529M79.7672 16.0829H87.8432C87.7534 15.1638 87.3173 14.3132 86.6236 13.7036C85.9299 13.094 85.0303 12.7709 84.1072 12.7999C83.1119 12.743 82.1287 13.042 81.3336 13.6435C80.5385 14.2449 79.9833 15.1096 79.7672 16.0829Z" fill="#003D5B"/>
<path d="M112.778 16.987V26.572H107.834V17.667C107.834 15.025 106.287 13.327 104.022 13.327C103.476 13.3157 102.933 13.4176 102.428 13.6261C101.923 13.8346 101.467 14.1454 101.087 14.5387C100.708 14.9321 100.414 15.3997 100.224 15.912C100.035 16.4244 99.9527 16.9705 99.984 17.516V26.573H95.041V9.21596H98.588L98.777 12.16C99.4469 11.09 100.393 10.2203 101.515 9.64259C102.638 9.06484 103.895 8.80035 105.155 8.87696C109.796 8.87696 112.778 12.047 112.778 16.99" fill="#003D5B"/>
<path d="M142.394 9.02506L141.979 13.9311C141.43 13.698 140.839 13.5822 140.243 13.5911C139.662 13.5455 139.079 13.623 138.531 13.8186C137.983 14.0142 137.482 14.3234 137.061 14.726C136.641 15.1285 136.31 15.6154 136.091 16.1546C135.872 16.6939 135.769 17.2733 135.79 17.8551V26.5721H130.846V9.21706H134.959L135.148 12.6171C135.748 10.5041 137.903 8.88106 140.884 8.88106C141.391 8.87133 141.898 8.92202 142.394 9.03206" fill="#003D5B"/>
<path d="M149.627 9.21387H144.684V26.5729H149.627V9.21387Z" fill="#003D5B"/>
<path d="M164.246 26.5719L160.623 21.0619L157 26.5719H151.34L157.567 17.8549L151.642 9.21289H157.378L160.736 14.5339L164.246 9.21289H169.869L163.718 17.7439L170.058 26.5739L164.246 26.5719Z" fill="#003D5B"/>
<path d="M127.204 21.517C126.362 22.108 125.364 22.4362 124.336 22.46C122.562 22.46 121.279 21.705 121.279 19.667V13.367H127.732V9.21395H121.284V3.25195H116.491V9.22195H113.783C115.507 11.4377 116.411 14.1822 116.341 16.989V20.159C116.341 24.498 118.941 26.914 123.209 26.914C125.251 26.9943 127.259 26.3825 128.909 25.178L127.204 21.517Z" fill="#003D5B"/>
<path d="M150.404 3.247C150.404 3.8892 150.213 4.51697 149.857 5.05094C149.5 5.5849 148.993 6.00108 148.399 6.24684C147.806 6.49259 147.153 6.5569 146.523 6.43161C145.894 6.30632 145.315 5.99708 144.861 5.54298C144.407 5.08887 144.098 4.51031 143.972 3.88046C143.847 3.2506 143.911 2.59774 144.157 2.00443C144.403 1.41112 144.819 0.904003 145.353 0.547218C145.887 0.190433 146.515 0 147.157 0C148.018 0 148.844 0.342094 149.453 0.951024C150.062 1.55995 150.404 2.38584 150.404 3.247Z" fill="#003D5B"/>
<path d="M170.934 9.57487H171.547V11.1299H171.991V9.57487H172.604V9.21387H170.934V9.57487Z" fill="#003D5B"/>
<path d="M175 11.1291L174.995 9.21313H174.631L173.925 10.4031L173.207 9.21313H172.84V11.1291H173.256V10.0041L173.817 10.9271H174.017L174.581 9.98013V11.1301L175 11.1291Z" fill="#003D5B"/>
</svg>
