<svg width="92" height="14" viewBox="0 0 92 14" fill="none" xmlns="http://www.w3.org/2000/svg">
<mask id="mask0_952_17128" style="mask-type:luminance" maskUnits="userSpaceOnUse" x="0" y="0" width="92" height="28">
<path d="M91.7 0H0V27.0514H91.7V0Z" fill="white"/>
</mask>
<g mask="url(#mask0_952_17128)">
<path d="M77.1097 3.37551H73.7068C73.2555 3.37551 72.8228 3.19769 72.5037 2.88118C72.1846 2.56466 72.0054 2.13537 72.0054 1.68775C72.0054 1.24013 72.1846 0.810847 72.5037 0.494331C72.8228 0.177816 73.2555 0 73.7068 0L77.1097 0C77.5609 0 77.9937 0.177816 78.3127 0.494331C78.6318 0.810847 78.8111 1.24013 78.8111 1.68775C78.8111 2.13537 78.6318 2.56466 78.3127 2.88118C77.9937 3.19769 77.5609 3.37551 77.1097 3.37551Z" fill="#25E2CC"/>
<path d="M0 9.30041C0 6.67184 2.15521 4.61244 5.00263 4.61244C6.19724 4.57249 7.37184 4.92415 8.3447 5.61303L7.2967 7.55496C6.71029 7.15262 6.01272 6.94019 5.29974 6.94681C3.71778 6.94681 2.64987 7.92765 2.64987 9.30041C2.64987 10.6732 3.69787 11.654 5.25991 11.654C5.98654 11.6696 6.69951 11.4568 7.2967 11.0459L8.32479 12.9691C7.35704 13.6553 6.19196 14.0135 5.00263 13.9905C2.096 13.9905 0 11.9482 0 9.30041Z" fill="#003D5B"/>
<path d="M8.77382 9.30036C8.734 8.32653 8.98869 7.36314 9.50514 6.53402C10.0216 5.7049 10.7762 5.04794 11.672 4.64758C12.5678 4.24722 13.5639 4.12176 14.5321 4.28733C15.5004 4.45289 16.3966 4.90191 17.1055 5.57668C17.8145 6.25145 18.3038 7.12112 18.5106 8.07391C18.7174 9.02671 18.6323 10.0191 18.266 10.9235C17.8998 11.8279 17.2693 12.603 16.4555 13.1491C15.6418 13.6953 14.6819 13.9875 13.6994 13.9883C13.0638 14.0087 12.4305 13.9029 11.8367 13.677C11.2429 13.4511 10.7006 13.1097 10.2417 12.673C9.78278 12.2362 9.41653 11.7129 9.16446 11.1337C8.91238 10.5545 8.77957 9.93119 8.77382 9.30036ZM16.0113 9.30036C15.9999 8.84886 15.8544 8.41074 15.5932 8.04082C15.332 7.6709 14.9666 7.38563 14.5427 7.22071C14.1189 7.05578 13.6554 7.01852 13.2103 7.1136C12.7652 7.20869 12.3582 7.43188 12.0404 7.75525C11.7225 8.07862 11.5079 8.4878 11.4233 8.93158C11.3387 9.37537 11.388 9.83404 11.5649 10.2502C11.7418 10.6663 12.0386 11.0215 12.4179 11.2712C12.7973 11.5209 13.2425 11.654 13.6979 11.654C14.0066 11.6536 14.3121 11.592 14.5965 11.4728C14.8808 11.3537 15.1384 11.1793 15.3539 10.9601C15.5694 10.7408 15.7386 10.4811 15.8515 10.196C15.9644 9.91103 16.0187 9.6065 16.0113 9.30036Z" fill="#003D5B"/>
<path d="M29.2343 8.82963V13.8118H26.6442V9.18309C26.6442 7.80981 25.8336 6.92721 24.6467 6.92721C24.3605 6.92137 24.0761 6.97431 23.8115 7.0827C23.5468 7.1911 23.3076 7.35261 23.1089 7.55708C22.9102 7.76156 22.7563 8.00459 22.6568 8.2709C22.5573 8.53721 22.5144 8.82106 22.5308 9.1046V13.8123H19.9407V4.79036H21.7993L21.8983 6.32062C22.2493 5.76445 22.745 5.31242 23.3331 5.01211C23.9213 4.71181 24.5801 4.57433 25.2404 4.61415C27.6723 4.61415 29.2349 6.26188 29.2349 8.83119" fill="#003D5B"/>
<path d="M30.4351 9.30041C30.4351 6.67184 32.5903 4.61244 35.4377 4.61244C36.6323 4.57249 37.8069 4.92415 38.7798 5.61303L37.7318 7.55496C37.1453 7.15266 36.4478 6.94022 35.7348 6.94681C34.1528 6.94681 33.0849 7.92765 33.0849 9.30041C33.0849 10.6732 34.1329 11.654 35.695 11.654C36.4216 11.6696 37.1346 11.4568 37.7318 11.0459L38.7598 12.9691C37.7919 13.6547 36.6268 14.0124 35.4377 13.9889C32.5311 13.9889 30.4351 11.9482 30.4351 9.30041Z" fill="#003D5B"/>
<path d="M48.4631 10.0072H41.7795C41.9647 10.5692 42.3338 11.0538 42.8281 11.3842C43.3224 11.7146 43.9138 11.8718 44.5085 11.8311C45.401 11.84 46.2632 11.5103 46.9189 10.9095L47.9868 12.7532C46.9384 13.6241 45.5949 14.0661 44.2297 13.9893C41.343 13.9893 39.2271 11.9491 39.2271 9.30129C39.2112 8.67969 39.3232 8.0614 39.5564 7.48421C39.7895 6.90701 40.1389 6.38303 40.583 5.94427C41.0272 5.50551 41.5569 5.1612 42.1398 4.93236C42.7226 4.70352 43.3464 4.59496 43.9729 4.61332C46.7213 4.61332 48.5013 6.61399 48.5013 9.32105C48.5013 9.65475 48.462 10.0077 48.462 10.0077M41.7983 8.35996H46.0302C45.9831 7.8822 45.7546 7.44008 45.3911 7.1232C45.0276 6.80633 44.5562 6.63842 44.0725 6.65349C43.5509 6.6239 43.0358 6.77932 42.6191 7.09196C42.2025 7.40459 41.9115 7.85405 41.7983 8.35996Z" fill="#003D5B"/>
<path d="M59.0957 8.82963V13.8118H56.505V9.18309C56.505 7.80981 55.6944 6.92721 54.5076 6.92721C54.2213 6.92137 53.9369 6.97431 53.6723 7.0827C53.4077 7.1911 53.1685 7.35261 52.9698 7.55708C52.7711 7.76156 52.6171 8.00459 52.5176 8.2709C52.4181 8.53721 52.3753 8.82106 52.3916 9.1046V13.8123H49.8015V4.79036H51.6601L51.7592 6.32062C52.1102 5.76445 52.6058 5.31242 53.194 5.01211C53.7821 4.71181 54.441 4.57433 55.1013 4.61415C57.5331 4.61415 59.0957 6.26188 59.0957 8.83119" fill="#003D5B"/>
<path d="M74.6146 4.69118L74.3972 7.24127C74.1097 7.12013 73.7998 7.05994 73.4875 7.06454C73.1834 7.04085 72.8777 7.08115 72.5905 7.18281C72.3032 7.28447 72.0408 7.44519 71.8205 7.65445C71.6002 7.8637 71.427 8.11676 71.3121 8.39705C71.1973 8.67735 71.1435 8.97854 71.1541 9.28092V13.8119H68.5635V4.79098H70.7187L70.8177 6.55826C71.1321 5.45995 72.2613 4.61633 73.8234 4.61633C74.0893 4.61128 74.3549 4.63762 74.6146 4.69482" fill="#003D5B"/>
<path d="M78.4051 4.78906H75.8149V13.8121H78.4051V4.78906Z" fill="#003D5B"/>
<path d="M86.0643 13.8116L84.1658 10.9475L82.2674 13.8116H79.3015L82.5645 9.28059L79.4598 4.78857H82.4654L84.225 7.55437L86.0643 4.78857H89.0107L85.7876 9.22289L89.1098 13.8126L86.0643 13.8116Z" fill="#003D5B"/>
<path d="M66.6554 11.1839C66.2143 11.4911 65.6913 11.6617 65.1526 11.674C64.223 11.674 63.5507 11.2816 63.5507 10.2223V6.9476H66.9321V4.78892H63.5533V1.68994H61.0418V4.79308H59.6228C60.5263 5.94482 60.9999 7.37136 60.9632 8.83028V10.478C60.9632 12.7334 62.3256 13.9892 64.562 13.9892C65.6317 14.0309 66.6842 13.7129 67.5488 13.0868L66.6554 11.1839Z" fill="#003D5B"/>
<path d="M78.8116 1.68775C78.8116 2.02156 78.7118 2.34787 78.5248 2.62542C78.3378 2.90297 78.0721 3.11929 77.7612 3.24703C77.4503 3.37478 77.1082 3.4082 76.7782 3.34308C76.4481 3.27795 76.145 3.11721 75.907 2.88118C75.6691 2.64514 75.507 2.34441 75.4414 2.01702C75.3757 1.68963 75.4094 1.35027 75.5382 1.04188C75.667 0.733482 75.8851 0.46989 76.1649 0.284438C76.4447 0.098985 76.7736 0 77.1101 0C77.5614 0 77.9941 0.177816 78.3132 0.494332C78.6323 0.810847 78.8116 1.24013 78.8116 1.68775Z" fill="#003D5B"/>
<path d="M89.5688 4.97671H89.8901V5.78498H90.1227V4.97671H90.444V4.78906H89.5688V4.97671Z" fill="#003D5B"/>
<path d="M91.6999 5.78449L91.6973 4.78857H91.5066L91.1366 5.40712L90.7604 4.78857H90.5681V5.78449H90.7861V5.19973L91.0801 5.67949H91.1849L91.4804 5.18725V5.78501L91.6999 5.78449Z" fill="#003D5B"/>
</g>
</svg>
