<svg width="80" height="14" viewBox="0 0 80 14" fill="none" xmlns="http://www.w3.org/2000/svg">
<g clip-path="url(#clip0_24_6117)">
<path d="M69.2265 -2.67029e-05H66.1719C65.3283 -2.67029e-05 64.6445 0.756138 64.6445 1.68891C64.6445 2.62169 65.3283 3.37786 66.1719 3.37786H69.2265C70.07 3.37786 70.7538 2.62169 70.7538 1.68891C70.7538 0.756138 70.07 -2.67029e-05 69.2265 -2.67029e-05Z" fill="#25E2CC"/>
<path d="M0 9.30894C0 6.67784 1.9346 4.61633 4.49061 4.61633C6.10628 4.61633 7.01219 5.24389 7.49134 5.61811L6.55099 7.56205C6.17815 7.28718 5.61065 6.9527 4.75864 6.9527C3.33914 6.9527 2.37932 7.93461 2.37932 9.30894C2.37932 10.6833 3.31967 11.6652 4.72271 11.6652C5.62861 11.6652 6.17815 11.3307 6.55099 11.0558L7.47338 12.9799C6.97625 13.3326 6.10628 13.9999 4.49061 13.9999C1.8807 13.9999 0 11.9583 0 9.30728L0 9.30894Z" fill="#003D5B"/>
<path d="M7.87891 9.30894C7.87891 6.63975 9.84944 4.61633 12.2991 4.61633C14.7488 4.61633 16.7194 6.6381 16.7194 9.30894C16.7194 11.9798 14.7488 14.0015 12.2991 14.0015C9.84944 14.0015 7.87891 11.9798 7.87891 9.30894ZM14.376 9.30894C14.376 8.01409 13.4881 6.9527 12.2991 6.9527C11.1102 6.9527 10.2223 8.01243 10.2223 9.30894C10.2223 10.6055 11.1282 11.6652 12.2991 11.6652C13.4701 11.6652 14.376 10.6253 14.376 9.30894Z" fill="#003D5B"/>
<path d="M26.2457 8.83695V13.8226H23.9203V9.18965C23.9203 7.81531 23.1926 6.93276 22.1279 6.93276C20.957 6.93276 20.2278 7.91466 20.2278 9.11182V13.8226H17.9023V4.79343H19.5704L19.6588 6.32507C20.1379 5.3829 21.1681 4.61791 22.6595 4.61791C24.8427 4.61791 26.2457 6.26711 26.2457 8.83861V8.83695Z" fill="#003D5B"/>
<path d="M27.3242 9.30894C27.3242 6.67784 29.2588 4.61633 31.8148 4.61633C33.4305 4.61633 34.3364 5.24389 34.8156 5.61811L33.8752 7.56205C33.5024 7.28718 32.9349 6.9527 32.0829 6.9527C30.6619 6.9527 29.7035 7.93461 29.7035 9.30894C29.7035 10.6833 30.6439 11.6652 32.0469 11.6652C32.9528 11.6652 33.5024 11.3307 33.8752 11.0558L34.7976 12.9799C34.3005 13.3326 33.4305 13.9999 31.8148 13.9999C29.2049 13.9999 27.3242 11.9583 27.3242 9.30728V9.30894Z" fill="#003D5B"/>
<path d="M43.5097 10.0144H37.5097C37.7763 11.0543 38.6807 11.8408 39.9594 11.8408C41.1483 11.8408 41.7697 11.2314 42.1246 10.9185L43.0829 12.7631C42.5858 13.2532 41.5736 14 39.7094 14C37.1174 14 35.2188 11.9583 35.2188 9.30736C35.2188 6.65639 36.9767 4.61475 39.4788 4.61475C41.9809 4.61475 43.5441 6.61665 43.5441 9.32558C43.5441 9.66005 43.5082 10.0127 43.5082 10.0127L43.5097 10.0144ZM37.5262 8.3652H41.325C41.2187 7.34521 40.491 6.65804 39.5671 6.65804C38.5549 6.65804 37.7912 7.24752 37.5262 8.3652Z" fill="#003D5B"/>
<path d="M53.0543 8.83695V13.8226H50.7289V9.18965C50.7289 7.81531 50.0011 6.93276 48.9365 6.93276C47.7656 6.93276 47.0364 7.91466 47.0364 9.11182V13.8226H44.7109V4.79343H46.379L46.4673 6.32507C46.9465 5.3829 47.9767 4.61791 49.4681 4.61791C51.6512 4.61791 53.0543 6.26711 53.0543 8.83861V8.83695Z" fill="#003D5B"/>
<path d="M66.9876 4.69416L66.7929 7.24578C66.5623 7.14809 66.3497 7.06861 65.9769 7.06861C64.6817 7.06861 63.8821 8.01077 63.8821 9.28742V13.8227H61.5566V4.79351H63.4912L63.5796 6.56027C63.8641 5.4608 64.8748 4.61633 66.2778 4.61633C66.5264 4.61633 66.775 4.6362 66.9876 4.69416Z" fill="#003D5B"/>
<path d="M68.0645 4.79354H70.3899V13.8244H68.0645V4.79354Z" fill="#003D5B"/>
<path d="M77.2657 13.8228L75.5616 10.9566L73.8576 13.8228H71.1953L74.1242 9.28753L71.3376 4.79196H74.0358L75.6155 7.5605L77.2672 4.79196H79.913L77.0201 9.22792L80.0028 13.8212H77.2686L77.2657 13.8228Z" fill="#003D5B"/>
<path d="M59.8433 11.1933C59.6306 11.3307 59.1859 11.6834 58.4941 11.6834C57.6601 11.6834 57.0566 11.2909 57.0566 10.2312V6.95269H60.0918V4.79349H57.0566V1.69213H54.8016V4.7968H53.5273C54.2925 5.83832 54.7312 7.22921 54.7312 8.83702V10.4862C54.7312 12.7431 55.9561 13.9999 57.9626 13.9999C59.5063 13.9999 60.3239 13.3524 60.6428 13.0975L59.8433 11.1933Z" fill="#003D5B"/>
<path d="M69.2265 3.37786C70.0701 3.37786 70.7539 2.62169 70.7539 1.68891C70.7539 0.756138 70.0701 -2.67029e-05 69.2265 -2.67029e-05C68.383 -2.67029e-05 67.6992 0.756138 67.6992 1.68891C67.6992 2.62169 68.383 3.37786 69.2265 3.37786Z" fill="#003D5B"/>
</g>
<defs>
<clipPath id="clip0_24_6117">
<rect width="80" height="14" fill="white"/>
</clipPath>
</defs>
</svg>
