<svg width="11" height="11" viewBox="0 0 11 11" fill="none" xmlns="http://www.w3.org/2000/svg">
<path d="M9.37798 4.6259C9.77633 4.22755 10.0001 3.68726 10.0001 3.1239C10.0001 2.56054 9.77633 2.02026 9.37798 1.6219C8.97962 1.22355 8.43934 0.999756 7.87598 0.999756C7.31262 0.999756 6.77233 1.22355 6.37398 1.6219L2.36398 5.63391C2.12622 5.87153 1.9522 6.16524 1.85798 6.48791L1.02098 9.3579C0.995879 9.44395 0.994375 9.53517 1.01662 9.622C1.03887 9.70883 1.08404 9.78808 1.14742 9.85146C1.2108 9.91484 1.29006 9.96002 1.37689 9.98226C1.46372 10.0045 1.55493 10.003 1.64098 9.97791L4.51098 9.14091C4.83364 9.04668 5.12735 8.87266 5.36498 8.6349L9.37798 4.6259Z" stroke="currentColor" stroke-width="2" stroke-linecap="round" stroke-linejoin="round"/>
</svg>
