<svg width="24" height="24" viewBox="0 0 24 24" fill="none" xmlns="http://www.w3.org/2000/svg">
<path d="M15.6 20.1V18.3C15.6 17.3452 15.2207 16.4295 14.5456 15.7544C13.8705 15.0792 12.9548 14.7 12 14.7H6.6C5.64522 14.7 4.72955 15.0792 4.05442 15.7544C3.37928 16.4295 3 17.3452 3 18.3V20.1" stroke="currentColor" stroke-width="1.6" stroke-linecap="round" stroke-linejoin="round"/>
<path d="M15.5996 4.01514C16.3716 4.21527 17.0553 4.66607 17.5433 5.29679C18.0314 5.92751 18.2962 6.70244 18.2962 7.49994C18.2962 8.29744 18.0314 9.07236 17.5433 9.70308C17.0553 10.3338 16.3716 10.7846 15.5996 10.9847" stroke="currentColor" stroke-width="1.6" stroke-linecap="round" stroke-linejoin="round"/>
<path d="M20.9998 20.0999V18.2999C20.9992 17.5022 20.7337 16.7274 20.245 16.097C19.7563 15.4666 19.0721 15.0163 18.2998 14.8169" stroke="currentColor" stroke-width="1.6" stroke-linecap="round" stroke-linejoin="round"/>
<path d="M9.3002 11.0999C11.2884 11.0999 12.9002 9.48813 12.9002 7.4999C12.9002 5.51168 11.2884 3.8999 9.3002 3.8999C7.31197 3.8999 5.7002 5.51168 5.7002 7.4999C5.7002 9.48813 7.31197 11.0999 9.3002 11.0999Z" stroke="currentColor" stroke-width="1.6" stroke-linecap="round" stroke-linejoin="round"/>
</svg>
