<svg width="24" height="24" viewBox="0 0 24 24" fill="none" xmlns="http://www.w3.org/2000/svg">
<path d="M15.333 13.6665V15.4998L16.6663 16.3332" stroke="currentColor" stroke-width="1.4" stroke-linecap="round" stroke-linejoin="round"/>
<path d="M7.83366 18.6667H5.33366C4.89163 18.6667 4.46771 18.4912 4.15515 18.1786C3.84259 17.866 3.66699 17.4421 3.66699 17.0001V6.16675C3.66699 5.72472 3.84259 5.3008 4.15515 4.98824C4.46771 4.67567 4.89163 4.50008 5.33366 4.50008H8.58366C8.8624 4.49735 9.13737 4.56457 9.38341 4.6956C9.62945 4.82662 9.83869 5.01727 9.99199 5.25008L10.667 6.25008C10.8187 6.48052 11.0253 6.66968 11.2682 6.80058C11.5111 6.93148 11.7827 7.00003 12.0587 7.00008H18.667C19.109 7.00008 19.5329 7.17567 19.8455 7.48824C20.1581 7.8008 20.3337 8.22472 20.3337 8.66675" stroke="currentColor" stroke-width="1.4" stroke-linecap="round" stroke-linejoin="round"/>
<path d="M15.333 20.3335C18.0944 20.3335 20.333 18.0949 20.333 15.3335C20.333 12.5721 18.0944 10.3335 15.333 10.3335C12.5716 10.3335 10.333 12.5721 10.333 15.3335C10.333 18.0949 12.5716 20.3335 15.333 20.3335Z" stroke="currentColor" stroke-width="1.4" stroke-linecap="round" stroke-linejoin="round"/>
</svg>
