<svg width="198" height="198" viewBox="0 0 198 198" fill="none" xmlns="http://www.w3.org/2000/svg">
<circle cx="99" cy="99" r="99" fill="#003D5B"/>
<path d="M101.98 96.5001L95.08 79.0801L89.02 94.4001" stroke="white" stroke-width="2.2" stroke-linecap="round" stroke-linejoin="round"/>
<path d="M90.6599 90.2598H99.4999" stroke="white" stroke-width="2.2" stroke-linecap="round" stroke-linejoin="round"/>
<path d="M107.29 80.1992V96.0892" stroke="white" stroke-width="2.2" stroke-linecap="round" stroke-linejoin="round"/>
<path d="M89.14 112.94H109.37C112.77 106.74 115.71 98.92 115.71 90.41C115.71 70.3 99.25 54 99.25 54C99.25 54 82.8 70.3 82.8 90.41C82.8 98.91 85.74 106.73 89.14 112.94Z" stroke="white" stroke-width="2.2" stroke-linecap="round" stroke-linejoin="round"/>
<path d="M82.87 92.6895C81.91 93.5195 81.02 94.4695 80.23 95.5395C74.98 102.689 76.58 112.779 76.58 112.779C76.58 112.779 82.05 111.959 87.03 108.689" stroke="white" stroke-width="2.2" stroke-linecap="round" stroke-linejoin="round"/>
<path d="M111.48 108.689C116.46 111.959 121.93 112.779 121.93 112.779C121.93 112.779 123.52 102.689 118.28 95.5395C117.49 94.4695 116.59 93.5195 115.64 92.6895" stroke="white" stroke-width="2.2" stroke-linecap="round" stroke-linejoin="round"/>
<path d="M89.1399 119.449H109.38" stroke="white" stroke-width="2.2" stroke-linecap="round" stroke-linejoin="round"/>
<path d="M90.6499 65.2793H99.1399" stroke="white" stroke-width="2.2" stroke-linecap="round" stroke-linejoin="round"/>
<path d="M99.1399 125.689V133.739" stroke="white" stroke-width="2.2" stroke-linecap="round" stroke-linejoin="round"/>
<path d="M91.9299 125.689V137.919" stroke="white" stroke-width="2.2" stroke-linecap="round" stroke-linejoin="round"/>
<path d="M106.35 125.689V143.039" stroke="white" stroke-width="2.2" stroke-linecap="round" stroke-linejoin="round"/>
<path d="M75.8699 139.67C74.4999 138.07 73.6799 136 73.6799 133.73C73.6799 128.69 77.7699 124.6 82.8099 124.6" stroke="white" stroke-width="2.2" stroke-linecap="round" stroke-linejoin="round"/>
<path d="M62 141.979C62 136.939 66.09 132.859 71.13 132.859C72.02 132.859 72.88 132.989 73.69 133.219" stroke="white" stroke-width="2.2" stroke-linecap="round" stroke-linejoin="round"/>
<path d="M122.64 139.67C124.01 138.07 124.83 136 124.83 133.73C124.83 128.69 120.74 124.6 115.7 124.6" stroke="white" stroke-width="2.2" stroke-linecap="round" stroke-linejoin="round"/>
<path d="M124.82 133.219C125.64 132.989 126.5 132.859 127.38 132.859C132.42 132.859 136.51 136.939 136.51 141.979" stroke="white" stroke-width="2.2" stroke-linecap="round" stroke-linejoin="round"/>
</svg>
