<svg width="198" height="198" viewBox="0 0 198 198" fill="none" xmlns="http://www.w3.org/2000/svg">
<circle cx="99" cy="99" r="99" fill="#003D5B"/>
<path d="M113.44 119.788C111.83 120.718 109.77 120.168 108.84 118.558C107.91 116.948 108.46 114.888 110.07 113.958C111.68 113.028 113.74 113.578 114.67 115.188C115.6 116.798 115.05 118.858 113.44 119.788Z" stroke="white" stroke-width="2.2" stroke-linecap="round" stroke-linejoin="round"/>
<path d="M111.76 107.279C113.621 107.279 115.13 105.77 115.13 103.909C115.13 102.048 113.621 100.539 111.76 100.539C109.899 100.539 108.39 102.048 108.39 103.909C108.39 105.77 109.899 107.279 111.76 107.279Z" stroke="white" stroke-width="2.2" stroke-linecap="round" stroke-linejoin="round"/>
<path d="M120.05 112.078L114.69 115.178" stroke="white" stroke-width="2.2" stroke-linecap="round" stroke-linejoin="round"/>
<path d="M111.76 126.45V120.26" stroke="white" stroke-width="2.2" stroke-linecap="round" stroke-linejoin="round"/>
<path d="M103.46 112.078L108.83 115.178" stroke="white" stroke-width="2.2" stroke-linecap="round" stroke-linejoin="round"/>
<path d="M122.98 119.969V113.779" stroke="white" stroke-width="2.2" stroke-linecap="round" stroke-linejoin="round"/>
<path d="M103.46 125.049L108.83 128.139" stroke="white" stroke-width="2.2" stroke-linecap="round" stroke-linejoin="round"/>
<path d="M108.83 105.6L103.46 108.7" stroke="white" stroke-width="2.2" stroke-linecap="round" stroke-linejoin="round"/>
<path d="M124.67 113.31C123.06 114.24 121 113.69 120.07 112.08C119.14 110.47 119.69 108.41 121.3 107.48C122.91 106.55 124.97 107.1 125.9 108.71C126.83 110.32 126.28 112.38 124.67 113.31Z" stroke="white" stroke-width="2.2" stroke-linecap="round" stroke-linejoin="round"/>
<path d="M121.3 126.269C119.69 125.339 119.14 123.279 120.07 121.669C121 120.059 123.06 119.509 124.67 120.439C126.28 121.369 126.83 123.429 125.9 125.039C124.97 126.649 122.91 127.199 121.3 126.269Z" stroke="white" stroke-width="2.2" stroke-linecap="round" stroke-linejoin="round"/>
<path d="M111.76 133.199C113.621 133.199 115.13 131.69 115.13 129.829C115.13 127.968 113.621 126.459 111.76 126.459C109.899 126.459 108.39 127.968 108.39 129.829C108.39 131.69 109.899 133.199 111.76 133.199Z" stroke="white" stroke-width="2.2" stroke-linecap="round" stroke-linejoin="round"/>
<path d="M98.85 120.439C100.46 119.509 102.52 120.059 103.45 121.669C104.38 123.279 103.83 125.339 102.22 126.269C100.61 127.199 98.55 126.649 97.62 125.039C96.69 123.429 97.24 121.369 98.85 120.439Z" stroke="white" stroke-width="2.2" stroke-linecap="round" stroke-linejoin="round"/>
<path d="M102.22 107.47C103.83 108.4 104.38 110.46 103.45 112.07C102.52 113.68 100.46 114.23 98.85 113.3C97.24 112.37 96.69 110.31 97.62 108.7C98.55 107.09 100.61 106.54 102.22 107.47Z" stroke="white" stroke-width="2.2" stroke-linecap="round" stroke-linejoin="round"/>
<path d="M124.25 102.23L149.8 76.68L134.11 61L84.39 110.73H84.38L63.69 90.03L48 105.72L76.63 134.35C80.91 138.63 87.86 138.63 92.14 134.35L99.76 126.73" stroke="white" stroke-width="2.2" stroke-linecap="round" stroke-linejoin="round"/>
<path d="M125.13 79.4808L134.07 70.5508L136.86 73.3408" stroke="white" stroke-width="2.2" stroke-linecap="round" stroke-linejoin="round"/>
<path d="M118.56 86.0605L120.39 84.2305" stroke="white" stroke-width="2.2" stroke-linecap="round" stroke-linejoin="round"/>
<path d="M57.5601 105.411L63.9101 99.0508L66.7101 101.841" stroke="white" stroke-width="2.2" stroke-linecap="round" stroke-linejoin="round"/>
</svg>
