<svg width="198" height="198" viewBox="0 0 198 198" fill="none" xmlns="http://www.w3.org/2000/svg">
<circle cx="99" cy="99" r="99" fill="#003D5B"/>
<path d="M58.05 60V78.44" stroke="white" stroke-width="2.2" stroke-linecap="round" stroke-linejoin="round"/>
<path d="M65.9299 69.22C65.9299 74.31 67.95 78.44 73.04 78.44C78.13 78.44 80.15 74.31 80.15 69.22C80.15 64.13 78.13 60 73.04 60C67.95 60 65.9299 64.13 65.9299 69.22Z" stroke="white" stroke-width="2.2" stroke-linecap="round" stroke-linejoin="round"/>
<path d="M88.03 60V72" stroke="white" stroke-width="2.2" stroke-linecap="round" stroke-linejoin="round"/>
<path d="M109.77 72.6198C110.01 71.5698 110.12 70.4298 110.12 69.2298C110.12 64.1398 108.1 60.0098 103.01 60.0098C97.9199 60.0098 95.8999 64.1398 95.8999 69.2298C95.8999 69.7098 95.9199 70.1698 95.9499 70.6298" stroke="white" stroke-width="2.2" stroke-linecap="round" stroke-linejoin="round"/>
<path d="M57 98.5208C57 103.611 59.02 107.741 64.11 107.741C69.2 107.741 71.22 103.611 71.22 98.5208C71.22 93.4308 69.2 89.3008 64.11 89.3008C59.02 89.3008 57 93.4308 57 98.5208Z" stroke="white" stroke-width="2.2" stroke-linecap="round" stroke-linejoin="round"/>
<path d="M118.25 60V75.62" stroke="white" stroke-width="2.2" stroke-linecap="round" stroke-linejoin="round"/>
<path d="M126.13 69.22C126.13 74.31 128.15 78.44 133.24 78.44C138.33 78.44 140.35 74.31 140.35 69.22C140.35 64.13 138.33 60 133.24 60C128.15 60 126.13 64.13 126.13 69.22Z" stroke="white" stroke-width="2.2" stroke-linecap="round" stroke-linejoin="round"/>
<path d="M58.05 118.75V137.2" stroke="white" stroke-width="2.2" stroke-linecap="round" stroke-linejoin="round"/>
<path d="M65.9299 127.98C65.9299 133.07 67.95 137.2 73.04 137.2C78.13 137.2 80.15 133.07 80.15 127.98C80.15 122.89 78.13 118.76 73.04 118.76C67.95 118.76 65.9299 122.89 65.9299 127.98Z" stroke="white" stroke-width="2.2" stroke-linecap="round" stroke-linejoin="round"/>
<path d="M88.03 125.01V137.2" stroke="white" stroke-width="2.2" stroke-linecap="round" stroke-linejoin="round"/>
<path d="M95.9601 126.61C95.9301 127.06 95.9102 127.51 95.9102 127.97C95.9102 133.06 97.9301 137.19 103.02 137.19C108.11 137.19 110.13 133.06 110.13 127.97C110.13 126.93 110.05 125.93 109.87 125" stroke="white" stroke-width="2.2" stroke-linecap="round" stroke-linejoin="round"/>
<path d="M118.25 121.109V137.199" stroke="white" stroke-width="2.2" stroke-linecap="round" stroke-linejoin="round"/>
<path d="M126.13 127.98C126.13 133.07 128.15 137.2 133.24 137.2C138.33 137.2 140.35 133.07 140.35 127.98C140.35 122.89 138.33 118.76 133.24 118.76C128.15 118.76 126.13 122.89 126.13 127.98Z" stroke="white" stroke-width="2.2" stroke-linecap="round" stroke-linejoin="round"/>
<path d="M139.29 89.3008V107.741" stroke="white" stroke-width="2.2" stroke-linecap="round" stroke-linejoin="round"/>
<path d="M125.83 107.61C129.81 106.86 131.42 103.08 131.42 98.5304C131.42 93.9804 129.74 90.0304 125.56 89.4004" stroke="white" stroke-width="2.2" stroke-linecap="round" stroke-linejoin="round"/>
<path d="M80.2599 111.01C77.8699 107.47 76.47 103.2 76.47 98.6004C76.47 86.3404 86.4099 76.4004 98.6699 76.4004C110.93 76.4004 120.87 86.3404 120.87 98.6004C120.87 110.86 110.93 120.8 98.6699 120.8C94.8399 120.8 91.23 119.83 88.09 118.12" stroke="white" stroke-width="2.2" stroke-linecap="round" stroke-linejoin="round"/>
<path d="M101.92 108.43L94.1501 88.7695L86.3701 108.43" stroke="white" stroke-width="2.2" stroke-linecap="round" stroke-linejoin="round"/>
<path d="M89.1602 101.379H99.1301" stroke="white" stroke-width="2.2" stroke-linecap="round" stroke-linejoin="round"/>
<path d="M109.32 89.5703V108.43" stroke="white" stroke-width="2.2" stroke-linecap="round" stroke-linejoin="round"/>
</svg>
