<svg width="198" height="198" viewBox="0 0 198 198" fill="none" xmlns="http://www.w3.org/2000/svg">
<circle cx="99" cy="99" r="99" fill="#003D5B"/>
<path d="M133.88 59.1298L143.06 56.0098L142.01 65.6598" stroke="white" stroke-width="2.2" stroke-linecap="round" stroke-linejoin="round"/>
<path d="M136.21 127.5H143.06" stroke="white" stroke-width="2.2" stroke-linecap="round" stroke-linejoin="round"/>
<path d="M55 127.5H74.23" stroke="white" stroke-width="2.2" stroke-linecap="round" stroke-linejoin="round"/>
<path d="M55 109.051V127.501" stroke="white" stroke-width="2.2" stroke-linecap="round" stroke-linejoin="round"/>
<path d="M65.23 102.199V127.499" stroke="white" stroke-width="2.2" stroke-linecap="round" stroke-linejoin="round"/>
<path d="M131.95 85.1992V119.159" stroke="white" stroke-width="2.2" stroke-linecap="round" stroke-linejoin="round"/>
<path d="M143.06 74.6895V127.499" stroke="white" stroke-width="2.2" stroke-linecap="round" stroke-linejoin="round"/>
<path d="M55 99.11L79.4099 77.29C84.3699 72.86 91.37 71.54 97.6 73.87L108.98 78.13C116.08 80.79 124.09 78.68 128.96 72.86L143.07 56" stroke="white" stroke-width="2.2" stroke-linecap="round" stroke-linejoin="round"/>
<path d="M117.81 120.789L131.43 134.409C133.22 136.199 133.22 139.099 131.43 140.879C130.53 141.779 129.36 142.219 128.2 142.219C127.04 142.219 125.86 141.779 124.96 140.879L111.34 127.259" stroke="white" stroke-width="2.2" stroke-linecap="round" stroke-linejoin="round"/>
<path d="M101.82 130.88C94.8899 131.86 87.6 129.68 82.28 124.35C73.27 115.34 73.27 100.74 82.28 91.7399C91.29 82.7299 105.89 82.7299 114.89 91.7399C123.9 100.75 123.9 115.35 114.89 124.35C112.82 126.42 110.46 128.01 107.94 129.13" stroke="white" stroke-width="2.2" stroke-linecap="round" stroke-linejoin="round"/>
<path d="M113.97 102.64C115.98 108.37 114.69 114.99 110.11 119.57C103.74 125.94 93.42 125.94 87.05 119.57C80.68 113.2 80.68 102.88 87.05 96.5099C93.42 90.1399 103.74 90.1399 110.11 96.5099" stroke="white" stroke-width="2.2" stroke-linecap="round" stroke-linejoin="round"/>
<path d="M90.8899 101.979C92.5599 99.8295 95.1699 98.4395 98.1099 98.4395" stroke="white" stroke-width="2.2" stroke-linecap="round" stroke-linejoin="round"/>
<path d="M88.98 107.579C88.98 107.219 88.9999 106.869 89.0399 106.529" stroke="white" stroke-width="2.2" stroke-linecap="round" stroke-linejoin="round"/>
</svg>
