<svg width="198" height="198" viewBox="0 0 198 198" fill="none" xmlns="http://www.w3.org/2000/svg">
<circle cx="99" cy="99" r="99" fill="#003D5B"/>
<path d="M113.4 89.8906H113.34C111.683 89.8906 110.34 91.2338 110.34 92.8906V119.111C110.34 120.767 111.683 122.111 113.34 122.111H113.4C115.057 122.111 116.4 120.767 116.4 119.111V92.8906C116.4 91.2338 115.057 89.8906 113.4 89.8906Z" stroke="white" stroke-width="2.2" stroke-linecap="round" stroke-linejoin="round"/>
<path d="M90.5101 107.16L92.8701 99.4004L96.2501 110.38C96.6301 111.62 95.7101 112.87 94.4101 112.87H90.9501C89.6501 112.87 88.5101 113.72 88.1301 114.96L86.6101 119.99C86.2301 121.25 85.0601 122.12 83.7401 122.12C81.7101 122.12 80.2701 120.15 80.8801 118.22L88.8902 92.8204C89.4402 91.0804 91.0501 89.9004 92.8701 89.9004C94.6901 89.9004 96.3001 91.0804 96.8501 92.8204L104.86 118.22C105.47 120.15 104.03 122.12 102 122.12C100.68 122.12 99.5101 121.26 99.1301 119.99L98.3501 117.43" stroke="white" stroke-width="2.2" stroke-linecap="round" stroke-linejoin="round"/>
<path d="M129.84 72.7798H117.79C115.86 72.7798 114.29 71.2198 114.29 69.2798V65.0898" stroke="white" stroke-width="2.2" stroke-linecap="round" stroke-linejoin="round"/>
<path d="M119.99 140.52H127.67C129 140.52 130.08 139.44 130.08 138.11V73.9C130.08 73.19 129.8 72.5 129.29 72L115.08 57.79C114.58 57.29 113.89 57 113.18 57H70.41C69.08 57 68 58.08 68 59.41V138.11C68 139.44 69.08 140.52 70.41 140.52H113.36" stroke="white" stroke-width="2.2" stroke-linecap="round" stroke-linejoin="round"/>
<path d="M74.5 77.0703H108.91" stroke="white" stroke-width="2.2" stroke-linecap="round" stroke-linejoin="round"/>
<path d="M90.8599 67.7402H107.25" stroke="white" stroke-width="2.2" stroke-linecap="round" stroke-linejoin="round"/>
<path d="M74.5 67.7402H85.05" stroke="white" stroke-width="2.2" stroke-linecap="round" stroke-linejoin="round"/>
<path d="M98.53 86.4004H108.27" stroke="white" stroke-width="2.2" stroke-linecap="round" stroke-linejoin="round"/>
<path d="M74.5 86.4004H87.14" stroke="white" stroke-width="2.2" stroke-linecap="round" stroke-linejoin="round"/>
<path d="M74.5 95.7305H80.74" stroke="white" stroke-width="2.2" stroke-linecap="round" stroke-linejoin="round"/>
<path d="M121.69 105.061H123.58" stroke="white" stroke-width="2.2" stroke-linecap="round" stroke-linejoin="round"/>
<path d="M116.39 114.391H123.58" stroke="white" stroke-width="2.2" stroke-linecap="round" stroke-linejoin="round"/>
<path d="M119.99 123.721H123.58" stroke="white" stroke-width="2.2" stroke-linecap="round" stroke-linejoin="round"/>
<path d="M74.5 123.721H76.62" stroke="white" stroke-width="2.2" stroke-linecap="round" stroke-linejoin="round"/>
<path d="M97.8901 133.051H123.58" stroke="white" stroke-width="2.2" stroke-linecap="round" stroke-linejoin="round"/>
<path d="M74.5 133.051H90.86" stroke="white" stroke-width="2.2" stroke-linecap="round" stroke-linejoin="round"/>
<path d="M118.23 86.4004H123.58" stroke="white" stroke-width="2.2" stroke-linecap="round" stroke-linejoin="round"/>
<path d="M121.4 95.7305H123.58" stroke="white" stroke-width="2.2" stroke-linecap="round" stroke-linejoin="round"/>
<path d="M74.5 105.061H78.21" stroke="white" stroke-width="2.2" stroke-linecap="round" stroke-linejoin="round"/>
<path d="M74.5 114.391H76.36" stroke="white" stroke-width="2.2" stroke-linecap="round" stroke-linejoin="round"/>
<path d="M90.6201 123.721H94.1501" stroke="white" stroke-width="2.2" stroke-linecap="round" stroke-linejoin="round"/>
</svg>
