<svg width="35" height="50" viewBox="0 0 35 50" fill="none" xmlns="http://www.w3.org/2000/svg">
<path d="M0 17.1617C0 31.406 17.1819 49.8827 17.1819 49.8827C17.1819 49.8827 34.3638 30.548 34.3638 17.1617C34.3638 12.6047 32.5536 8.23444 29.3314 5.01221C26.1091 1.78997 21.7388 -0.0202637 17.1819 -0.0202637C12.625 -0.0202637 8.2547 1.78997 5.03247 5.01221C1.81023 8.23444 0 12.6047 0 17.1617Z" fill="#001933"/>
<path d="M11.0938 17.2667C11.0938 18.4726 11.4513 19.6513 12.1212 20.6539C12.7912 21.6566 13.7434 22.438 14.8574 22.8995C15.9715 23.3609 17.1973 23.4816 18.38 23.2464C19.5627 23.0111 20.649 22.4305 21.5017 21.5778C22.3543 20.7252 22.935 19.6388 23.1702 18.4562C23.4055 17.2735 23.2847 16.0476 22.8233 14.9336C22.3618 13.8195 21.5804 12.8673 20.5778 12.1974C19.5751 11.5275 18.3964 11.1699 17.1906 11.1699C15.5736 11.1699 14.0228 11.8123 12.8795 12.9556C11.7361 14.099 11.0938 15.6498 11.0938 17.2667Z" fill="#FDFDFD"/>
</svg>
