<svg width="17" height="25" viewBox="0 0 17 25" fill="none" xmlns="http://www.w3.org/2000/svg">
<path d="M0 8.28618C0 15.1638 8.29594 24.0849 8.29594 24.0849C8.29594 24.0849 16.5919 14.7495 16.5919 8.28618C16.5919 6.08596 15.7179 3.97585 14.1621 2.42006C12.6063 0.864269 10.4962 -0.00976562 8.29594 -0.00976562C6.09572 -0.00976562 3.98562 0.864269 2.42983 2.42006C0.874034 3.97585 0 6.08596 0 8.28618Z" fill="#001933"/>
<path d="M5.35547 8.33679C5.35547 8.919 5.52811 9.48814 5.85158 9.97223C6.17504 10.4563 6.63478 10.8336 7.17268 11.0564C7.71057 11.2792 8.30246 11.3375 8.87348 11.2239C9.44451 11.1104 9.96903 10.83 10.3807 10.4183C10.7924 10.0066 11.0728 9.48211 11.1863 8.91108C11.2999 8.34005 11.2416 7.74817 11.0188 7.21028C10.796 6.67238 10.4187 6.21263 9.93463 5.88917C9.45054 5.56571 8.8814 5.39307 8.29919 5.39307C7.51847 5.39307 6.76972 5.70321 6.21766 6.25526C5.66561 6.80732 5.35547 7.55606 5.35547 8.33679Z" fill="#FDFDFD"/>
</svg>
