<svg xmlns="http://www.w3.org/2000/svg" width="198" height="86" viewBox="0 0 198 86" fill="none">
  <g clip-path="url(#clip0_21_9772)">
    <path d="M168.13 43.2873L196.277 14.9193L197.09 14.0999L196.978 13.9869C197.595 12.998 197.931 11.8678 197.931 10.7094C197.931 7.34702 195.212 4.6063 191.847 4.6063C190.698 4.6063 189.577 4.94536 188.624 5.53871L188.511 5.42569L187.67 6.27334L159.524 34.6413L131.546 6.44287C130.396 5.1714 128.77 4.43677 127.06 4.43677C123.724 4.43677 120.977 7.17749 120.977 10.5398C120.977 11.8113 121.341 12.998 122.042 14.0152L121.986 14.0717L122.771 14.9193L150.917 43.2873L122.771 71.6552L121.958 72.4746L122.098 72.6159C121.537 73.5765 121.229 74.6502 121.229 75.7804C121.229 79.1427 123.948 81.8835 127.312 81.8835C128.434 81.8835 129.499 81.5727 130.452 81.0076L130.564 81.1206L131.405 80.3295L159.552 51.9615L187.698 80.3295L188.511 81.1488L188.652 81.0076C189.605 81.6009 190.726 81.94 191.876 81.94C195.212 81.94 197.959 79.1993 197.959 75.8369C197.959 74.1134 197.23 72.4746 195.969 71.3161L168.158 43.2873H168.13Z" fill="black"/>
    <path d="M102.253 58.9382C98.4959 58.9382 95.4121 62.018 95.4121 65.8324C95.4121 69.6468 98.4679 72.7266 102.253 72.7266C106.037 72.7266 109.093 69.6468 109.093 65.8324C109.093 62.018 106.037 58.9382 102.253 58.9382Z" fill="black"/>
    <path d="M42.6226 12.1494C56.0511 12.1494 68.0778 21.1909 71.8905 34.1599C71.9185 34.3295 71.9746 34.499 72.0307 34.6403V34.6968L72.0867 34.8663L72.4231 36.1095L72.6755 35.9965C73.7688 37.7201 75.6471 38.7655 77.7216 38.7655C81.0297 38.7655 83.721 36.053 83.721 32.7189C83.721 32.3516 83.693 32.0126 83.6369 31.6735L83.5528 31.3627C83.5248 31.1932 83.4687 31.0236 83.4126 30.8541L83.3566 30.6281C80.7774 21.9538 75.4228 14.1555 68.218 8.67401C60.7889 2.99478 51.93 -0.000244141 42.5665 -0.000244141C19.1578 -0.000244141 0.0664062 19.2696 0.0664062 42.919C0.0664062 66.5683 19.1578 85.8382 42.6226 85.8382C61.2655 85.8382 77.5815 73.8016 83.1883 55.8597L83.5248 54.8143H83.4687C83.5248 54.4187 83.5808 54.0797 83.5808 53.6841C83.5808 50.35 80.8895 47.6375 77.5815 47.6375C74.8061 47.6375 72.339 49.6154 71.7223 52.3279C67.6293 65.0708 55.967 73.632 42.6506 73.632C25.802 73.632 12.1212 59.8154 12.1212 42.8625C12.1212 25.9095 25.7739 12.1494 42.6226 12.1494Z" fill="black"/>
    <path d="M102.255 54.5894C105.198 54.5894 107.637 52.4702 108.17 49.673H108.282V48.5146L108.31 19.5815C108.31 19.4685 108.31 19.3555 108.31 19.2425C108.31 15.8801 105.591 13.1394 102.255 13.1394C99.311 13.1394 96.844 15.2585 96.3114 18.0558H96.1992V19.2142V48.5146V49.673H96.3674C96.9001 52.4702 99.3391 54.5894 102.255 54.5894Z" fill="black"/>
  </g>
  <defs>
    <clipPath id="clip0_21_9772">
      <rect width="197.867" height="85.8667" fill="white" transform="translate(0.0664062)"/>
    </clipPath>
  </defs>
</svg>