<svg width="24" height="24" viewBox="0 0 24 24" fill="none" xmlns="http://www.w3.org/2000/svg">
<path d="M11.5 15H7C5.93913 15 4.92172 15.4214 4.17157 16.1716C3.42143 16.9217 3 17.9391 3 19V21" stroke="currentColor" stroke-width="2" stroke-linecap="round" stroke-linejoin="round"/>
<path d="M21.378 16.6259C21.7763 16.2275 22.0001 15.6873 22.0001 15.1239C22.0001 14.5605 21.7763 14.0203 21.378 13.6219C20.9796 13.2235 20.4393 12.9998 19.876 12.9998C19.3126 12.9998 18.7723 13.2235 18.374 13.6219L14.364 17.6339C14.1262 17.8715 13.9522 18.1652 13.858 18.4879L13.021 21.3579C12.9959 21.444 12.9944 21.5352 13.0166 21.622C13.0389 21.7088 13.084 21.7881 13.1474 21.8515C13.2108 21.9148 13.2901 21.96 13.3769 21.9823C13.4637 22.0045 13.5549 22.003 13.641 21.9779L16.511 21.1409C16.8336 21.0467 17.1274 20.8727 17.365 20.6349L21.378 16.6259Z" stroke="currentColor" stroke-width="2" stroke-linecap="round" stroke-linejoin="round"/>
<path d="M10 11C12.2091 11 14 9.20914 14 7C14 4.79086 12.2091 3 10 3C7.79086 3 6 4.79086 6 7C6 9.20914 7.79086 11 10 11Z" stroke="currentColor" stroke-width="2" stroke-linecap="round" stroke-linejoin="round"/>
</svg>
