<svg width="17" height="16" viewBox="0 0 17 16" fill="none" xmlns="http://www.w3.org/2000/svg" >
  <path d="M8.33203 2H3.66536C3.31174 2 2.9726 2.14048 2.72256 2.39052C2.47251 2.64057 2.33203 2.97971 2.33203 3.33333V12.6667C2.33203 13.0203 2.47251 13.3594 2.72256 13.6095C2.9726 13.8595 3.31174 14 3.66536 14H12.9987C13.3523 14 13.6915 13.8595 13.9415 13.6095C14.1916 13.3594 14.332 13.0203 14.332 12.6667V8" stroke="currentColor" stroke-width="1.33333" stroke-linecap="round" stroke-linejoin="round" >
  </path >
  <path d="M12.5814 1.74991C12.8467 1.48469 13.2064 1.33569 13.5814 1.33569C13.9565 1.33569 14.3162 1.48469 14.5814 1.74991C14.8467 2.01512 14.9957 2.37483 14.9957 2.74991C14.9957 3.12498 14.8467 3.48469 14.5814 3.74991L8.57278 9.75924C8.41448 9.9174 8.21891 10.0332 8.00411 10.0959L6.08878 10.6559C6.03141 10.6726 5.9706 10.6736 5.91272 10.6588C5.85483 10.644 5.80199 10.6139 5.75974 10.5716C5.71749 10.5294 5.68737 10.4765 5.67254 10.4186C5.65771 10.3607 5.65871 10.2999 5.67544 10.2426L6.23544 8.32724C6.29846 8.11261 6.41447 7.91728 6.57278 7.75924L12.5814 1.74991Z" stroke="currentColor" stroke-width="1.33333" stroke-linecap="round" stroke-linejoin="round" >
  </path>
</svg>