<svg width="24" height="24" viewBox="0 0 24 24" fill="none" xmlns="http://www.w3.org/2000/svg">
<path d="M20.0996 15.6001H16.4996C16.0026 15.6001 15.5996 16.003 15.5996 16.5001V20.1001C15.5996 20.5972 16.0026 21.0001 16.4996 21.0001H20.0996C20.5967 21.0001 20.9996 20.5972 20.9996 20.1001V16.5001C20.9996 16.003 20.5967 15.6001 20.0996 15.6001Z" stroke="currentColor" stroke-width="1.35" stroke-linecap="round" stroke-linejoin="round"/>
<path d="M7.5 15.6001H3.9C3.40294 15.6001 3 16.003 3 16.5001V20.1001C3 20.5972 3.40294 21.0001 3.9 21.0001H7.5C7.99706 21.0001 8.4 20.5972 8.4 20.1001V16.5001C8.4 16.003 7.99706 15.6001 7.5 15.6001Z" stroke="currentColor" stroke-width="1.35" stroke-linecap="round" stroke-linejoin="round"/>
<path d="M13.7998 3H10.1998C9.70275 3 9.2998 3.40294 9.2998 3.9V7.5C9.2998 7.99706 9.70275 8.4 10.1998 8.4H13.7998C14.2969 8.4 14.6998 7.99706 14.6998 7.5V3.9C14.6998 3.40294 14.2969 3 13.7998 3Z" stroke="currentColor" stroke-width="1.35" stroke-linecap="round" stroke-linejoin="round"/>
<path d="M5.7002 15.6V12.9C5.7002 12.6613 5.79502 12.4324 5.9638 12.2636C6.13258 12.0948 6.3615 12 6.6002 12H17.4002C17.6389 12 17.8678 12.0948 18.0366 12.2636C18.2054 12.4324 18.3002 12.6613 18.3002 12.9V15.6" stroke="currentColor" stroke-width="1.35" stroke-linecap="round" stroke-linejoin="round"/>
<path d="M12 11.9999V8.3999" stroke="currentColor" stroke-width="1.35" stroke-linecap="round" stroke-linejoin="round"/>
</svg>
