<svg width="24" height="24" viewBox="0 0 24 24" fill="none" xmlns="http://www.w3.org/2000/svg">
<path d="M10.3337 14.5H7.00033C6.11627 14.5 5.26842 14.8512 4.6433 15.4763C4.01818 16.1014 3.66699 16.9493 3.66699 17.8333V19.5" stroke="currentColor" stroke-width="1.5" stroke-linecap="round" stroke-linejoin="round"/>
<path d="M13.9209 15.7749L14.6901 15.4565" stroke="currentColor" stroke-width="1.5" stroke-linecap="round" stroke-linejoin="round"/>
<path d="M14.6901 13.5438L13.9209 13.2246" stroke="currentColor" stroke-width="1.5" stroke-linecap="round" stroke-linejoin="round"/>
<path d="M16.0428 12.1901L15.7236 11.4209" stroke="currentColor" stroke-width="1.5" stroke-linecap="round" stroke-linejoin="round"/>
<path d="M16.0428 16.8101L15.7236 17.5801" stroke="currentColor" stroke-width="1.5" stroke-linecap="round" stroke-linejoin="round"/>
<path d="M17.957 12.1901L18.2762 11.4209" stroke="currentColor" stroke-width="1.5" stroke-linecap="round" stroke-linejoin="round"/>
<path d="M18.2754 17.5801L17.957 16.8101" stroke="currentColor" stroke-width="1.5" stroke-linecap="round" stroke-linejoin="round"/>
<path d="M19.3096 13.5438L20.0796 13.2246" stroke="currentColor" stroke-width="1.5" stroke-linecap="round" stroke-linejoin="round"/>
<path d="M19.3096 15.4565L20.0796 15.7757" stroke="currentColor" stroke-width="1.5" stroke-linecap="round" stroke-linejoin="round"/>
<path d="M17 17C18.3807 17 19.5 15.8807 19.5 14.5C19.5 13.1193 18.3807 12 17 12C15.6193 12 14.5 13.1193 14.5 14.5C14.5 15.8807 15.6193 17 17 17Z" stroke="currentColor" stroke-width="1.5" stroke-linecap="round" stroke-linejoin="round"/>
<path d="M9.50033 11.1667C11.3413 11.1667 12.8337 9.67428 12.8337 7.83333C12.8337 5.99238 11.3413 4.5 9.50033 4.5C7.65938 4.5 6.16699 5.99238 6.16699 7.83333C6.16699 9.67428 7.65938 11.1667 9.50033 11.1667Z" stroke="currentColor" stroke-width="1.5" stroke-linecap="round" stroke-linejoin="round"/>
</svg>
