<svg width="563" height="564" viewBox="0 0 563 564" fill="none" xmlns="http://www.w3.org/2000/svg">
<path d="M281.87 331.48L503.18 552.79C516.85 566.46 539.01 566.46 552.68 552.79C566.35 539.12 566.35 516.96 552.68 503.29L331.37 281.98L552.68 60.67C566.35 47 566.35 24.84 552.68 11.17C539.01 -2.50002 516.85 -2.50002 503.18 11.17L281.87 232.48L60.5601 11.17C46.8901 -2.50004 24.7301 -2.50004 11.0601 11.17C4.2301 18 0.810118 26.96 0.810118 35.92C0.810118 44.88 4.2301 53.84 11.0601 60.67L232.37 281.98L11.0601 503.29C4.23008 510.12 0.810097 519.08 0.810097 528.04C0.810096 537 4.23008 545.96 11.0601 552.79C24.7301 566.46 46.8901 566.46 60.5601 552.79L281.87 331.48Z" fill="black"/>
</svg>
