<svg width="120" height="120" viewBox="0 0 120 120" fill="none" xmlns="http://www.w3.org/2000/svg">
<path d="M49 75C61.7025 75 72 64.7025 72 52C72 39.2975 61.7025 29 49 29C36.2975 29 26 39.2975 26 52C26 64.7025 36.2975 75 49 75Z" stroke="#003D5B" stroke-width="9" stroke-miterlimit="10"/>
<path d="M16 92C23.3861 82.3012 35.4062 76 49.0079 76C62.6096 76 74.6298 82.3012 82 92" stroke="#003D5B" stroke-width="9" stroke-miterlimit="10" stroke-linecap="round"/>
<path d="M103.412 70.6251L100.658 69.1259C100.658 68.9405 100.723 68.755 100.723 68.5541C100.723 68.1059 100.658 67.6732 100.576 67.2404L103.019 65.9113C104.527 65.0922 105.052 63.253 104.183 61.8311C103.314 60.4093 101.363 59.9147 99.8543 60.7338L97.3947 62.0784C96.6896 61.5375 95.9025 61.1048 95.0499 60.7956V57.9828C95.0499 56.3291 93.6233 55 91.8852 55C90.1471 55 88.7206 56.3446 88.7206 57.9828V60.7956C87.7695 61.1511 86.9005 61.6457 86.1298 62.2793L83.7522 60.9811C82.2437 60.162 80.2924 60.6411 79.4233 62.0784C78.5543 63.5003 79.0626 65.3394 80.5875 66.1586L83.1619 67.5495C83.1127 67.8895 83.0471 68.2141 83.0471 68.5541C83.0471 69.0641 83.1127 69.5587 83.2111 70.0532L80.8007 71.3669C79.2922 72.186 78.7675 74.0252 79.6365 75.4471C80.5056 76.8689 82.4568 77.3635 83.9654 76.5444L86.5233 75.1534C87.1956 75.6325 87.9171 76.0343 88.7206 76.328V79.0172C88.7206 80.6709 90.1471 82 91.8852 82C93.6233 82 95.0499 80.6554 95.0499 79.0172V76.328C96.1485 75.9262 97.1487 75.3389 97.985 74.5816L100.248 75.818C101.756 76.6371 103.708 76.158 104.577 74.7207C105.446 73.2833 104.937 71.4596 103.412 70.6405V70.6251ZM88.7042 68.5541C88.7042 68.1523 88.7861 67.7504 88.9501 67.395L88.9829 67.3486C89.4748 66.2977 90.5734 65.5558 91.8852 65.5558C93.197 65.5558 94.1644 66.2358 94.6891 67.2095L94.8203 67.4259C94.9679 67.7659 95.0663 68.1523 95.0663 68.5386C95.0663 70.1923 93.6397 71.5215 91.9016 71.5215C90.1635 71.5215 88.737 70.1769 88.737 68.5386L88.7042 68.5541Z" fill="#25E2CC"/>
</svg>
