<svg width="120" height="120" viewBox="0 0 120 120" fill="none" xmlns="http://www.w3.org/2000/svg">
<mask id="mask0_1395_2246" style="mask-type:luminance" maskUnits="userSpaceOnUse" x="0" y="0" width="120" height="120">
<path d="M120 0H0V120H120V0Z" fill="white"/>
</mask>
<g mask="url(#mask0_1395_2246)">
<path d="M120 60C120 71.8669 116.481 83.4673 109.888 93.3342C103.295 103.201 93.9246 110.892 82.961 115.433C71.9975 119.974 59.9335 121.162 48.2946 118.847C36.6557 116.532 25.9648 110.818 17.5736 102.426C9.18247 94.0353 3.46802 83.3443 1.15291 71.7054C-1.1622 60.0666 0.0259972 48.0026 4.56726 37.039C9.10851 26.0754 16.7989 16.7047 26.6658 10.1118C36.5328 3.51894 48.1331 0 60 0C75.913 0 91.1743 6.32141 102.426 17.5736C113.679 28.8258 120 44.087 120 60Z" fill="#003D5B"/>
<path d="M58.7003 29.1508C60.3284 29.196 61.9203 29.6451 63.3321 30.4574C64.7439 31.2698 65.9318 32.421 66.7891 33.806C66.9283 34.0309 67.0576 34.2611 67.1778 34.4955C67.7084 33.4669 68.42 32.5299 69.2911 31.7357C71.1778 30.0159 73.6592 29.0966 76.211 29.1732C78.7629 29.2499 81.1848 30.3167 82.9649 32.1468C84.6338 33.8627 85.6163 36.1236 85.7374 38.5033L85.7501 38.9799V38.9818C85.7517 40.419 85.4374 41.8394 84.8301 43.142C84.2229 44.4443 83.3371 45.5974 82.2354 46.5199L82.2344 46.5209L67.878 58.5306C67.4695 58.8724 66.8744 58.8723 66.4659 58.5306L52.1114 46.5199V46.5189C50.8629 45.4727 49.8937 44.1328 49.2911 42.6195C48.6885 41.1062 48.4717 39.467 48.6592 37.849C48.8468 36.231 49.4334 34.6843 50.3663 33.349C51.2991 32.0139 52.5493 30.9313 54.004 30.1986C55.4585 29.466 57.0722 29.1056 58.7003 29.1508ZM58.6397 31.35C57.3757 31.3149 56.1225 31.5946 54.9932 32.1634C53.8639 32.7323 52.8932 33.5732 52.169 34.6097C51.445 35.6461 50.9894 36.8461 50.8438 38.1019C50.6982 39.358 50.8672 40.6313 51.335 41.806C51.8028 42.9806 52.5554 44.0203 53.5245 44.8324H53.5235L67.1719 56.2523L80.8223 44.8334C81.6772 44.1176 82.3648 43.2228 82.836 42.2123C83.307 41.202 83.5509 40.1003 83.5499 38.9857L83.5401 38.6146C83.446 36.7674 82.6832 35.0119 81.3878 33.68C80.0059 32.2595 78.1255 31.4319 76.1446 31.3724C74.1637 31.313 72.2371 32.0265 70.7725 33.3617C69.308 34.6969 68.4204 36.5497 68.2969 38.5277C68.2738 38.8959 68.0669 39.2284 67.7471 39.4125C67.5703 39.5141 67.3718 39.5605 67.1739 39.556C66.9716 39.5612 66.7687 39.5131 66.5889 39.4076C66.2728 39.2219 66.0699 38.8907 66.0479 38.5248C65.9722 37.2626 65.5845 36.0384 64.919 34.9633C64.2535 33.8881 63.3304 32.9953 62.2344 32.3646C61.1386 31.7341 59.9035 31.3851 58.6397 31.35Z" fill="white"/>
<path d="M57.309 59.3784C57.9165 59.3784 58.4095 59.8705 58.4095 60.478C58.4095 61.0855 57.9165 61.5776 57.309 61.5776H49.9515L46.1234 63.4458L38.7719 70.7993L48.0707 80.0962L49.182 78.9849C49.3883 78.7786 49.6686 78.6626 49.9603 78.6626H83.0453L97.8051 63.897C96.677 62.9553 95.2502 62.4332 93.7689 62.4331C92.2026 62.4331 90.696 63.0158 89.5404 64.062L89.3138 64.2778L84.7562 68.8364C84.3268 69.2659 83.6302 69.2666 83.2006 68.8374C82.771 68.4079 82.7711 67.7114 83.2006 67.2817L87.7582 62.7222C89.3522 61.1282 91.5146 60.2329 93.7689 60.2329C96.0212 60.233 98.1812 61.1269 99.7748 62.7183L100.156 63.0952C100.364 63.3011 100.481 63.5818 100.482 63.8745C100.482 64.167 100.367 64.4479 100.161 64.6548L84.2787 80.5405C84.0724 80.7468 83.793 80.8627 83.5013 80.8628H50.4154L48.849 82.4302C48.4195 82.8595 47.7229 82.8595 47.2933 82.4302L36.4398 71.5776C36.0102 71.1481 36.0094 70.4516 36.4388 70.022L44.6976 61.7612L44.764 61.6997C44.8336 61.6408 44.9104 61.5904 44.9926 61.5503L49.2133 59.4897C49.3634 59.4164 49.5286 59.3785 49.6957 59.3784H57.309Z" fill="white"/>
<path d="M33.6607 67.206C34.0903 66.7767 34.7862 66.7765 35.2157 67.206L51.3418 83.3321C51.7713 83.7616 51.7718 84.4583 51.3425 84.8879L45.725 90.5053C45.2954 90.9349 44.5988 90.9342 44.1692 90.5047L28.0432 74.3786C27.6136 73.949 27.6136 73.2531 28.0432 72.8235L33.6607 67.206ZM44.9467 88.172L49.0085 84.1103L34.4375 69.5394L30.3758 73.6011L44.9467 88.172Z" fill="white"/>
<path d="M27.1811 71.9615C27.6107 71.5319 28.3073 71.5312 28.7369 71.9608L46.5872 89.8111C47.0167 90.2407 47.016 90.9373 46.5865 91.3669L39.2454 98.7079C38.8159 99.1375 38.1199 99.1374 37.6903 98.7079L19.84 80.8576C19.4105 80.428 19.4105 79.7321 19.84 79.3025L27.1811 71.9615ZM38.4672 96.3746L44.2532 90.5886L27.9586 74.2941L22.1727 80.0801L38.4672 96.3746Z" fill="white"/>
<path d="M28.7854 77.957C29.3689 77.957 29.9399 78.1299 30.425 78.4541C30.91 78.7783 31.2878 79.2393 31.511 79.7783C31.7341 80.3173 31.7928 80.9103 31.6789 81.4824C31.5651 82.0543 31.2845 82.5798 30.8723 82.9922C30.5985 83.2663 30.2732 83.4845 29.9153 83.6328C29.5573 83.7812 29.1729 83.8574 28.7854 83.8574C28.398 83.8574 28.0143 83.7811 27.6565 83.6328C27.2985 83.4845 26.9733 83.2663 26.6995 82.9922C26.2872 82.5798 26.0066 82.0544 25.8928 81.4824C25.779 80.9104 25.8367 80.3173 26.0598 79.7783C26.283 79.2393 26.6617 78.7783 27.1467 78.4541C27.6317 78.13 28.202 77.9571 28.7854 77.957ZM28.7854 80.1562C28.6372 80.1563 28.4926 80.2009 28.3694 80.2832C28.246 80.3656 28.1498 80.4831 28.093 80.6201C28.0364 80.757 28.0212 80.9075 28.05 81.0527C28.079 81.1982 28.1512 81.3326 28.2561 81.4375C28.3256 81.5071 28.4084 81.5619 28.4993 81.5996C28.59 81.6372 28.6871 81.6572 28.7854 81.6572C28.8838 81.6572 28.9816 81.6373 29.0725 81.5996C29.1634 81.5619 29.2461 81.5071 29.3157 81.4375L29.3879 81.3535C29.4538 81.2648 29.5 81.162 29.5217 81.0527C29.5505 80.9075 29.5353 80.757 29.4787 80.6201C29.422 80.4831 29.3257 80.3656 29.2024 80.2832C29.079 80.2008 28.9337 80.1562 28.7854 80.1562Z" fill="white"/>
<path d="M61.4561 59.3774C61.6479 59.3774 61.8365 59.4276 62.0029 59.5229L69.5859 63.8657H78.25C79.2348 63.8657 80.2103 64.0602 81.1201 64.437C82.0301 64.8139 82.8573 65.3665 83.5537 66.063C84.25 66.7593 84.8028 67.5858 85.1797 68.4956C85.5566 69.4054 85.75 70.3809 85.75 71.3657V71.5259C85.75 72.1334 85.2579 72.6264 84.6504 72.6265H61.4561C60.8487 72.6263 60.3564 72.1333 60.3564 71.5259C60.3565 70.9185 60.8487 70.4264 61.4561 70.4263H83.4648C83.3978 70.0541 83.2919 69.6885 83.1465 69.3374C82.8802 68.6946 82.49 68.1106 81.998 67.6187C81.5059 67.1265 80.9213 66.7356 80.2783 66.4692C79.6354 66.203 78.9459 66.0659 78.25 66.0659H69.293C69.1014 66.0659 68.9133 66.0156 68.7471 65.9204L61.1631 61.5767H49.6934C49.0858 61.5767 48.5938 61.0846 48.5938 60.4771C48.5938 59.8695 49.0858 59.3774 49.6934 59.3774H61.4561Z" fill="white"/>
<path d="M40.0449 49.4368C40.4624 49.0753 41.0935 49.1208 41.455 49.5384C41.7379 49.8651 42.0351 50.1816 42.3456 50.4866C42.7395 50.8736 42.7452 51.5067 42.3583 51.9007C41.9713 52.2944 41.3382 52.3002 40.9443 51.9134C40.5951 51.5705 40.2614 51.2144 39.9433 50.847C39.5819 50.4294 39.6274 49.7983 40.0449 49.4368ZM37.1572 43.7005C37.6785 43.5184 38.2494 43.7933 38.4316 44.3147C38.7177 45.134 39.0699 45.9292 39.4843 46.6917C39.7476 47.1768 39.5678 47.7834 39.0829 48.0472C38.5978 48.3108 37.9903 48.1318 37.7265 47.6468C37.2606 46.7895 36.8647 45.8951 36.5429 44.9739C36.3611 44.4527 36.6361 43.8826 37.1572 43.7005ZM36.5644 37.0716C37.1162 37.0921 37.5468 37.5559 37.5263 38.1077C37.5075 38.6125 37.5126 39.119 37.5429 39.6243C37.5433 39.6312 37.5436 39.6389 37.5439 39.6458C37.561 40.0806 37.5965 40.5128 37.6484 40.9417C37.7146 41.49 37.3236 41.9887 36.7753 42.055C36.227 42.1212 35.7283 41.7302 35.662 41.1819C35.6045 40.7061 35.5663 40.2266 35.5468 39.7444L35.5263 39.3157C35.5112 38.8876 35.5124 38.4598 35.5283 38.0335C35.5488 37.4816 36.0125 37.051 36.5644 37.0716ZM37.5419 30.3802C37.7973 29.8905 38.4018 29.7 38.8915 29.9554C39.3811 30.2108 39.5707 30.8153 39.3154 31.305C38.8543 32.1892 38.4734 33.1336 38.1825 34.1165C38.0258 34.6461 37.469 34.949 36.9394 34.7923C36.41 34.6355 36.1079 34.0786 36.2646 33.5491C36.5912 32.4455 37.02 31.3811 37.5419 30.3802ZM41.5077 25.4915C41.9409 25.149 42.5694 25.2225 42.912 25.6556C43.2546 26.0888 43.1812 26.7173 42.748 27.0599C42.3636 27.3638 41.9957 27.6966 41.6454 28.055C41.2595 28.4499 40.6264 28.4575 40.2314 28.0716C39.8364 27.6856 39.8289 27.0525 40.2148 26.6575C40.6224 26.2404 41.054 25.8504 41.5077 25.4915Z" fill="white"/>
<path d="M92.9422 49.5384C93.3037 49.1209 93.9349 49.0755 94.3524 49.4369C94.7699 49.7984 94.8155 50.4295 94.454 50.847C94.1358 51.2144 93.8022 51.5705 93.453 51.9134C93.059 52.3002 92.4258 52.2946 92.0389 51.9007C91.652 51.5068 91.6578 50.8736 92.0516 50.4867C92.3621 50.1817 92.6594 49.8651 92.9422 49.5384ZM95.9666 44.3148C96.1488 43.7935 96.7188 43.5184 97.2401 43.7005C97.7614 43.8826 98.0362 44.4527 97.8543 44.974C97.5326 45.8951 97.1367 46.7895 96.6707 47.6468C96.4069 48.1318 95.7994 48.3109 95.3143 48.0472C94.8295 47.7834 94.6504 47.1768 94.9139 46.6917C95.3283 45.9293 95.6805 45.1341 95.9666 44.3148ZM97.8329 37.0716C98.3848 37.0511 98.8494 37.4816 98.87 38.0335C98.8911 38.6021 98.8847 39.1733 98.8504 39.7445C98.8309 40.2266 98.7927 40.7062 98.7352 41.182C98.6689 41.7303 98.1702 42.1213 97.6219 42.055C97.0738 41.9886 96.6836 41.4899 96.7498 40.9417C96.8017 40.5129 96.8362 40.0806 96.8534 39.6458L96.8543 39.6244C96.8846 39.119 96.8897 38.6126 96.8709 38.1078C96.8505 37.556 97.2812 37.0923 97.8329 37.0716ZM95.5067 29.9554C95.9963 29.7003 96.6 29.8906 96.8553 30.3802C97.3772 31.3812 97.8061 32.4455 98.1327 33.5492C98.2894 34.0787 97.9874 34.6356 97.4579 34.7923C96.9283 34.949 96.3714 34.6461 96.2147 34.1165C95.9238 33.1337 95.5429 32.1893 95.0819 31.305C94.8265 30.8153 95.017 30.2108 95.5067 29.9554ZM91.4852 25.6556C91.8278 25.2224 92.4563 25.149 92.8895 25.4915C93.3433 25.8504 93.7748 26.2404 94.1825 26.6576C94.5685 27.0526 94.5608 27.6856 94.1659 28.0716C93.7709 28.4574 93.1377 28.4499 92.7518 28.055C92.4015 27.6966 92.0336 27.3639 91.6493 27.0599C91.2161 26.7173 91.1426 26.0888 91.4852 25.6556Z" fill="white"/>
<path d="M44.4883 45.1937C44.9394 44.8751 45.5632 44.9829 45.8819 45.4339C46.221 45.914 46.5993 46.3696 47.0147 46.7953C47.4004 47.1905 47.3933 47.8236 46.9981 48.2093C46.6028 48.595 45.9697 48.587 45.584 48.1918C45.0945 47.6901 44.6479 47.1532 44.2481 46.5873C43.9297 46.1362 44.0373 45.5123 44.4883 45.1937ZM43.043 36.2084C43.5907 36.2793 43.9772 36.7808 43.9063 37.3285C43.8413 37.8305 43.811 38.3352 43.8164 38.8353L43.834 39.3334L43.835 39.3587C43.8558 39.9532 43.9233 40.5416 44.0362 41.1185C44.1421 41.6604 43.789 42.1853 43.2471 42.2914C42.7051 42.3974 42.1793 42.0443 42.0733 41.5023C41.9402 40.8223 41.8605 40.1286 41.836 39.4281L41.8369 39.4271C41.7915 38.6419 41.8221 37.8506 41.9229 37.0716C41.9938 36.524 42.4953 36.1375 43.043 36.2084ZM45.9092 29.4203C46.3424 29.0777 46.9709 29.1512 47.3135 29.5843C47.6561 30.0175 47.5826 30.646 47.1494 30.9886C46.6715 31.3667 46.2255 31.8375 45.8233 32.3841C45.496 32.829 44.8697 32.9243 44.4248 32.597C43.98 32.2697 43.8847 31.6434 44.2119 31.1986C44.7068 30.526 45.2749 29.922 45.9092 29.4203Z" fill="white"/>
<path d="M88.5184 45.4339C88.837 44.9829 89.4609 44.8751 89.9119 45.1937C90.3629 45.5123 90.4706 46.1362 90.1522 46.5872C89.7524 47.1532 89.3058 47.6901 88.8162 48.1917C88.4305 48.5869 87.7974 48.595 87.4022 48.2093C87.007 47.8236 86.9999 47.1905 87.3856 46.7952C87.801 46.3696 88.1792 45.914 88.5184 45.4339ZM91.3572 36.2083C91.905 36.1374 92.4064 36.5239 92.4774 37.0716C92.5782 37.8506 92.6087 38.6418 92.5633 39.4271L92.5643 39.428C92.5397 40.1285 92.46 40.8222 92.327 41.5023C92.2209 42.0443 91.6951 42.3974 91.1531 42.2913C90.6113 42.1852 90.2582 41.6604 90.3641 41.1185C90.477 40.5416 90.5444 39.9531 90.5652 39.3587L90.5672 39.3333C90.6069 38.6718 90.5806 37.9978 90.494 37.3284C90.4231 36.7807 90.8095 36.2792 91.3572 36.2083ZM87.0867 29.5843C87.4293 29.1512 88.0579 29.0777 88.491 29.4202C89.1253 29.9219 89.6934 30.5259 90.1883 31.1985C90.5156 31.6434 90.4203 32.2697 89.9754 32.597C89.5306 32.9243 88.9043 32.8289 88.577 32.3841C88.1748 31.8374 87.7288 31.3667 87.2508 30.9886C86.8177 30.646 86.7442 30.0174 87.0867 29.5843Z" fill="white"/>
</g>
</svg>
