<svg width="120" height="120" viewBox="0 0 120 120" fill="none" xmlns="http://www.w3.org/2000/svg">
<mask id="mask0_1395_2303" style="mask-type:luminance" maskUnits="userSpaceOnUse" x="0" y="0" width="120" height="120">
<path d="M120 0H0V120H120V0Z" fill="white"/>
</mask>
<g mask="url(#mask0_1395_2303)">
<path d="M120 60C120 71.8669 116.481 83.4673 109.888 93.3342C103.295 103.201 93.9246 110.892 82.961 115.433C71.9975 119.974 59.9335 121.162 48.2946 118.847C36.6557 116.532 25.9648 110.818 17.5736 102.426C9.18247 94.0353 3.46802 83.3443 1.15291 71.7054C-1.1622 60.0666 0.0259972 48.0026 4.56726 37.039C9.10851 26.0754 16.7989 16.7047 26.6658 10.1118C36.5328 3.51894 48.1331 0 60 0C75.913 0 91.1743 6.32141 102.426 17.5736C113.679 28.8258 120 44.087 120 60Z" fill="#003D5B"/>
<path d="M34.3281 51.9102C34.3282 51.3341 34.4612 50.7658 34.7178 50.25C34.9744 49.734 35.3471 49.2842 35.8066 48.9365L38.2822 47.0625H38.2832C38.5544 46.8575 38.7497 46.5676 38.8379 46.2393C38.9259 45.9111 38.9015 45.5631 38.7695 45.25V45.249L37.5615 42.3867C37.3366 41.8554 37.2378 41.279 37.2734 40.7031C37.3091 40.1274 37.4779 39.5678 37.7666 39.0684C38.0554 38.5688 38.4571 38.1425 38.9385 37.8242C39.4192 37.5065 39.9671 37.3046 40.5391 37.2344L43.6191 36.8525L43.7451 36.8311C44.0347 36.7702 44.3013 36.6266 44.5117 36.416C44.7523 36.1753 44.9063 35.8612 44.9482 35.5234L45.3301 32.4424L45.3574 32.2588C45.5167 31.3502 46.008 30.5304 46.7393 29.9609C47.5194 29.3534 48.509 29.0802 49.4902 29.2021H49.4893C49.8321 29.2444 50.1675 29.3345 50.4854 29.4697H50.4844L53.3398 30.6768H53.3389C53.6522 30.8087 54.0007 30.8321 54.3291 30.7441C54.6578 30.656 54.9479 30.4607 55.1533 30.1895L57.0234 27.7139C57.371 27.2539 57.8209 26.881 58.3369 26.624C58.8531 26.3671 59.4224 26.2334 59.999 26.2334C60.5756 26.2334 61.144 26.3672 61.6602 26.624C62.1385 26.8621 62.5587 27.2009 62.8945 27.6152C62.9243 27.6462 62.9523 27.6792 62.9785 27.7139L64.8506 30.1895C65.056 30.4607 65.3471 30.656 65.6758 30.7441C66.0042 30.8321 66.3526 30.8087 66.666 30.6768L69.5264 29.4688C70.0577 29.2438 70.6341 29.146 71.21 29.1816C71.7859 29.2173 72.3461 29.386 72.8457 29.6748C73.3451 29.9636 73.7707 30.3644 74.0889 30.8457C74.4071 31.327 74.6096 31.8755 74.6797 32.4482H74.6787L75.0615 35.5273H75.0605C75.1026 35.8648 75.2567 36.1784 75.4971 36.4189C75.7375 36.6595 76.0512 36.8133 76.3887 36.8555H76.3877L79.4688 37.2373H79.4697C80.4507 37.3596 81.3427 37.8666 81.9502 38.6465C82.5577 39.4266 82.8308 40.4163 82.709 41.3975C82.6667 41.74 82.5765 42.0749 82.4414 42.3926L81.2354 45.252C81.1034 45.5654 81.0789 45.9137 81.167 46.2422C81.255 46.5705 81.4499 46.86 81.7207 47.0654L84.1982 48.9385C84.6578 49.2862 85.0305 49.736 85.2871 50.252C85.5436 50.7678 85.6767 51.336 85.6768 51.9121C85.6768 52.4884 85.5437 53.0573 85.2871 53.5732C85.0305 54.0892 84.6578 54.539 84.1982 54.8867L81.7207 56.7598C81.4494 56.9649 81.2544 57.2546 81.166 57.583C81.0776 57.9116 81.1006 58.2605 81.2324 58.5742L82.4395 61.4336H82.4404C82.6644 61.9648 82.7616 62.5408 82.7256 63.1162C82.6895 63.6916 82.521 64.2509 82.2324 64.75C81.9438 65.2491 81.5432 65.6748 81.0625 65.9932C80.5819 66.3114 80.034 66.5141 79.4619 66.585L76.3809 66.9658C76.0437 67.0079 75.7305 67.1622 75.4902 67.4023C75.2498 67.6428 75.0957 67.9566 75.0537 68.2939L74.6719 71.374V71.376C74.5486 72.3552 74.0422 73.2461 73.2637 73.8525C72.485 74.4589 71.4972 74.7326 70.5176 74.6123L70.5166 74.6113C70.1739 74.5691 69.8383 74.4799 69.5205 74.3447V74.3438L66.6621 73.1387H66.6611C66.3479 73.0064 65.9993 72.9823 65.6709 73.0703C65.3429 73.1583 65.0526 73.3523 64.8477 73.623L62.9795 76.0996L62.9785 76.1006C62.6309 76.56 62.1818 76.9328 61.666 77.1895C61.1501 77.4461 60.5811 77.5801 60.0049 77.5801C59.4288 77.5801 58.8606 77.446 58.3447 77.1895C57.8288 76.9328 57.3789 76.5601 57.0312 76.1006L55.1582 73.625V73.624C54.9532 73.3529 54.6632 73.1584 54.335 73.0703C54.0065 72.9823 53.658 73.0064 53.3447 73.1387L50.4795 74.3496L50.4785 74.3486C49.9476 74.5732 49.3722 74.6723 48.7969 74.6367C48.2209 74.6011 47.6607 74.4324 47.1611 74.1436C46.6617 73.8548 46.2361 73.4539 45.918 72.9727C45.5997 72.4913 45.3972 71.9419 45.3271 71.3691V71.3682L44.9453 68.29V68.2891C44.9031 67.952 44.75 67.6386 44.5098 67.3984C44.2993 67.188 44.0327 67.0441 43.7432 66.9834L43.6172 66.9629L40.5361 66.5811V66.5801C39.9641 66.5094 39.4162 66.3074 38.9355 65.9893C38.4546 65.671 38.0533 65.2454 37.7646 64.7461C37.4762 64.247 37.3074 63.6877 37.2715 63.1123C37.2356 62.5367 37.3333 61.96 37.5576 61.4287L37.5586 61.4277L38.7705 58.5703C38.9018 58.2572 38.9259 57.909 38.8379 57.5811C38.7496 57.2524 38.5545 56.9622 38.2832 56.7568L35.8066 54.8848V54.8838C35.3473 54.5361 34.9743 54.0871 34.7178 53.5713C34.4612 53.0553 34.3281 52.4864 34.3281 51.9102ZM36.5273 51.9102C36.5273 52.1464 36.5823 52.3802 36.6875 52.5918C36.7927 52.8032 36.9455 52.9874 37.1338 53.1299L39.6104 55.0029C40.2718 55.5035 40.748 56.2105 40.9629 57.0117C41.1777 57.8129 41.119 58.6634 40.7969 59.4277L40.7959 59.4297L39.584 62.2842C39.492 62.5019 39.4531 62.7387 39.4678 62.9746C39.4825 63.2106 39.5516 63.4408 39.6699 63.6455C39.7883 63.8501 39.9523 64.0248 40.1494 64.1553C40.3465 64.2856 40.5712 64.3685 40.8057 64.3975H40.8066L43.8877 64.7793L44.1934 64.8301C44.9001 64.978 45.5516 65.3291 46.0654 65.8428C46.5789 66.3562 46.9298 67.0066 47.0781 67.7129L47.1289 68.0195L47.5107 71.1006L47.5117 71.1025C47.5404 71.337 47.6227 71.5617 47.7529 71.7588C47.8833 71.956 48.058 72.1209 48.2627 72.2393C48.4673 72.3575 48.6967 72.4268 48.9326 72.4414C49.1684 72.456 49.4045 72.4153 49.6221 72.3232H49.623L52.4883 71.1123V71.1113C53.2526 70.7885 54.1029 70.7305 54.9043 70.9453C55.7057 71.1601 56.4127 71.636 56.9131 72.2979L58.7861 74.7734C58.9287 74.9617 59.1128 75.1146 59.3242 75.2197C59.5357 75.3249 59.7687 75.3799 60.0049 75.3799C60.2411 75.3799 60.4741 75.3249 60.6855 75.2197C60.8971 75.1145 61.082 74.9619 61.2246 74.7734L63.0928 72.2979L63.29 72.0586C63.7715 71.5211 64.4003 71.1333 65.1016 70.9453C65.903 70.7305 66.7533 70.7885 67.5176 71.1113H67.5166L70.3789 72.3184L70.3818 72.3193V72.3203C70.5107 72.3751 70.6471 72.4116 70.7861 72.4287C71.1875 72.4779 71.592 72.3656 71.9111 72.1172C72.2305 71.8685 72.4387 71.5031 72.4893 71.1016L72.8711 68.0225L72.9219 67.7158C73.0703 67.01 73.4214 66.3598 73.9346 65.8467C74.5211 65.2602 75.2863 64.8857 76.1094 64.7832H76.1104L79.1914 64.4014C79.426 64.3723 79.6505 64.2887 79.8477 64.1582C80.0448 64.0276 80.2098 63.8531 80.3281 63.6484C80.4463 63.4438 80.5155 63.2144 80.5303 62.9785C80.545 62.7427 80.5048 62.5068 80.4131 62.2891L79.2051 59.4277L79.2041 59.4258C78.8831 58.6616 78.8257 57.8122 79.041 57.0117C79.2564 56.2112 79.7324 55.5049 80.3936 55.0049L82.8711 53.1318L83.0049 53.0176C83.1324 52.8957 83.2384 52.7525 83.3174 52.5938C83.4226 52.3822 83.4775 52.1484 83.4775 51.9121C83.4775 51.676 83.4225 51.4429 83.3174 51.2314C83.2384 51.0727 83.1324 50.9295 83.0049 50.8076L82.8711 50.6934L80.3936 48.8203C79.7325 48.3196 79.2567 47.6125 79.042 46.8115C78.8274 46.0106 78.886 45.1606 79.208 44.3965L80.416 41.5342L80.417 41.5312C80.4718 41.4025 80.5083 41.2668 80.5254 41.1279V41.126C80.5753 40.7238 80.4639 40.3178 80.2148 39.998C79.9657 39.6783 79.5995 39.471 79.1973 39.4209L76.1172 39.0391L76.1162 39.0381C75.2931 38.9353 74.5279 38.5612 73.9414 37.9746C73.4282 37.4611 73.077 36.8107 72.9287 36.1045L72.8779 35.7988L72.4961 32.7178L72.4951 32.7158C72.4664 32.4812 72.3843 32.2558 72.2539 32.0586C72.1235 31.8614 71.9488 31.6974 71.7441 31.5791C71.5395 31.4608 71.3102 31.3916 71.0742 31.377C70.8383 31.3624 70.6024 31.403 70.3848 31.4951H70.3828L67.5215 32.7031L67.5205 32.7041C66.7564 33.026 65.9064 33.0838 65.1055 32.8691C64.3048 32.6544 63.5982 32.1793 63.0977 31.5186L63.0967 31.5176L61.2627 29.0918C61.248 29.0747 61.2324 29.0581 61.2188 29.04C61.0763 28.8515 60.8922 28.6981 60.6807 28.5928C60.469 28.4874 60.2354 28.4326 59.999 28.4326C59.7626 28.4326 59.5291 28.4874 59.3174 28.5928C59.1587 28.6718 59.0154 28.7778 58.8936 28.9053L58.7793 29.04L56.9082 31.5166L56.9072 31.5186C56.4066 32.1793 55.7001 32.6544 54.8994 32.8691C54.0985 33.0838 53.2485 33.026 52.4844 32.7041L52.4834 32.7031L49.626 31.4951L49.624 31.4941C49.4951 31.4393 49.3587 31.4029 49.2197 31.3857H49.2188C48.8165 31.3358 48.4107 31.4473 48.0908 31.6963C47.8108 31.9143 47.6167 32.2223 47.5391 32.5654L47.5127 32.7139L47.1309 35.7939V35.7949C47.0285 36.6185 46.6541 37.3847 46.0674 37.9717C45.4807 38.5585 44.715 38.9325 43.8916 39.0352L43.8906 39.0361L40.8096 39.418H40.8076C40.5731 39.4467 40.3485 39.5299 40.1514 39.6602C39.9543 39.7904 39.7902 39.9645 39.6719 40.1689C39.5536 40.3735 39.4844 40.603 39.4697 40.8389C39.4588 41.0158 39.4788 41.193 39.5283 41.3623L39.5869 41.5293L39.5879 41.5303L40.7969 44.3945C41.1192 45.1587 41.1778 46.0086 40.9629 46.8096C40.7479 47.6105 40.2709 48.3163 39.6094 48.8164L37.1348 50.6914H37.1338C36.9455 50.8339 36.7927 51.0181 36.6875 51.2295C36.5823 51.4409 36.5274 51.674 36.5273 51.9102Z" fill="white"/>
<path d="M73.585 68.4743C74.0527 68.3847 74.5249 68.6061 74.7549 69.0231L85.5293 88.5563C85.7226 88.907 85.7096 89.3348 85.4961 89.6735C85.2825 90.0124 84.9019 90.2085 84.502 90.1852L75.9346 89.6862L71.7881 97.1979C71.5945 97.5486 71.2249 97.7664 70.8243 97.7663C70.4238 97.7661 70.0548 97.5485 69.8614 97.1979L58.711 76.9782C58.5103 76.6143 58.5318 76.1687 58.7666 75.8259C59.0016 75.4831 59.4095 75.3014 59.8213 75.3571C60.0853 75.3929 60.3546 75.3585 60.6006 75.2565C60.8468 75.1544 61.0615 74.9883 61.2227 74.776L63.0928 72.3005C63.5934 71.6392 64.3005 71.1636 65.1016 70.9489C65.9026 70.7343 66.7526 70.7927 67.5166 71.1149L70.3741 72.3219L70.375 72.3229C70.4395 72.3502 70.5059 72.3723 70.5733 72.3903L70.7793 72.4303L70.7823 72.4313C70.9813 72.4562 71.1836 72.4416 71.377 72.3884C71.5705 72.3351 71.7519 72.244 71.9102 72.1208C72.0685 71.9976 72.2008 71.844 72.2999 71.6696C72.3988 71.4953 72.4626 71.3031 72.4874 71.1042V71.1012L72.7002 69.4167C72.76 68.9442 73.1173 68.5639 73.585 68.4743ZM74.2129 72.7565C73.9711 73.1822 73.6472 73.5564 73.2608 73.8571C72.8745 74.1577 72.4329 74.3796 71.961 74.5094C71.489 74.6393 70.9956 74.6746 70.5098 74.6139V74.613C70.1681 74.571 69.8337 74.4827 69.5166 74.3483V74.3473L66.6612 73.1413V73.1423C66.3478 73.0101 65.9995 72.9859 65.6709 73.0739C65.3427 73.1619 65.052 73.3559 64.8467 73.6266L62.9766 76.1042L62.9747 76.1061C62.5779 76.6286 62.0494 77.0364 61.4434 77.2878C61.4296 77.2935 61.4153 77.2978 61.4014 77.3034L70.8252 94.3893L74.3448 88.0163C74.5495 87.6457 74.9494 87.4253 75.3721 87.4499L82.6397 87.8727L74.2569 72.6735C74.2422 72.701 74.2284 72.7294 74.2129 72.7565Z" fill="white"/>
<path d="M46.4163 68.471C46.8843 68.561 47.2411 68.9424 47.3001 69.4153L47.51 71.0999V71.1009C47.5391 71.3355 47.6227 71.56 47.7532 71.7571C47.8838 71.9543 48.0582 72.1192 48.263 72.2376C48.4676 72.3559 48.697 72.4249 48.9329 72.4398C49.1686 72.4545 49.4047 72.4142 49.6223 72.3226L52.4798 71.1146H52.4807C53.245 70.7923 54.0946 70.7339 54.8958 70.9485C55.5968 71.1364 56.2256 71.5239 56.7073 72.0608L56.9046 72.3001L56.9055 72.3011L58.7766 74.7757C58.938 74.9883 59.1531 75.155 59.3997 75.2571C59.6461 75.3592 59.9157 75.3939 60.18 75.3577C60.5921 75.3012 61.0012 75.4816 61.2366 75.8245C61.472 76.1675 61.4942 76.6145 61.2932 76.9788L50.1399 97.1985C49.9464 97.5492 49.5775 97.7668 49.177 97.7669C48.7764 97.767 48.4078 97.5492 48.2141 97.1985L44.0657 89.6858L35.4993 90.1849C35.0996 90.208 34.7187 90.0127 34.5051 89.6741C34.2915 89.3353 34.2795 88.9067 34.4729 88.556L45.2454 69.0198L45.343 68.8724C45.5941 68.5519 46.007 68.3924 46.4163 68.471ZM37.3606 87.8724L44.6301 87.4495L44.7874 87.4524C45.1495 87.4833 45.4774 87.6919 45.6565 88.0159L49.176 94.3899L58.5999 77.305C58.5861 77.2995 58.5716 77.295 58.5579 77.2894C57.9509 77.0379 57.4219 76.6291 57.0247 76.1058L57.0237 76.1048L55.1507 73.6273C54.9452 73.3562 54.655 73.1616 54.3264 73.0735C53.9976 72.9855 53.6489 73.0096 53.3352 73.1419L53.3342 73.1409L50.4788 74.3489L50.4778 74.3499C49.9467 74.5738 49.3704 74.6711 48.7952 74.6351C48.2199 74.599 47.6604 74.4304 47.1614 74.1419C46.6624 73.8533 46.2375 73.4526 45.9192 72.972C45.8553 72.8754 45.7969 72.7757 45.7425 72.6741L37.3606 87.8724Z" fill="white"/>
<path d="M59.9961 33.6592C60.3064 33.6588 60.6027 33.789 60.8115 34.0186C61.4779 34.7512 62.2892 35.3374 63.1943 35.7393C64.099 36.1409 65.0775 36.3485 66.0674 36.3516C66.8038 36.3519 67.5355 36.2378 68.2363 36.0117C68.5323 35.9162 68.8557 35.9509 69.125 36.1064C69.3941 36.262 69.5852 36.5242 69.6504 36.8281C69.9365 38.161 70.6014 39.3828 71.5654 40.3467C72.5294 41.3105 73.7511 41.9759 75.084 42.2617C75.3882 42.3269 75.6511 42.5177 75.8066 42.7871C75.962 43.0564 75.9959 43.379 75.9004 43.6748C75.4814 44.9716 75.4457 46.3622 75.7979 47.6787C76.15 48.9951 76.8754 50.1814 77.8857 51.0957C78.1162 51.3042 78.248 51.6013 78.248 51.9121C78.248 52.2228 78.1161 52.5191 77.8857 52.7275C76.8752 53.6419 76.15 54.829 75.7979 56.1455C75.4458 57.4618 75.4815 58.8518 75.9004 60.1484C75.996 60.4444 75.9621 60.7677 75.8066 61.0371C75.6511 61.3064 75.3881 61.4973 75.084 61.5625C73.7517 61.8484 72.5302 62.5133 71.5664 63.4766C70.6027 64.4399 69.9379 65.661 69.6514 66.9932C69.586 67.2972 69.3943 67.5595 69.125 67.7148C68.8557 67.8701 68.5331 67.9041 68.2373 67.8086C67.5366 67.5823 66.8047 67.4676 66.0684 67.4688C65.0783 67.4713 64.0993 67.6805 63.1943 68.082C62.2893 68.4837 61.4777 69.0692 60.8115 69.8018C60.6032 70.0309 60.3078 70.162 59.998 70.1621C59.6882 70.1621 59.3921 70.031 59.1836 69.8018C58.5176 69.0694 57.7065 68.4837 56.8018 68.082C55.8968 67.6804 54.9178 67.4714 53.9277 67.4688C53.1917 67.4677 52.4602 67.5824 51.7598 67.8086C51.464 67.9041 51.1414 67.8701 50.8721 67.7148C50.6028 67.5595 50.4121 67.2971 50.3467 66.9932C50.0602 65.661 49.3944 64.4399 48.4307 63.4766C47.4669 62.5132 46.2454 61.8484 44.9131 61.5625C44.609 61.4973 44.3459 61.3065 44.1904 61.0371C44.0349 60.7677 44.001 60.4444 44.0967 60.1484C44.5156 58.8518 44.5513 57.4619 44.1992 56.1455C43.847 54.829 43.1218 53.6419 42.1113 52.7275C41.881 52.5191 41.7501 52.2228 41.75 51.9121C41.75 51.6013 41.8809 51.3042 42.1113 51.0957C43.1217 50.1814 43.847 48.9951 44.1992 47.6787C44.5514 46.3622 44.5157 44.9716 44.0967 43.6748C44.0011 43.3789 44.0359 43.0565 44.1914 42.7871C44.3469 42.5177 44.6089 42.327 44.9131 42.2617C46.2459 41.9758 47.4678 41.3105 48.4316 40.3467C49.3955 39.3828 50.0598 38.1609 50.3457 36.8281L50.376 36.7158C50.4599 36.46 50.6357 36.2425 50.8711 36.1064C51.1403 35.9509 51.4629 35.9164 51.7588 36.0117C53.0563 36.4298 54.447 36.4644 55.7637 36.1113C57.0803 35.7582 58.2675 35.0327 59.1816 34.0215L59.2637 33.9395C59.464 33.76 59.7245 33.6596 59.9961 33.6592ZM60 36.29C58.9439 37.2037 57.6923 37.872 56.334 38.2363C54.9766 38.6004 53.5593 38.6487 52.1885 38.3867C51.7306 39.705 50.981 40.9086 49.9873 41.9023C48.9936 42.8961 47.79 43.6456 46.4717 44.1035C46.7344 45.4735 46.6873 46.89 46.3242 48.2471C45.9611 49.6045 45.2939 50.8551 44.3818 51.9111C45.2942 52.9672 45.961 54.2185 46.3242 55.5762C46.6872 56.9331 46.7344 58.3498 46.4717 59.7197C47.7895 60.1775 48.9928 60.9268 49.9863 61.9199C50.9797 62.9128 51.7291 64.1154 52.1875 65.4326C52.7618 65.3229 53.3462 65.2676 53.9326 65.2686H53.9336C55.2291 65.272 56.5102 65.5457 57.6943 66.0713C58.5318 66.4431 59.306 66.9377 59.9971 67.5332C60.6887 66.9371 61.4644 66.4423 62.3027 66.0703C63.487 65.5449 64.7679 65.2718 66.0635 65.2686H66.0645C66.6505 65.2676 67.2347 65.3231 67.8086 65.4326C68.267 64.1153 69.0183 62.9129 70.0117 61.9199C71.005 60.9272 72.2072 60.1775 73.5244 59.7197C73.2618 58.3499 73.3099 56.9331 73.6729 55.5762C74.036 54.2188 74.7021 52.9671 75.6143 51.9111C74.7024 50.8552 74.0359 49.6043 73.6729 48.2471C73.3098 46.8901 73.2617 45.4735 73.5244 44.1035C72.2064 43.6456 71.0034 42.8958 70.0098 41.9023C69.0158 40.9086 68.2656 39.7052 67.8076 38.3867C67.234 38.4964 66.6502 38.5531 66.0645 38.5527H66.0625C64.7668 38.549 63.486 38.2757 62.3018 37.75C61.4649 37.3785 60.6907 36.8848 60 36.29Z" fill="white"/>
<path d="M59.9991 41.0005C60.4195 41.0006 60.803 41.2399 60.9874 41.6177L63.5928 46.9585L69.4766 47.7856C69.893 47.8441 70.2401 48.1349 70.3702 48.5347C70.5002 48.9343 70.3909 49.3733 70.0889 49.6655L65.8126 53.7983L66.8458 59.6509C66.9188 60.065 66.7495 60.4847 66.4092 60.7319C66.069 60.979 65.6174 61.0104 65.2462 60.813L59.9981 58.0239L54.751 60.813C54.3797 61.0104 53.9282 60.9792 53.588 60.7319C53.2479 60.4847 53.0784 60.065 53.1514 59.6509L54.1827 53.7983L49.9102 49.6714C49.6078 49.3793 49.4982 48.9404 49.628 48.5405C49.7579 48.1406 50.1042 47.8491 50.5206 47.7905L56.4044 46.9634L59.0098 41.6177L59.088 41.4829C59.2906 41.1837 59.631 41.0006 59.9991 41.0005ZM58.126 48.4536C57.9658 48.7824 57.6523 49.0101 57.2901 49.061L53.0596 49.6548L56.1329 52.6226C56.3959 52.8766 56.5157 53.2449 56.4522 53.605L55.71 57.812L59.4825 55.8071L59.6065 55.7505C59.9012 55.6379 60.2332 55.657 60.5157 55.8071L64.2872 57.812L63.546 53.605C63.4825 53.2452 63.6017 52.8775 63.8643 52.6235L66.9385 49.6499L62.7081 49.0562C62.346 49.0053 62.0325 48.7782 61.8721 48.4497L59.9991 44.6099L58.126 48.4536Z" fill="white"/>
<path d="M23.0849 62.7514C23.5811 62.5092 24.1795 62.7152 24.4218 63.2114C24.7653 63.9146 25.1451 64.6327 25.5615 65.3657C25.8342 65.8458 25.6664 66.4561 25.1865 66.7289C24.7063 67.0017 24.096 66.8339 23.8232 66.3539C23.3877 65.5872 22.988 64.8315 22.6249 64.0883C22.3828 63.5921 22.5888 62.9938 23.0849 62.7514Z" fill="white"/>
<path d="M21.0517 56.3173C21.5914 56.2001 22.124 56.5422 22.2412 57.0819C22.4156 57.885 22.6314 58.68 22.8877 59.4638C23.0593 59.9887 22.773 60.5538 22.248 60.7255C21.7232 60.897 21.158 60.6105 20.9863 60.0858C20.7088 59.2372 20.4759 58.3753 20.2871 57.5057C20.1702 56.9663 20.5124 56.4346 21.0517 56.3173ZM20.9961 47.577C21.5448 47.6385 21.9401 48.1328 21.8789 48.6815C21.8042 49.3492 21.7526 50.02 21.7246 50.6923L21.7236 50.702C21.6808 51.5255 21.6803 52.35 21.7217 53.1708C21.7492 53.7222 21.3249 54.1918 20.7734 54.2196C20.222 54.2473 19.7525 53.8228 19.7246 53.2714C19.6798 52.3826 19.6802 51.4902 19.7265 50.5985H19.7275C19.7576 49.8832 19.8111 49.1692 19.8906 48.4589C19.9522 47.9102 20.4473 47.5156 20.9961 47.577ZM21.0146 42.9745C21.1742 42.4459 21.7321 42.1472 22.2607 42.3065C22.7895 42.4659 23.089 43.0238 22.9297 43.5526C22.7355 44.1967 22.5636 44.8468 22.415 45.5018C22.2928 46.0404 21.7573 46.3779 21.2187 46.2557C20.6803 46.1334 20.3427 45.598 20.4648 45.0595C20.6237 44.359 20.807 43.6633 21.0146 42.9745Z" fill="white"/>
<path d="M22.7243 38.5484C22.9617 38.0498 23.5587 37.8373 24.0573 38.0748C24.5558 38.3122 24.7673 38.9092 24.5299 39.4078C24.181 40.1406 23.8649 40.8824 23.5807 41.6324C23.385 42.1488 22.8071 42.4091 22.2907 42.2134C21.7743 42.0177 21.514 41.4398 21.7096 40.9234C22.0134 40.1216 22.352 39.3301 22.7243 38.5484Z" fill="white"/>
<path d="M29.5859 60.4151C30.0876 60.1842 30.6813 60.4036 30.9121 60.9053C31.2409 61.62 31.6072 62.3404 32.0098 63.0752C32.2749 63.5595 32.0976 64.1673 31.6133 64.4326C31.1291 64.6977 30.5213 64.5202 30.2559 64.0361C29.8345 63.267 29.4469 62.5045 29.0957 61.7412C28.8649 61.2395 29.0843 60.6459 29.5859 60.4151Z" fill="white"/>
<path d="M28.0673 55.0575C28.6092 54.9522 29.1336 55.3057 29.2392 55.8475C29.3678 56.5089 29.5299 57.1651 29.7245 57.8124C29.8834 58.3412 29.5834 58.8985 29.0546 59.0575C28.5258 59.2164 27.9685 58.9164 27.8095 58.3876C27.5957 57.6764 27.4176 56.9559 27.2763 56.2294C27.171 55.6874 27.5253 55.1629 28.0673 55.0575ZM28.1962 47.8339C28.7442 47.9023 29.1328 48.4021 29.0644 48.9501C28.996 49.4977 28.9457 50.0478 28.914 50.5995V50.6102C28.8682 51.2845 28.8562 51.9595 28.8778 52.6327C28.8956 53.1847 28.4621 53.6472 27.9101 53.6649C27.3582 53.6826 26.8966 53.2491 26.8788 52.6972C26.855 51.9573 26.8675 51.2154 26.9179 50.4745H26.9189C26.9532 49.8817 27.0065 49.2904 27.08 48.702C27.1485 48.1541 27.6482 47.7655 28.1962 47.8339ZM28.0536 44.1561C28.2158 43.6283 28.7758 43.3319 29.3036 43.494C29.8316 43.6562 30.1278 44.2161 29.9657 44.744C29.8036 45.2722 29.6595 45.8056 29.5331 46.3427C29.4065 46.8801 28.8675 47.2133 28.33 47.0868C27.7926 46.9601 27.4594 46.4212 27.5859 45.8837C27.7224 45.3033 27.8784 44.7269 28.0536 44.1561Z" fill="white"/>
<path d="M29.6731 40.078C29.9169 39.5824 30.5164 39.3782 31.012 39.6219C31.5075 39.8657 31.7118 40.4652 31.468 40.9608C31.1145 41.6793 30.7935 42.4146 30.5042 43.1678C30.3061 43.6833 29.7277 43.9409 29.2122 43.743C28.6967 43.545 28.4391 42.9665 28.637 42.451C28.9476 41.6423 29.2926 40.8513 29.6731 40.078Z" fill="white"/>
<path d="M95.579 63.2115C95.8214 62.7152 96.4206 62.5091 96.9168 62.7515C97.4127 62.994 97.6179 63.5924 97.3758 64.0884C97.0128 64.8317 96.6131 65.5873 96.1776 66.3541C95.9047 66.834 95.2944 67.0018 94.8143 66.7291C94.3344 66.4562 94.1666 65.8459 94.4393 65.3658C94.8556 64.6328 95.2354 63.9147 95.579 63.2115Z" fill="white"/>
<path d="M97.7616 57.0819C97.8788 56.5422 98.4114 56.2001 98.951 56.3173C99.4906 56.4344 99.8335 56.9662 99.7167 57.5057C99.5279 58.3753 99.294 59.2371 99.0165 60.0858C98.8447 60.6103 98.2804 60.8967 97.7557 60.7255C97.2308 60.5538 96.9444 59.9887 97.1161 59.4637C97.3723 58.68 97.5872 57.8849 97.7616 57.0819ZM99.0077 47.577C99.5562 47.5158 100.051 47.9104 100.112 48.4589C100.192 49.1692 100.246 49.8832 100.276 50.5985C100.323 51.4902 100.324 52.3826 100.279 53.2714C100.251 53.8226 99.7816 54.2471 99.2303 54.2196C98.6789 54.1918 98.2535 53.7222 98.2811 53.1708C98.3225 52.35 98.3219 51.5255 98.2792 50.702V50.6923C98.2511 50.02 98.1996 49.3492 98.1249 48.6815C98.0636 48.1327 98.4589 47.6384 99.0077 47.577ZM97.7421 42.3065C98.2707 42.1472 98.8285 42.446 98.9882 42.9745C99.1958 43.6632 99.3791 44.359 99.538 45.0594C99.6601 45.5981 99.3227 46.1336 98.7841 46.2557C98.2455 46.3777 97.7099 46.0404 97.5878 45.5018C97.4392 44.8469 97.2682 44.1966 97.0741 43.5526C96.9148 43.024 97.2136 42.4661 97.7421 42.3065Z" fill="white"/>
<path d="M95.9418 38.0746C96.4404 37.8375 97.0374 38.0498 97.2748 38.5483C97.647 39.3298 97.9848 40.1216 98.2885 40.9233C98.4842 41.4397 98.2239 42.0176 97.7074 42.2133C97.1911 42.4087 96.614 42.1486 96.4184 41.6322C96.1342 40.8822 95.8172 40.1405 95.4682 39.4076C95.231 38.9091 95.4433 38.312 95.9418 38.0746Z" fill="white"/>
<path d="M89.0879 60.9053C89.3188 60.4036 89.9124 60.1842 90.4141 60.4151C90.9158 60.6459 91.1351 61.2395 90.9043 61.7412C90.5531 62.5045 90.1656 63.267 89.7442 64.0362C89.4787 64.5202 88.8709 64.6978 88.3867 64.4326C87.9025 64.1673 87.7251 63.5595 87.9902 63.0752C88.3928 62.3404 88.7591 61.62 89.0879 60.9053Z" fill="white"/>
<path d="M90.7631 55.8475C90.8687 55.3056 91.3939 54.9521 91.9359 55.0575C92.4777 55.1631 92.8312 55.6875 92.726 56.2294C92.5846 56.956 92.4066 57.6764 92.1928 58.3876C92.0337 58.9165 91.4765 59.2165 90.9476 59.0575C90.4189 58.8985 90.1189 58.3412 90.2777 57.8124C90.4724 57.1651 90.6344 56.5089 90.7631 55.8475ZM91.806 47.8339C92.354 47.7654 92.8537 48.1541 92.9222 48.702C92.9957 49.2904 93.05 49.8817 93.0844 50.4745L93.1146 51.0302C93.1385 51.5861 93.1422 52.1422 93.1244 52.6971C93.1066 53.2491 92.6441 53.6827 92.0922 53.6649C91.5403 53.6471 91.1076 53.1846 91.1254 52.6327C91.147 51.9595 91.1351 51.2845 91.0892 50.6102L91.0883 50.5995C91.0565 50.0478 91.0063 49.4977 90.9379 48.9501C90.8694 48.4021 91.2582 47.9024 91.806 47.8339ZM90.6986 43.494C91.2265 43.3319 91.7864 43.6284 91.9486 44.1561C92.1239 44.7269 92.2798 45.3033 92.4164 45.8837C92.5429 46.4212 92.2098 46.9603 91.6722 47.0868C91.1348 47.2133 90.5968 46.88 90.4701 46.3427C90.3437 45.8056 90.1987 45.2722 90.0365 44.744C89.8744 44.2162 90.1709 43.6563 90.6986 43.494Z" fill="white"/>
<path d="M88.9826 39.6228C89.4777 39.3781 90.0777 39.581 90.3225 40.0759C90.7051 40.8502 91.0514 41.6429 91.3606 42.4529C91.5573 42.9688 91.2983 43.547 90.7824 43.7439C90.2665 43.9406 89.6884 43.6816 89.4914 43.1657C89.2047 42.4145 88.8841 41.6802 88.5295 40.9626C88.2849 40.4676 88.4877 39.8675 88.9826 39.6228Z" fill="white"/>
</g>
</svg>
