<svg width="120" height="120" viewBox="0 0 120 120" fill="none" xmlns="http://www.w3.org/2000/svg">
<mask id="mask0_1395_2272" style="mask-type:luminance" maskUnits="userSpaceOnUse" x="0" y="0" width="120" height="120">
<path d="M120 0H0V120H120V0Z" fill="white"/>
</mask>
<g mask="url(#mask0_1395_2272)">
<path d="M120 60C120 71.8669 116.481 83.4673 109.888 93.3342C103.295 103.201 93.9246 110.892 82.961 115.433C71.9975 119.974 59.9335 121.162 48.2946 118.847C36.6557 116.532 25.9648 110.818 17.5736 102.426C9.18247 94.0353 3.46802 83.3443 1.15291 71.7054C-1.1622 60.0666 0.0259972 48.0026 4.56726 37.039C9.10851 26.0754 16.7989 16.7047 26.6658 10.1118C36.5328 3.51894 48.1331 0 60 0C75.913 0 91.1743 6.32141 102.426 17.5736C113.679 28.8258 120 44.087 120 60Z" fill="#003D5B"/>
<path d="M64.9455 60.6448C65.3749 60.2153 66.0715 60.2146 66.5011 60.6438L77.3322 71.4739L79.4689 73.6184L79.4904 73.6418C80.3163 74.5198 80.7682 75.6846 80.7501 76.8899C80.732 78.0951 80.2456 79.2461 79.3937 80.0989C78.6761 80.8171 77.7466 81.2748 76.7511 81.4133C76.9886 81.9894 77.1108 82.6127 77.1017 83.2473C77.0842 84.4537 76.5974 85.6061 75.7443 86.4592C74.8911 87.3124 73.7388 87.7993 72.5324 87.8166C71.8911 87.8259 71.2619 87.7006 70.6808 87.4582C70.5403 88.4481 70.0844 89.372 69.3703 90.0862C68.5217 90.9346 67.3776 91.4212 66.1779 91.4436C65.5739 91.4549 64.9795 91.348 64.4259 91.135C64.2963 92.1485 63.8369 93.097 63.1076 93.8264C62.2544 94.6795 61.102 95.1664 59.8956 95.1838C58.6892 95.2012 57.5231 94.7474 56.6456 93.9192C56.204 93.5022 56.1839 92.8063 56.6007 92.3645C57.0178 91.9227 57.7136 91.9025 58.1554 92.3196C58.6165 92.7548 59.2294 92.9927 59.8634 92.9836C60.4975 92.9745 61.1035 92.7191 61.5519 92.2707C62.0003 91.8223 62.2556 91.2164 62.2648 90.5823C62.2739 89.9482 62.036 89.3354 61.6007 88.8743C61.1881 88.4372 61.2031 87.7494 61.6339 87.3303C62.0648 86.9115 62.7525 86.9157 63.1779 87.3401L64.4386 88.5989C64.9003 89.0246 65.5087 89.2561 66.1369 89.2444C66.7674 89.2326 67.3686 88.9764 67.8146 88.5305C68.2607 88.0844 68.5167 87.4825 68.5285 86.8518C68.5401 86.2213 68.307 85.611 67.8781 85.1487C67.4703 84.7093 67.4894 84.0236 67.921 83.6077C68.3527 83.1918 69.0381 83.1986 69.4621 83.6223L70.7931 84.9524L70.9728 85.1057C71.4076 85.4428 71.9455 85.6243 72.5001 85.6165C73.1342 85.6073 73.7402 85.3519 74.1886 84.9036C74.6371 84.4551 74.8934 83.8492 74.9025 83.2151C74.9116 82.581 74.6728 81.9682 74.2374 81.5071L72.9103 80.177C72.4864 79.7518 72.4824 79.0649 72.9005 78.634C73.3187 78.2034 74.0049 78.1871 74.4425 78.5979C74.9044 79.0316 75.517 79.269 76.1505 79.259C76.7841 79.2489 77.3892 78.9923 77.8371 78.5442C78.285 78.0958 78.5414 77.4904 78.5509 76.8567C78.5604 76.2256 78.3246 75.6155 77.8937 75.1545L75.7746 73.0276L64.9455 62.2004C64.516 61.771 64.5162 61.0744 64.9455 60.6448Z" fill="white"/>
<path d="M46.341 48.0605C46.7728 47.7083 47.4099 47.7335 47.8126 48.1357L50.5265 50.8486L56.8439 51.7002C57.4459 51.7812 57.8681 52.3345 57.7872 52.9365C57.7062 53.5385 57.1529 53.9608 56.5509 53.8799L49.8654 52.9805C49.6266 52.9483 49.4049 52.8383 49.2345 52.668L47.0353 50.4687L34.7521 62.7519L36.9513 64.9521C37.0394 65.0403 37.1124 65.1434 37.1662 65.2559L40.4064 72.0332C40.6684 72.5812 40.4368 73.2379 39.8888 73.5C39.3407 73.7621 38.6841 73.5305 38.422 72.9824L35.2619 66.374L32.4191 63.5293C31.99 63.0996 31.9907 62.404 32.4201 61.9746L46.2579 48.1367L46.341 48.0605Z" fill="white"/>
<path d="M44.1187 41.957C44.5483 41.5277 45.2443 41.5275 45.6738 41.957L49.8142 46.0974C50.2434 46.5269 50.2434 47.223 49.8142 47.6525L31.9418 65.5249C31.5123 65.9544 30.8163 65.9542 30.3867 65.5249L26.2463 61.3845C25.8167 60.9549 25.8167 60.259 26.2463 59.8294L44.1187 41.957ZM31.1636 63.1916L47.4802 46.875L44.8955 44.2903L28.5789 60.6069L31.1636 63.1916Z" fill="white"/>
<path d="M36.9358 32.8671C37.3654 32.4375 38.0619 32.4375 38.4915 32.8671L46.6262 41.0019C47.0558 41.4314 47.0567 42.1279 46.6272 42.5575L26.845 62.3398C26.6387 62.5461 26.3584 62.662 26.0666 62.662C25.775 62.662 25.4955 62.546 25.2893 62.3398L17.1536 54.204C16.7243 53.7744 16.725 53.0778 17.1545 52.6484C17.5842 52.2191 18.2808 52.2189 18.7102 52.6484L26.0666 60.0068L44.2932 41.7792L36.9358 34.4218C36.5067 33.9923 36.5067 33.2966 36.9358 32.8671Z" fill="white"/>
<path d="M73.4249 47.2766C73.8569 46.9241 74.4948 46.9491 74.8976 47.3518L87.2335 59.6858C87.663 60.1151 87.6626 60.8117 87.2335 61.2414L86.1349 62.341L86.0089 67.4924C86.0018 67.7794 85.8834 68.0527 85.6779 68.2531L79.0382 74.7258C78.609 75.1441 77.9236 75.1421 77.4972 74.7209L63.9913 61.3801H59.4533L54.0324 66.8078C52.7165 68.1234 50.9321 68.8624 49.0714 68.8625C47.2107 68.8625 45.4254 68.1235 44.1095 66.8078L43.5802 66.2776C43.1508 65.8482 43.1502 65.1525 43.5792 64.7229L57.9513 50.3459C58.1273 50.1699 58.3583 50.0595 58.6056 50.0315L72.2033 48.4895L73.3419 47.3528L73.4249 47.2766ZM73.4884 50.3166C73.3124 50.4927 73.0815 50.604 72.8341 50.6321L59.2355 52.1731L45.923 65.4895C46.795 66.2429 47.9113 66.6623 49.0714 66.6623C50.3486 66.6622 51.5735 66.1552 52.4767 65.2522L58.2189 59.5031L58.2999 59.4299C58.4957 59.2693 58.7418 59.18 58.9972 59.1799H64.4435C64.7329 59.1799 65.011 59.2939 65.2169 59.4973L78.2755 72.3967L83.8204 66.9905L83.9464 61.8479C83.9534 61.566 84.0686 61.2974 84.2677 61.0979L84.8995 60.4641L74.1193 49.6848L73.4884 50.3166Z" fill="white"/>
<path d="M41.4658 70.9639C42.62 70.9702 43.7257 71.4311 44.542 72.2471C45.3582 73.0634 45.8198 74.169 45.8262 75.3233C45.8325 76.4776 45.3834 77.588 44.5762 78.4131L41.2412 81.7491C40.419 82.5707 39.304 83.0323 38.1416 83.0323C36.9792 83.0323 35.8642 82.5707 35.042 81.7491C35.0243 81.7314 35.0095 81.7112 34.9932 81.6924C34.202 80.8753 33.7579 79.7828 33.7578 78.6436C33.7578 77.4812 34.2194 76.3663 35.041 75.544L38.376 72.2139C39.201 71.4067 40.3116 70.9578 41.4658 70.9639ZM35.957 78.6436C35.9572 79.2226 36.1874 79.778 36.5967 80.1876C36.6033 80.1942 36.6088 80.2022 36.6152 80.209C37.0232 80.6079 37.5704 80.8321 38.1416 80.8321C38.7206 80.8321 39.2759 80.6025 39.6855 80.1934L43.0117 76.8663C43.4086 76.4562 43.629 75.907 43.626 75.336C43.6228 74.7609 43.393 74.2095 42.9863 73.8028C42.5797 73.3964 42.029 73.1663 41.4541 73.1631C40.8791 73.1601 40.3261 73.3841 39.915 73.7862L36.5957 77.0997C36.1869 77.5093 35.957 78.0649 35.957 78.6436Z" fill="white"/>
<path d="M46.1152 75.5987C47.2695 75.6051 48.3752 76.0657 49.1914 76.8819C50.0076 77.6981 50.4682 78.8038 50.4746 79.9581C50.4809 81.1124 50.0318 82.2228 49.2246 83.0479L44.6309 87.6417C43.8086 88.4633 42.6937 88.9249 41.5312 88.9249C40.4417 88.9248 39.394 88.5196 38.5898 87.7921L38.4316 87.6417C37.61 86.8194 37.1485 85.7044 37.1484 84.5421C37.1484 83.3796 37.61 82.2647 38.4316 81.4424L43.0254 76.8487C43.8505 76.0415 44.9609 75.5924 46.1152 75.5987ZM39.3477 84.5421C39.3477 85.1211 39.5781 85.6763 39.9873 86.086L40.1475 86.2305C40.5362 86.5488 41.0245 86.7256 41.5312 86.7257C42.1103 86.7257 42.6655 86.4952 43.0752 86.086L47.6602 81.501C48.0571 81.091 48.2784 80.5418 48.2754 79.9708C48.2722 79.3957 48.0424 78.8442 47.6357 78.4376C47.2291 78.0309 46.6776 77.8011 46.1025 77.7979C45.5315 77.7949 44.9824 78.0162 44.5723 78.4132L39.9873 82.9981L39.9863 82.9971C39.5772 83.4068 39.3477 83.963 39.3477 84.5421Z" fill="white"/>
<path d="M50.7549 80.2629C51.9036 80.2735 53.0022 80.7347 53.8145 81.5471C54.6266 82.3594 55.0882 83.4579 55.0986 84.6066C55.109 85.7554 54.6675 86.8627 53.8701 87.6896C53.8656 87.6943 53.861 87.6988 53.8564 87.7033L50.5303 91.0305C50.1233 91.4375 49.6402 91.7604 49.1084 91.9807C48.5766 92.2009 48.0063 92.3146 47.4307 92.3146C46.8552 92.3146 46.2855 92.2009 45.7539 91.9807C45.2221 91.7604 44.739 91.4375 44.332 91.0305C43.9248 90.6234 43.6003 90.1395 43.3799 89.6076C43.1596 89.0758 43.0469 88.5055 43.0469 87.9299C43.0469 87.3542 43.1595 86.784 43.3799 86.2521C43.6003 85.7203 43.9239 85.2373 44.3311 84.8303L47.6719 81.4904C48.4989 80.6932 49.6062 80.2523 50.7549 80.2629ZM45.2461 87.9299C45.2461 88.2166 45.3033 88.5009 45.4131 88.7658C45.4954 88.9643 45.6064 89.1491 45.7422 89.3146L45.8867 89.4738L45.8877 89.4748C46.0904 89.6775 46.3308 89.8387 46.5957 89.9484C46.8604 90.0581 47.1441 90.1144 47.4307 90.1144C47.7173 90.1144 48.0017 90.0581 48.2666 89.9484C48.5314 89.8387 48.7719 89.6775 48.9746 89.4748L52.2861 86.1623C52.6833 85.7504 52.9035 85.1993 52.8984 84.6271C52.8933 84.0549 52.6634 83.5075 52.2588 83.1027C51.8541 82.698 51.3067 82.4674 50.7344 82.4621C50.1623 82.4569 49.6112 82.6773 49.1992 83.0744L49.1982 83.0734L45.8867 86.3859C45.684 86.5885 45.5229 86.8292 45.4131 87.0939C45.3033 87.3588 45.2461 87.6432 45.2461 87.9299Z" fill="white"/>
<path d="M57.582 89.2437C57.582 88.6647 57.3527 88.1091 56.9434 87.6997C56.534 87.2903 55.9783 87.0601 55.3994 87.0601C54.8204 87.0601 54.2649 87.2903 53.8555 87.6997L51.7217 89.8335C51.3123 90.2432 51.082 90.7992 51.082 91.3784C51.0821 91.9574 51.3124 92.5127 51.7217 92.9224L51.8818 93.0669C52.2705 93.3851 52.7589 93.561 53.2656 93.561C53.8446 93.561 54.3999 93.3315 54.8096 92.9224L56.9424 90.7876C57.3517 90.3782 57.582 89.8226 57.582 89.2437ZM59.7822 89.2437C59.7822 90.4061 59.321 91.5213 58.499 92.3433L58.498 92.3423L56.3652 94.478C55.543 95.2997 54.428 95.7612 53.2656 95.7612C52.1761 95.7612 51.1284 95.3558 50.3242 94.6284L50.166 94.478C49.3444 93.6559 48.8829 92.5407 48.8828 91.3784C48.8828 90.216 49.3444 89.1011 50.166 88.2788L52.2998 86.144C53.1218 85.3221 54.237 84.8608 55.3994 84.8608C56.5618 84.8609 57.6771 85.3221 58.499 86.144C59.3209 86.966 59.7822 88.0813 59.7822 89.2437Z" fill="white"/>
<path d="M76.332 41.956C76.7616 41.5268 77.4577 41.5266 77.8871 41.956L95.7595 59.8284C96.1887 60.2579 96.1887 60.954 95.7595 61.3835L91.6191 65.524C91.1896 65.9535 90.4936 65.9533 90.064 65.524L72.1916 47.6516C71.762 47.222 71.762 46.5261 72.1916 46.0965L76.332 41.956ZM90.8409 63.1907L93.4255 60.606L77.1089 44.2894L74.5242 46.874L90.8409 63.1907Z" fill="white"/>
<path d="M83.5092 32.866C83.9388 32.4367 84.6354 32.4374 85.0648 32.8669C85.4941 33.2966 85.4943 33.9932 85.0648 34.4226L77.7064 41.7791L95.9291 60.0056L103.287 52.6482C103.716 52.2187 104.413 52.219 104.842 52.6482C105.272 53.0778 105.272 53.7743 104.842 54.2039L96.7074 62.3386C96.5012 62.5448 96.2217 62.6608 95.9301 62.6609C95.6383 62.6609 95.358 62.5449 95.1517 62.3386L75.3724 42.5574C74.943 42.1278 74.9438 41.4312 75.3734 41.0017L83.5092 32.866Z" fill="white"/>
<path d="M60.1875 35.7471V33.2471C60.1875 32.6948 60.6352 32.2471 61.1875 32.2471C61.7398 32.2471 62.1875 32.6948 62.1875 33.2471V35.7471C62.1875 36.2994 61.7398 36.7471 61.1875 36.7471C60.6352 36.7471 60.1875 36.2994 60.1875 35.7471Z" fill="white"/>
<path d="M60.1875 29.834V27.334C60.1875 26.7817 60.6352 26.334 61.1875 26.334C61.7398 26.334 62.1875 26.7817 62.1875 27.334V29.834C62.1875 30.3863 61.7398 30.834 61.1875 30.834C60.6352 30.834 60.1875 30.3863 60.1875 29.834Z" fill="white"/>
<path d="M67.4231 34.0569C67.6992 33.5786 68.311 33.4146 68.7893 33.6907C69.2676 33.9668 69.4316 34.5786 69.1555 35.0569L67.9055 37.2219C67.6294 37.7002 67.0176 37.8642 66.5393 37.5882C66.0611 37.312 65.8971 36.7002 66.1731 36.2219L67.4231 34.0569Z" fill="white"/>
<path d="M70.3762 28.9373C70.6524 28.459 71.2642 28.295 71.7424 28.5711C72.2207 28.8472 72.3847 29.459 72.1087 29.9373L70.8587 32.1023C70.5825 32.5806 69.9707 32.7446 69.4924 32.4685C69.0142 32.1924 68.8502 31.5806 69.1262 31.1023L70.3762 28.9373Z" fill="white"/>
<path d="M53.5823 33.6907C54.0606 33.4146 54.6724 33.5786 54.9485 34.0569L56.1985 36.2219C56.4746 36.7002 56.3105 37.312 55.8323 37.5882C55.354 37.8642 54.7422 37.7002 54.4661 37.2219L53.2161 35.0569C52.94 34.5786 53.104 33.9668 53.5823 33.6907Z" fill="white"/>
<path d="M50.6253 28.5711C51.1035 28.295 51.7153 28.459 51.9915 28.9373L53.2415 31.1023C53.5175 31.5806 53.3535 32.1924 52.8753 32.4685C52.397 32.7446 51.7852 32.5806 51.5091 32.1023L50.2591 29.9373C49.983 29.459 50.147 28.8472 50.6253 28.5711Z" fill="white"/>
</g>
</svg>
