<svg width="120" height="120" viewBox="0 0 120 120" fill="none" xmlns="http://www.w3.org/2000/svg">
<g clip-path="url(#clip0_554_4841)">
<path d="M35.0586 75.2329V57.6121C35.0586 40.488 50.0463 26.6265 68.5283 26.6265C87.0104 26.6265 101.998 40.5046 101.998 57.6121V85.5504C101.998 89.8729 98.2222 93.3838 93.552 93.3838H75.5005" stroke="#173C58" stroke-width="3" stroke-linecap="round" stroke-linejoin="round"/>
<path d="M47.3468 54.6973H38.1555C36.4451 54.6973 35.0586 56.0838 35.0586 57.7942V74.8851C35.0586 76.5955 36.4451 77.982 38.1555 77.982H47.3468C49.0572 77.982 50.4437 76.5955 50.4437 74.8851V57.7942C50.4437 56.0838 49.0572 54.6973 47.3468 54.6973Z" stroke="#173C58" stroke-width="3" stroke-linecap="round" stroke-linejoin="round"/>
<path d="M98.8859 54.6973H89.6946C87.9842 54.6973 86.5977 56.0838 86.5977 57.7942V74.8851C86.5977 76.5955 87.9842 77.982 89.6946 77.982H98.8859C100.596 77.982 101.983 76.5955 101.983 74.8851V57.7942C101.983 56.0838 100.596 54.6973 98.8859 54.6973Z" stroke="#173C58" stroke-width="3" stroke-linecap="round" stroke-linejoin="round"/>
<path d="M8.71094 64.3691L16.0971 56.9829L23.4171 64.3029" stroke="#25E2CC" stroke-width="7" stroke-linecap="round" stroke-linejoin="round"/>
<path d="M16.0967 56.9829C16.0967 56.9829 11.9895 95.1394 29.6767 93.3011" stroke="#25E2CC" stroke-width="7" stroke-linecap="round" stroke-linejoin="round"/>
</g>
<defs>
<clipPath id="clip0_554_4841">
<rect width="120" height="120" fill="white"/>
</clipPath>
</defs>
</svg>
