<svg width="120" height="120" viewBox="0 0 120 120" fill="none" xmlns="http://www.w3.org/2000/svg">
<mask id="mask0_1395_2334" style="mask-type:luminance" maskUnits="userSpaceOnUse" x="0" y="0" width="120" height="120">
<path d="M120 0H0V120H120V0Z" fill="white"/>
</mask>
<g mask="url(#mask0_1395_2334)">
<path d="M120 60C120 71.8669 116.481 83.4673 109.888 93.3342C103.295 103.201 93.9246 110.892 82.961 115.433C71.9975 119.974 59.9335 121.162 48.2946 118.847C36.6557 116.532 25.9648 110.818 17.5736 102.426C9.18247 94.0353 3.46802 83.3443 1.15291 71.7054C-1.1622 60.0666 0.0259972 48.0026 4.56726 37.039C9.10851 26.0754 16.7989 16.7047 26.6658 10.1118C36.5328 3.51894 48.1331 0 60 0C75.913 0 91.1743 6.32141 102.426 17.5736C113.679 28.8258 120 44.087 120 60Z" fill="#003D5B"/>
<path d="M41.6875 37.5083V31.7397H35.832V44.3315C35.8318 44.9389 35.3398 45.4312 34.7324 45.4312C34.125 45.4312 33.633 44.9389 33.6328 44.3315V30.6401C33.6328 30.0326 34.1249 29.5405 34.7324 29.5405H42.7871C43.3946 29.5405 43.8877 30.0326 43.8877 30.6401V37.5083C43.8876 38.1157 43.3946 38.6079 42.7871 38.6079C42.1798 38.6077 41.6876 38.1156 41.6875 37.5083Z" fill="white"/>
<path d="M91.9785 77.5415C92.586 77.5415 93.0781 78.0336 93.0781 78.6411V83.8667C93.0781 84.4742 92.586 84.9673 91.9785 84.9673H28.0215C27.414 84.9673 26.9219 84.4742 26.9219 83.8667V78.6411C26.9219 78.0336 27.414 77.5415 28.0215 77.5415H91.9785ZM29.1211 82.7671H90.8789V79.7407H29.1211V82.7671Z" fill="white"/>
<path d="M59 96.1221V95.4912C59 95.1375 59.1837 94.8262 59.4609 94.6484C59.1841 94.4707 59.0002 94.161 59 93.8076V92.5449C59 92.3052 59.085 92.0853 59.2256 91.9131C59.0851 91.741 59.0001 91.5217 59 91.2822V89.5986C59 89.359 59.085 89.139 59.2256 88.9668C59.0851 88.7947 59.0001 88.5754 59 88.3359V87.7041C59 87.1518 59.4477 86.7041 60 86.7041C60.5523 86.7041 61 87.1518 61 87.7041V88.3359C60.9999 88.5754 60.9149 88.7947 60.7744 88.9668C60.915 89.139 61 89.359 61 89.5986V91.2822C60.9999 91.5217 60.9149 91.741 60.7744 91.9131C60.915 92.0853 61 92.3052 61 92.5449V93.8076C60.9998 94.161 60.8159 94.4707 60.5391 94.6484C60.8163 94.8262 61 95.1375 61 95.4912V96.1221C61 96.6744 60.5523 97.1221 60 97.1221C59.4477 97.1221 59 96.6744 59 96.1221Z" fill="white"/>
<path d="M49.0619 87.1698C49.357 86.703 49.9749 86.5632 50.4418 86.8583C50.9086 87.1534 51.0474 87.7713 50.7523 88.2382L50.3949 88.8036C50.1866 89.1332 49.8178 89.2981 49.4545 89.2636C49.6418 89.577 49.6502 89.9817 49.4418 90.3114L48.6801 91.5175C48.5424 91.7353 48.3339 91.8799 48.1039 91.9442C48.1446 92.1797 48.103 92.4304 47.9652 92.6483L47.0121 94.1561C46.8627 94.3923 46.6305 94.543 46.3773 94.5975C46.437 94.85 46.3999 95.1256 46.2504 95.3622L45.893 95.9276C45.5979 96.3944 44.9799 96.5332 44.5131 96.2382C44.0462 95.9431 43.9065 95.3251 44.2016 94.8583L44.559 94.2929C44.7083 94.0567 44.9407 93.9051 45.1937 93.8505C45.1344 93.5983 45.1723 93.3231 45.3217 93.0868L46.2748 91.58C46.4122 91.3625 46.6195 91.2158 46.849 91.1513C46.8089 90.9163 46.8523 90.6665 46.9896 90.4491L47.7514 89.2431C47.9596 88.9136 48.3287 88.7478 48.6918 88.7821C48.505 88.4689 48.4964 88.0647 48.7045 87.7352L49.0619 87.1698Z" fill="white"/>
<path d="M69.5598 86.8587C70.0267 86.5638 70.6447 86.7034 70.9397 87.1702L71.2971 87.7356C71.4462 87.9717 71.4833 88.2463 71.4241 88.4983C71.6775 88.5529 71.9094 88.7053 72.0589 88.9417L73.012 90.4495C73.1493 90.6669 73.1909 90.9166 73.1507 91.1516C73.3808 91.2159 73.5891 91.3624 73.7268 91.5803L74.4885 92.7864C74.6969 93.116 74.6883 93.5199 74.5012 93.8333C74.8644 93.7987 75.2333 93.9639 75.4417 94.2932L75.7991 94.8587C76.0941 95.3254 75.9552 95.9434 75.4885 96.2385C75.0218 96.5336 74.4038 96.3947 74.1087 95.928L73.7512 95.3626C73.5429 95.033 73.5515 94.6281 73.7385 94.3147C73.3754 94.3491 73.0063 94.1842 72.7981 93.8548L72.0364 92.6487C71.8987 92.4309 71.8552 92.18 71.8958 91.9446C71.6664 91.88 71.4589 91.7351 71.3216 91.5178L70.3684 90.01C70.219 89.7736 70.181 89.4986 70.2405 89.2464C69.9874 89.1917 69.755 89.0402 69.6057 88.804L69.2483 88.2385C68.9534 87.7717 69.0931 87.1537 69.5598 86.8587Z" fill="white"/>
<path d="M87.6121 93.4924C87.9626 93.0659 88.5926 93.0043 89.0193 93.3547L89.5652 93.803C89.9916 94.1535 90.0532 94.7835 89.7029 95.2102C89.3524 95.6368 88.7224 95.6983 88.2956 95.3479L87.7497 94.8997C87.3232 94.5491 87.2617 93.9192 87.6121 93.4924ZM79.7898 87.0696C80.1403 86.643 80.7703 86.5815 81.197 86.9319L81.7429 87.3791C82.0069 87.5959 82.1297 87.9201 82.1033 88.2366C82.4089 88.1485 82.7519 88.2079 83.0164 88.425L84.8347 89.9192C85.0476 90.094 85.1696 90.338 85.1951 90.592C85.4494 90.5673 85.7134 90.6398 85.9265 90.8147L87.1999 91.8606C87.6267 92.211 87.6887 92.841 87.3386 93.2678C86.9881 93.6946 86.3572 93.757 85.9304 93.4065L84.657 92.3606C84.4441 92.1856 84.3219 91.9409 84.2966 91.6868C84.0424 91.7113 83.7791 91.639 83.5662 91.4641L81.7468 89.9709C81.4825 89.7539 81.3576 89.4294 81.3845 89.1125C81.0792 89.2002 80.7375 89.1419 80.4734 88.925L79.9275 88.4768C79.5009 88.1263 79.4394 87.4963 79.7898 87.0696Z" fill="white"/>
<path d="M36.4382 88.8733C36.865 88.5228 37.4959 88.5852 37.8464 89.012C38.1965 89.4388 38.1344 90.0689 37.7077 90.4192L36.4343 91.4641C36.2211 91.6392 35.9573 91.7116 35.7029 91.6868C35.6776 91.9411 35.5556 92.1856 35.3425 92.3606L33.5241 93.8548C33.2597 94.0719 32.9168 94.1305 32.6111 94.0423C32.6378 94.3589 32.5147 94.6827 32.2507 94.8997L31.7048 95.3479C31.2781 95.6983 30.6481 95.6367 30.2976 95.2102C29.9472 94.7835 30.0088 94.1535 30.4353 93.803L30.9812 93.3548C31.2452 93.138 31.587 93.0787 31.8923 93.1663C31.8657 92.8497 31.9905 92.5257 32.2546 92.3089L34.0739 90.8147C34.2868 90.6401 34.5504 90.5675 34.8044 90.5921C34.8298 90.3382 34.9521 90.094 35.1648 89.9192L36.4382 88.8733ZM38.8034 86.9319C39.2302 86.5815 39.8602 86.643 40.2107 87.0696C40.561 87.4963 40.4995 88.1263 40.073 88.4768L39.5271 88.9251C39.1004 89.2754 38.4704 89.2139 38.1198 88.7874C37.7694 88.3605 37.8307 87.7297 38.2575 87.3792L38.8034 86.9319Z" fill="white"/>
<path d="M59.9947 23.1909C61.01 23.1909 61.9924 23.552 62.7652 24.2104L63.5309 24.8628L92.0025 49.0718C92.465 49.4651 92.5213 50.1587 92.1285 50.6216L88.191 55.2573L88.1891 55.2603L88.1881 55.2593L88.0182 55.4595C87.6242 55.9202 86.9313 55.976 86.4693 55.5835L60.9801 33.9185L60.9781 33.9165L59.9957 33.0767L34.0123 55.1763L33.5357 55.5845C33.3138 55.7743 33.0252 55.8682 32.734 55.8452C32.443 55.8222 32.1733 55.6845 31.984 55.4624L27.8609 50.6235C27.6716 50.4013 27.5778 50.1128 27.6012 49.8218C27.6246 49.5308 27.7626 49.2609 27.985 49.0718L57.2252 24.2095C57.9979 23.5516 58.9799 23.1909 59.9947 23.1909ZM59.9947 25.3901C59.5023 25.3902 59.0258 25.5659 58.651 25.8853L58.65 25.8862L30.2486 50.0347L32.944 53.1978L59.2848 30.7935L59.3648 30.7319C59.7719 30.4449 60.3274 30.4654 60.7125 30.7944L62.4078 32.2437L87.0553 53.1938L89.7398 50.0347L61.3385 25.8853C60.9636 25.5659 60.4872 25.3901 59.9947 25.3901Z" fill="white"/>
<path d="M44.4248 24.1382C45.0323 24.1382 45.5244 24.6303 45.5244 25.2378V30.5376C45.5244 31.1451 45.0323 31.6382 44.4248 31.6382H32.7559C32.1483 31.6382 31.6562 31.1451 31.6562 30.5376V25.2378C31.6562 24.6303 32.1483 24.1382 32.7559 24.1382H44.4248ZM33.8555 29.438H43.3252V26.3374H33.8555V29.438Z" fill="white"/>
<path d="M62.5147 44.8291C62.4572 44.251 62.2015 43.7074 61.7871 43.293C61.3727 42.8786 60.8291 42.6229 60.251 42.5654L60.001 42.5527C59.5018 42.5529 59.0137 42.7011 58.5986 42.9785C58.1835 43.256 57.86 43.651 57.669 44.1123C57.478 44.5736 57.428 45.0816 57.5254 45.5713C57.6229 46.0609 57.8638 46.5103 58.2168 46.8633C58.5698 47.2163 59.0192 47.4572 59.5088 47.5547C59.9985 47.6521 60.5065 47.6021 60.9678 47.4111C61.4291 47.2201 61.8241 46.8966 62.1016 46.4814C62.379 46.0664 62.5272 45.5783 62.5274 45.0791L62.5147 44.8291ZM64.7266 45.0791C64.7263 46.0135 64.449 46.9273 63.9297 47.7041C63.4105 48.4808 62.6727 49.0859 61.8096 49.4434C60.9463 49.8008 59.9965 49.8942 59.0801 49.7119C58.1637 49.5296 57.3219 49.0797 56.6611 48.4189C56.0004 47.7582 55.5505 46.9164 55.3682 46C55.1859 45.0836 55.2793 44.1338 55.6367 43.2705C55.9942 42.4073 56.5993 41.6696 57.376 41.1504C58.1528 40.6311 59.0666 40.3538 60.001 40.3535C61.2544 40.3535 62.4565 40.851 63.3428 41.7373C64.2291 42.6236 64.7266 43.8257 64.7266 45.0791Z" fill="white"/>
<path d="M49.7295 53.6494C50.337 53.6494 50.8291 54.1415 50.8291 54.749V65.5127C50.8291 66.1202 50.337 66.6133 49.7295 66.6133H42.5645C41.9569 66.6133 41.4648 66.1202 41.4648 65.5127V54.749C41.4648 54.1415 41.9569 53.6494 42.5645 53.6494H49.7295ZM43.6641 64.4131H48.6299V55.8486H43.6641V64.4131Z" fill="white"/>
<path d="M77.4365 53.6494C78.044 53.6494 78.5361 54.1415 78.5361 54.749V65.5127C78.5361 66.1202 78.044 66.6133 77.4365 66.6133H70.2715C69.664 66.6133 69.1719 66.1202 69.1719 65.5127V54.749C69.1719 54.1415 69.664 53.6494 70.2715 53.6494H77.4365ZM71.3711 64.4131H76.3369V55.8486H71.3711V64.4131Z" fill="white"/>
<path d="M65.667 53.6494C66.2745 53.6494 66.7666 54.1415 66.7666 54.749V78.6396C66.7666 79.2472 66.2745 79.7402 65.667 79.7402H54.3301C53.7226 79.7402 53.2305 79.2472 53.2305 78.6396V54.749C53.2305 54.1415 53.7226 53.6494 54.3301 53.6494H65.667ZM55.4297 77.54H64.5674V55.8486H55.4297V77.54Z" fill="white"/>
<path d="M59.3643 30.868C59.7705 30.5815 60.3248 30.6021 60.71 30.9295L85.9824 52.4227C86.228 52.6317 86.3691 52.9381 86.3691 53.2606V78.5535C86.3691 79.161 85.877 79.6531 85.2695 79.6531H34.7246C34.1171 79.6531 33.6251 79.161 33.625 78.5535V53.2606C33.625 52.9381 33.7661 52.6317 34.0117 52.4227L59.2852 30.9295L59.3643 30.868ZM35.8242 53.7694V77.4529H84.1699V53.7694L59.9971 33.2108L35.8242 53.7694Z" fill="white"/>
</g>
</svg>
