<svg id="icon" xmlns="http://www.w3.org/2000/svg" width="14.832" height="14.832"><defs><style>.cls-1{fill:#fff}</style></defs><path id="패스_845300" data-name="패스 845300" class="cls-1" d="M20.309 17.837a2.472 2.472 0 1 0 0 4.944 2.472 2.472 0 0 0 0-4.944" transform="translate(-12.893 -12.893)"/><path id="패스_845301" data-name="패스 845301" class="cls-1" d="M28.3 17.871a5.505 5.505 0 0 0-.345-1.8 3.786 3.786 0 0 0-2.168-2.17 5.452 5.452 0 0 0-1.8-.345c-.792-.037-1.044-.043-3.058-.043s-2.266.009-3.058.045a5.46 5.46 0 0 0-1.8.344 3.778 3.778 0 0 0-2.171 2.172 5.474 5.474 0 0 0-.344 1.8c-.038.788-.045 1.039-.045 3.054s.009 2.266.045 3.058a5.468 5.468 0 0 0 .344 1.8 3.785 3.785 0 0 0 2.173 2.17 5.452 5.452 0 0 0 1.8.345c.789.037 1.04.045 3.054.045s2.266-.01 3.058-.045a5.511 5.511 0 0 0 1.8-.345 3.79 3.79 0 0 0 2.168-2.168 5.446 5.446 0 0 0 .345-1.8c.037-.792.045-1.044.045-3.058s-.009-2.267-.045-3.058m-3.563 3.058a3.809 3.809 0 1 1-3.809-3.809 3.809 3.809 0 0 1 3.811 3.807Zm.151-3.068a.89.89 0 1 1 .889-.89.89.89 0 0 1-.889.89" transform="translate(-13.512 -13.512)"/></svg>