<svg xmlns="http://www.w3.org/2000/svg" width="18.151" height="12.703"><path data-name="패스 845295" d="M168.734 20.909a23.642 23.642 0 0 1-.378 4.369 2.274 2.274 0 0 1-1.606 1.6 54.413 54.413 0 0 1-7.091.378 54.412 54.412 0 0 1-7.091-.378 2.27 2.27 0 0 1-1.6-1.6 25.318 25.318 0 0 1 0-8.738 2.274 2.274 0 0 1 1.6-1.6 66.693 66.693 0 0 1 14.183 0 2.278 2.278 0 0 1 1.606 1.6 23.74 23.74 0 0 1 .378 4.369m-10.891 2.722 4.716-2.722-4.716-2.722Z" transform="translate(-150.584 -14.557)" style="fill:#fff"/></svg>