<svg data-name="그룹 467027" xmlns="http://www.w3.org/2000/svg" width="16.848" height="13.69"><defs><clipPath id="a"><path data-name="사각형 348654" style="fill:none" d="M0 0h16.848v13.69H0z"/></clipPath></defs><g data-name="그룹 467026" style="clip-path:url(#a)"><path data-name="패스 845441" d="M15.123 3.408c.01.149.01.3.01.447A9.768 9.768 0 0 1 5.3 13.69 9.785 9.785 0 0 1 0 12.138a7.031 7.031 0 0 0 .823.05 6.941 6.941 0 0 0 4.293-1.483A3.461 3.461 0 0 1 1.886 8.3a3.445 3.445 0 0 0 1.561-.06A3.457 3.457 0 0 1 .674 4.857v-.043a3.435 3.435 0 0 0 1.569.433A3.461 3.461 0 0 1 1.173.631 9.81 9.81 0 0 0 8.3 4.242a3.46 3.46 0 0 1 5.89-3.153 6.936 6.936 0 0 0 2.2-.839 3.469 3.469 0 0 1-1.519 1.912 6.874 6.874 0 0 0 1.985-.544 7.022 7.022 0 0 1-1.725 1.791" style="fill:#fff"/></g></svg>