<svg id="icon" xmlns="http://www.w3.org/2000/svg" width="14.211" height="14.218"><defs><style>.cls-1{fill:#fff;fill-rule:evenodd}</style></defs><path id="패스_845288" data-name="패스 845288" class="cls-1" d="M18.251 17.273h2.636v1.345h.03a3.581 3.581 0 0 1 3.056-1.462c2.818 0 3.6 1.5 3.6 4.269V26.6h-2.8v-4.665c0-1.241-.5-2.329-1.654-2.329-1.406 0-2.077.951-2.077 2.515V26.6h-2.8Z" transform="translate(-13.366 -12.382)"/><path id="사각형_348408" data-name="사각형 348408" transform="translate(.347 4.89)" style="fill:#fff" d="M0 0h2.797v9.327H0z"/><path id="패스_845289" data-name="패스 845289" class="cls-1" d="M17.685 14.936a1.748 1.748 0 1 1-1.749-1.749 1.748 1.748 0 0 1 1.749 1.749" transform="translate(-14.188 -13.187)"/></svg>