<svg width="199" height="43" viewBox="0 0 199 43" fill="none" xmlns="http://www.w3.org/2000/svg">
<path d="M159.155 14.494H152.661C151.8 14.494 150.974 14.1519 150.365 13.543C149.756 12.934 149.414 12.1082 149.414 11.247C149.414 10.3858 149.756 9.55995 150.365 8.95102C150.974 8.34209 151.8 8 152.661 8H159.155C160.016 8 160.842 8.34209 161.451 8.95102C162.06 9.55995 162.402 10.3858 162.402 11.247C162.402 12.1082 162.06 12.934 161.451 13.543C160.842 14.1519 160.016 14.494 159.155 14.494Z" fill="#25E2CC"/>
<path d="M12 25.8931C12 20.8361 16.113 16.8741 21.547 16.8741C23.8268 16.7972 26.0684 17.4738 27.925 18.7991L25.925 22.5351C24.8059 21.761 23.4747 21.3523 22.114 21.3651C19.095 21.3651 17.057 23.2521 17.057 25.8931C17.057 28.5341 19.057 30.4211 22.038 30.4211C23.4247 30.4511 24.7853 30.0416 25.925 29.2511L27.887 32.9511C26.0402 34.2712 23.8167 34.9603 21.547 34.9161C16 34.9161 12 30.9871 12 25.8931Z" fill="currentColor"/>
<path d="M28.7441 25.8931C28.6681 24.0196 29.1541 22.1661 30.1397 20.571C31.1253 18.9759 32.5654 17.712 34.275 16.9418C35.9845 16.1715 37.8854 15.9302 39.7331 16.2487C41.5809 16.5672 43.2913 17.4311 44.6443 18.7292C45.9972 20.0274 46.9311 21.7005 47.3258 23.5335C47.7204 25.3666 47.5579 27.2758 46.859 29.0157C46.1601 30.7556 44.9568 32.2468 43.4038 33.2975C41.8508 34.3483 40.0191 34.9105 38.1441 34.9121C36.931 34.9513 35.7224 34.7476 34.5892 34.3131C33.456 33.8785 32.4211 33.2218 31.5453 32.3815C30.6695 31.5413 29.9706 30.5344 29.4895 29.4201C29.0085 28.3059 28.755 27.1067 28.7441 25.8931ZM42.5561 25.8931C42.5342 25.0244 42.2567 24.1815 41.7582 23.4699C41.2596 22.7582 40.5623 22.2094 39.7534 21.8921C38.9445 21.5748 38.06 21.5031 37.2106 21.6861C36.3611 21.869 35.5845 22.2984 34.9779 22.9205C34.3714 23.5426 33.9617 24.3298 33.8003 25.1836C33.6389 26.0374 33.7329 26.9198 34.0706 27.7204C34.4082 28.521 34.9745 29.2043 35.6985 29.6846C36.4225 30.165 37.2722 30.4212 38.1411 30.4211C38.7302 30.4203 39.3133 30.3018 39.856 30.0726C40.3987 29.8433 40.8901 29.508 41.3014 29.0861C41.7127 28.6643 42.0356 28.1646 42.251 27.6162C42.4665 27.0679 42.5702 26.482 42.5561 25.8931Z" fill="currentColor"/>
<path d="M67.7907 24.9872V34.5722H62.8477V25.6672C62.8477 23.0252 61.3007 21.3272 59.0357 21.3272C58.4894 21.316 57.9467 21.4178 57.4417 21.6263C56.9366 21.8349 56.4802 22.1456 56.101 22.539C55.7218 22.9324 55.428 23.3999 55.2381 23.9123C55.0483 24.4246 54.9664 24.9707 54.9977 25.5162V34.5732H50.0547V17.2162H53.6017L53.7907 20.1602C54.4605 19.0902 55.4064 18.2206 56.5288 17.6428C57.6513 17.0651 58.9086 16.8006 60.1687 16.8772C64.8097 16.8772 67.7917 20.0472 67.7917 24.9902" fill="currentColor"/>
<path d="M70.082 25.8931C70.082 20.8361 74.195 16.8741 79.629 16.8741C81.9088 16.7972 84.1504 17.4738 86.007 18.7991L84.007 22.5351C82.8879 21.7611 81.5567 21.3524 80.196 21.3651C77.177 21.3651 75.139 23.2521 75.139 25.8931C75.139 28.5341 77.139 30.4211 80.12 30.4211C81.5067 30.4511 82.8673 30.0416 84.007 29.2511L85.969 32.9511C84.1218 34.2701 81.8984 34.9582 79.629 34.9131C74.082 34.9131 70.082 30.9871 70.082 25.8931Z" fill="currentColor"/>
<path d="M104.486 27.2519H91.7312C92.0848 28.3331 92.7891 29.2654 93.7325 29.9011C94.6758 30.5367 95.8044 30.8393 96.9392 30.7609C98.6425 30.778 100.288 30.1438 101.539 28.9879L103.577 32.5349C101.577 34.2104 99.0127 35.0608 96.4072 34.9129C90.8982 34.9129 86.8602 30.9879 86.8602 25.8939C86.83 24.6981 87.0438 23.5086 87.4887 22.3981C87.9336 21.2877 88.6003 20.2796 89.448 19.4355C90.2956 18.5914 91.3065 17.929 92.4188 17.4887C93.5311 17.0485 94.7215 16.8396 95.9172 16.8749C101.162 16.8749 104.559 20.7239 104.559 25.9319C104.559 26.5739 104.484 27.2529 104.484 27.2529M91.7672 24.0829H99.8432C99.7534 23.1638 99.3173 22.3132 98.6236 21.7036C97.9299 21.094 97.0303 20.7709 96.1072 20.7999C95.1119 20.743 94.1287 21.042 93.3336 21.6435C92.5385 22.2449 91.9833 23.1096 91.7672 24.0829Z" fill="currentColor"/>
<path d="M124.778 24.987V34.572H119.834V25.667C119.834 23.025 118.287 21.327 116.022 21.327C115.476 21.3157 114.933 21.4176 114.428 21.6261C113.923 21.8346 113.467 22.1454 113.087 22.5387C112.708 22.9321 112.414 23.3997 112.224 23.912C112.035 24.4244 111.953 24.9705 111.984 25.516V34.573H107.041V17.216H110.588L110.777 20.16C111.447 19.09 112.393 18.2203 113.515 17.6426C114.638 17.0648 115.895 16.8004 117.155 16.877C121.796 16.877 124.778 20.047 124.778 24.99" fill="currentColor"/>
<path d="M154.394 17.0251L153.979 21.9311C153.43 21.698 152.839 21.5822 152.243 21.5911C151.662 21.5455 151.079 21.623 150.531 21.8186C149.983 22.0142 149.482 22.3234 149.061 22.726C148.641 23.1285 148.31 23.6154 148.091 24.1546C147.872 24.6939 147.769 25.2733 147.79 25.8551V34.5721H142.846V17.2171H146.959L147.148 20.6171C147.748 18.5041 149.903 16.8811 152.884 16.8811C153.391 16.8713 153.898 16.922 154.394 17.0321" fill="currentColor"/>
<path d="M161.627 17.2139H156.684V34.5729H161.627V17.2139Z" fill="currentColor"/>
<path d="M176.246 34.5719L172.623 29.0619L169 34.5719H163.34L169.567 25.8549L163.642 17.2129H169.378L172.736 22.5339L176.246 17.2129H181.869L175.718 25.7439L182.058 34.5739L176.246 34.5719Z" fill="currentColor"/>
<path d="M139.204 29.517C138.362 30.108 137.364 30.4362 136.336 30.46C134.562 30.46 133.279 29.705 133.279 27.667V21.367H139.732V17.214H133.284V11.252H128.491V17.222H125.783C127.507 19.4377 128.411 22.1822 128.341 24.989V28.159C128.341 32.498 130.941 34.914 135.209 34.914C137.251 34.9943 139.259 34.3825 140.909 33.178L139.204 29.517Z" fill="currentColor"/>
<path d="M162.404 11.247C162.404 11.8892 162.213 12.517 161.857 13.0509C161.5 13.5849 160.993 14.0011 160.399 14.2468C159.806 14.4926 159.153 14.5569 158.523 14.4316C157.894 14.3063 157.315 13.9971 156.861 13.543C156.407 13.0889 156.098 12.5103 155.972 11.8805C155.847 11.2506 155.911 10.5977 156.157 10.0044C156.403 9.41112 156.819 8.904 157.353 8.54722C157.887 8.19043 158.515 8 159.157 8C160.018 8 160.844 8.34209 161.453 8.95102C162.062 9.55995 162.404 10.3858 162.404 11.247Z" fill="currentColor"/>
<path d="M182.934 17.5749H183.547V19.1299H183.991V17.5749H184.604V17.2139H182.934V17.5749Z" fill="currentColor"/>
<path d="M187 19.1291L186.995 17.2131H186.631L185.925 18.4031L185.207 17.2131H184.84V19.1291H185.256V18.0041L185.817 18.9271H186.017L186.581 17.9801V19.1301L187 19.1291Z" fill="currentColor"/>
</svg>
