<svg width="632" height="619" viewBox="0 0 632 619" fill="none" xmlns="http://www.w3.org/2000/svg">
<path d="M0.644456 315.35C0.64446 231.12 33.4445 151.92 93.0145 92.36C152.584 32.8 231.764 -1.74666e-05 316.004 -1.37844e-05C400.244 -1.01021e-05 479.424 32.8 538.984 92.37C598.544 151.94 631.354 231.12 631.354 315.35C631.354 384.35 609.464 449.89 568.064 504.87C548.164 531.3 524.354 554.35 497.304 573.38C469.864 592.69 439.734 607.41 407.734 617.12C389.234 622.74 369.694 612.29 364.074 593.8C358.464 575.3 368.904 555.76 387.394 550.14C436.674 535.18 480.974 504.14 512.144 462.76C544.334 420.01 561.354 369.04 561.354 315.35C561.354 249.81 535.834 188.2 489.494 141.86C443.154 95.52 381.534 70 316.004 70C250.474 70 188.854 95.52 142.514 141.86C96.1745 188.2 70.6545 249.82 70.6545 315.35C70.6545 369.04 87.6745 420.01 119.864 462.76C151.034 504.15 195.334 535.18 244.614 550.14C263.114 555.76 273.554 575.3 267.934 593.8C262.314 612.3 242.774 622.74 224.274 617.12C192.274 607.4 162.144 592.69 134.704 573.38C107.654 554.35 83.8545 531.29 63.9445 504.87C22.5345 449.89 0.654463 384.35 0.654466 315.35L0.644456 315.35Z" fill="black"/>
</svg>
