<svg width="160" height="309" viewBox="0 0 160 309" fill="none" xmlns="http://www.w3.org/2000/svg">
<g clip-path="url(#clip0_21_9725)">
<path d="M141.435 0.819623H18.883C13.9736 0.819623 9.3606 2.72616 5.88847 6.18946C2.41634 9.65275 0.50494 14.2541 0.50494 19.1509V124.508C0.717318 124.868 1.09268 125.183 1.73969 125.419C4.46603 115.956 13.0105 113.207 20.6067 109.837C26.9386 107.029 32.1245 109.778 35.6609 116.099C37.7254 119.788 39.5627 123.572 41.9334 127.134C45.5439 132.558 48.0529 134.701 51.7522 132.164C53.3228 131.09 54.4193 128.755 55.2046 127.124C56.6665 124.094 57.5803 120.961 58.1927 117.749C58.6372 115.404 58.9237 113.02 59.136 110.606C59.6151 105.201 60.4795 99.7378 62.8551 94.8065C63.3885 93.7029 63.9862 92.6339 64.6579 91.6092C72.2047 80.1256 86.7205 79.9384 94.2228 91.2249C94.371 91.4466 94.5192 91.6683 94.6723 91.89C94.6723 91.89 107.109 111.675 102.491 127.961L101.34 129.405C101.133 129.558 100.905 129.701 100.639 129.824C99.799 125.695 96.9047 124.666 93.1955 125.158C85.0856 126.247 80.6603 121.779 77.7808 115.025C75.5929 109.896 73.5382 104.709 71.3552 99.5753C70.4217 97.3731 68.7622 95.8607 66.2532 95.9248C63.5466 95.9937 63.2898 98.4126 62.8749 100.265C61.6154 105.852 60.7462 111.517 59.5559 117.118C58.4989 122.109 57.4271 127.907 54.6415 132.316C55.4071 131.07 56.0096 129.641 56.464 128.085C55.3577 130.952 53.9698 133.583 52.2708 135.134C52.256 135.149 52.2362 135.169 52.2214 135.179C51.1892 136.046 49.989 136.711 48.6061 137.139C39.4195 139.967 35.8535 130.765 28.4845 126.405C29.9859 134.105 32.2381 140.785 35.1127 147.056C35.1127 147.056 35.1127 147.056 35.1127 147.061C35.4584 147.82 35.8189 148.569 36.1844 149.318C37.4192 152.303 39.1775 157.978 38.3378 164.747C37.1376 171.295 31.3343 176.65 24.1925 177.891C17.4359 179.068 13.376 176.551 9.68164 168.885C6.92073 163.166 4.15981 157.446 1.1964 151.298C0.895121 151.781 0.667927 152.249 0.5 152.702V248.886C1.06305 249.556 3.335 250 5.93292 250.29C7.75542 250.591 10.141 250.694 13.2723 250.783C14.4478 250.822 15.2084 250.837 15.2084 250.837C45.1734 251.62 65.211 236.191 72.2244 206.873C72.5998 205.297 72.8073 203.711 74.7779 203.45C76.4473 203.233 78.0179 203.824 78.9514 205.134C79.2872 205.607 79.5836 206.105 79.875 206.652C79.875 206.652 81.248 211.056 79.4403 217.716C79.3564 217.987 79.2724 218.268 79.1983 218.564C73.3802 241.122 59.8176 257.399 38.4169 267.084C31.7689 270.095 24.8889 272.119 17.8508 273.41C17.3717 273.484 6.37743 275.179 0.50494 275.031V290.574C0.50494 295.471 2.41634 300.072 5.88847 303.535C9.3606 306.999 13.9736 308.905 18.883 308.905H141.435C146.344 308.905 150.957 306.999 154.429 303.535C157.902 300.072 159.813 295.471 159.813 290.574V165.284C158.87 167.112 157.586 168.851 155.857 170.398C151.338 174.452 146.794 178.551 142.205 182.601C134.002 189.843 124.716 189.227 117.392 181.054C113.52 176.733 111.445 172.102 110.907 167.211C109.894 157.087 116.942 150.998 117.165 150.81C121.679 147.648 126.564 145.012 130.895 141.529C126.331 142.637 122.005 144.219 117.634 145.672C114.986 146.554 112.132 146.973 110.265 144.362C107.929 141.09 104.526 139.415 100.984 137.538C104.861 136.391 114.483 133.76 127.018 131.917C126.959 131.937 126.904 131.957 126.845 131.977C127.191 131.912 127.532 131.853 127.877 131.789C130.984 131.346 134.268 130.952 137.676 130.641C146.226 130.385 154.01 132.784 159.818 142.539V19.146C159.818 14.2491 157.907 9.64782 154.434 6.18453C150.962 2.72123 146.349 0.814697 141.44 0.814697L141.435 0.819623ZM10.2694 180.591C21.5303 184.882 30.7811 182.315 37.5673 173.147C40.0023 169.861 41.1481 166.383 41.1037 162.841C41.1037 162.841 41.1037 162.831 41.1037 162.816C41.0889 161.644 40.9358 160.461 40.6592 159.279C40.2492 156.796 39.4886 153.352 38.1156 150.066C38.5601 148.554 39.8492 147.475 41.8347 146.628C57.9754 139.721 55.8664 138.701 64.0998 153.431C68.8708 161.969 72.8073 171.014 73.8346 181.005C74.4668 187.148 72.5603 190.503 65.7988 191.286C50.3693 193.069 35.0633 194.237 20.0091 189.059C15.9196 187.655 12.0524 186.015 10.2644 180.591H10.2694ZM111.48 194.409C105.099 203.42 95.7391 208.213 85.7277 211.726C84.0139 212.327 82.7149 212.977 81.7074 213.894C82.5322 210.775 83.1594 206.76 82.0235 203.991C82.0235 203.991 82.0235 203.986 82.0235 203.982C81.4505 202.553 80.3195 201.474 78.3439 200.814C74.0222 199.365 70.4118 200.888 68.0312 204.878C66.6038 207.267 65.9321 209.859 66.6631 212.593C67.241 214.746 66.9199 216.11 64.3961 216.224C51.5299 216.785 39.1824 215.697 30.0353 205.016C27.8474 202.464 25.4124 199.543 27.2053 196.011C29.0821 192.311 32.7617 193.986 35.6708 194.444C55.6244 197.572 74.9409 195.626 93.6203 187.774C99.231 185.414 104.111 181.034 110.561 188.473C113.248 191.572 113.134 192.079 111.48 194.414V194.409ZM106.116 147.16C109.05 148.874 111.791 150.781 112.542 154.407C109.568 158.18 108.561 162.644 108.255 167.294C107.859 173.245 105.059 177.339 99.4829 179.62C94.0994 181.822 88.7899 184.207 83.4163 186.438C82.1222 186.975 80.1318 188.271 80.1516 185.355C80.2405 170.29 70.9699 159.082 64.2035 146.884C60.7412 140.642 60.6474 140.174 67.9176 139.45C81.4209 138.11 94.2722 140.218 106.116 147.15V147.16Z" fill="black"/>
<path d="M126.836 131.986C127.182 131.922 127.523 131.863 127.868 131.799C130.975 131.356 134.259 130.962 137.667 130.651C146.217 130.395 154.001 132.794 159.809 142.549V19.146C159.809 14.2491 157.898 9.64782 154.425 6.18453C150.953 2.72123 146.34 0.814697 141.431 0.814697H18.884C13.9746 0.814697 9.36152 2.72123 5.88939 6.18453C2.41726 9.64782 0.505859 14.2491 0.505859 19.146V124.503C0.718237 124.863 1.0936 125.178 1.74061 125.414C4.46695 115.951 13.0115 113.202 20.6077 109.832C26.9395 107.024 32.1255 109.773 35.6618 116.094C37.7263 119.784 39.5636 123.567 41.9344 127.129C45.5448 132.553 48.0538 134.696 51.7531 132.159C53.3237 131.085 54.4202 128.75 55.2055 127.119C56.6675 124.089 57.5812 120.956 58.1936 117.744C58.6381 115.399 58.9246 113.015 59.137 110.601C59.616 105.196 60.4804 99.7329 62.856 94.8015C63.3895 93.698 63.9871 92.629 64.6588 91.6043C72.2056 80.1207 86.7214 79.9335 94.2238 91.22C94.3719 91.4417 94.5201 91.6634 94.6732 91.8851C94.6732 91.8851 102.334 104.068 103.396 117.187C103.396 117.187 103.396 117.192 103.396 117.202C103.583 119.522 103.563 121.872 103.262 124.188C103 127.932 102.383 132.75 100.966 137.553C104.843 136.405 114.464 133.775 126.999 131.932C126.94 131.952 126.885 131.972 126.826 131.991L126.836 131.986Z" fill="#003D5B"/>
<path d="M104.327 242.925H112.422L110.432 253.605C110.229 254.689 110.106 255.413 110.057 255.778C110.007 256.142 109.982 256.428 109.982 256.625C109.982 257.197 110.126 257.64 110.412 257.95C110.699 258.261 111.109 258.418 111.642 258.418C112.304 258.418 112.808 258.177 113.148 257.689C113.489 257.202 113.84 255.975 114.205 254.014L116.24 242.93H124.306L122.058 255.187C121.747 256.783 121.406 258.083 121.041 259.098C120.675 260.113 120.241 260.956 119.737 261.626C118.804 262.877 117.618 263.842 116.186 264.522C114.754 265.202 113.178 265.537 111.459 265.537C108.476 265.537 106.135 264.823 104.446 263.394C102.757 261.966 101.912 260 101.912 257.492C101.912 256.98 101.962 256.34 102.065 255.576C102.164 254.807 102.342 253.733 102.594 252.349L104.327 242.935V242.925Z" fill="white"/>
<path d="M119.99 264.946L129.868 253.186L124.682 242.929H133.637L134.6 245.048C134.783 245.481 134.951 245.915 135.104 246.348C135.262 246.787 135.4 247.225 135.519 247.664C135.627 247.334 135.785 246.989 135.988 246.634C136.19 246.279 136.457 245.875 136.788 245.422L138.581 242.925H148.365L139.168 254.068L144.596 264.941H135.642L134.378 262.084C134.215 261.714 134.081 261.345 133.973 260.985C133.864 260.625 133.77 260.271 133.701 259.916C133.38 260.487 133.089 260.98 132.832 261.399C132.575 261.813 132.382 262.103 132.249 262.266L130.155 264.941H119.99V264.946Z" fill="white"/>
<path d="M47.2344 296.101L50.1286 280.489H47.506L48.6519 274.291H58.846L54.8059 296.101H47.2344Z" fill="white"/>
<path d="M65.3633 296.1L68.1983 280.759H63.4766L64.741 274.084H82.0967L80.8619 280.759H76.2933L73.4435 296.1H65.3633Z" fill="white"/>
<path d="M79.5967 296.1L83.6665 274.084H98.8046L97.718 280.055H90.5268L90.1218 282.173H96.8932L95.8659 287.755H89.1093L88.6697 290.129H96.5079L95.4065 296.1H79.5918H79.5967Z" fill="white"/>
<path d="M95.6612 296.1L107.179 274.084H115.911L118.791 296.1H110.933L110.78 293.169H105.47L104.265 296.1H95.6562H95.6612ZM107.663 287.962H110.483L110.394 285.602C110.384 285.474 110.375 285.286 110.365 285.045C110.315 284.065 110.291 283.272 110.291 282.671C110.291 282.271 110.291 281.961 110.3 281.744C110.3 281.528 110.315 281.326 110.325 281.133C110.142 281.725 109.96 282.296 109.767 282.838C109.574 283.385 109.397 283.873 109.224 284.306L107.673 287.962H107.663Z" fill="white"/>
<path d="M117.883 296.1L124.486 274.084H132.522L133.263 281.212C133.332 281.976 133.386 282.754 133.421 283.557C133.456 284.36 133.475 285.193 133.475 286.055L138.77 274.084H146.821L145.778 296.1H138.419L139.382 284.341C139.19 284.892 138.977 285.464 138.74 286.055C138.503 286.646 138.241 287.252 137.95 287.873L134.122 296.1H129.583L128.349 284.671C128.279 285.242 128.176 285.823 128.047 286.415C127.919 287.006 127.761 287.617 127.578 288.247L125.36 296.1H117.883Z" fill="white"/>
<path d="M45.0281 47.0888L49.9869 42.1427L50.1301 41.9998L50.1104 41.9801C50.219 41.8077 50.2783 41.6106 50.2783 41.4086C50.2783 40.8224 49.7992 40.3445 49.2065 40.3445C49.004 40.3445 48.8065 40.4036 48.6386 40.5071L48.6188 40.4874L48.4706 40.6352L43.5119 45.5813L38.5827 40.6647C38.3802 40.443 38.0937 40.3149 37.7925 40.3149C37.2047 40.3149 36.7207 40.7928 36.7207 41.3791C36.7207 41.6007 36.7849 41.8077 36.9084 41.985L36.8985 41.9949L37.0368 42.1427L41.9956 47.0888L37.0368 52.035L36.8936 52.1778L36.9183 52.2025C36.8195 52.37 36.7652 52.5572 36.7652 52.7542C36.7652 53.3405 37.2442 53.8183 37.8369 53.8183C38.0345 53.8183 38.2222 53.7642 38.3901 53.6656L38.4098 53.6853L38.558 53.5474L43.5168 48.6012L48.4756 53.5474L48.6188 53.6903L48.6435 53.6656C48.8114 53.7691 49.009 53.8282 49.2115 53.8282C49.7992 53.8282 50.2833 53.3503 50.2833 52.7641C50.2833 52.4636 50.1548 52.1778 49.9326 51.9758L45.0331 47.0888H45.0281Z" fill="white"/>
<path d="M33.418 49.8171C32.7562 49.8171 32.2129 50.3541 32.2129 51.0192C32.2129 51.6843 32.7512 52.2212 33.418 52.2212C34.0848 52.2212 34.6231 51.6843 34.6231 51.0192C34.6231 50.3541 34.0848 49.8171 33.418 49.8171Z" fill="white"/>
<path d="M22.9194 41.6587C25.2852 41.6587 27.404 43.2351 28.0758 45.4964C28.0807 45.5259 28.0906 45.5555 28.1004 45.5801V45.59L28.1103 45.6195L28.1696 45.8363L28.214 45.8166C28.4067 46.1171 28.7376 46.2994 29.1031 46.2994C29.6859 46.2994 30.16 45.8264 30.16 45.2451C30.16 45.1811 30.1551 45.1219 30.1452 45.0628L30.1304 45.0086C30.1254 44.9791 30.1156 44.9495 30.1057 44.92L30.0958 44.8806C29.6414 43.3681 28.6981 42.0084 27.4287 41.0527C26.1199 40.0625 24.5592 39.5403 22.9095 39.5403C18.7756 39.5403 15.4121 42.9001 15.4121 47.0236C15.4121 51.147 18.7756 54.5068 22.9095 54.5068C26.194 54.5068 29.0685 52.4082 30.0563 49.2799L30.1156 49.0976H30.1057C30.1156 49.0286 30.1254 48.9695 30.1254 48.9005C30.1254 48.3192 29.6513 47.8463 29.0685 47.8463C28.5795 47.8463 28.1449 48.1911 28.0362 48.6641C27.3151 50.8859 25.2605 52.3786 22.9145 52.3786C19.9461 52.3786 17.5359 49.9696 17.5359 47.0137C17.5359 44.0578 19.9511 41.6488 22.9145 41.6488L22.9194 41.6587Z" fill="white"/>
<path d="M33.4223 49.0584C33.9409 49.0584 34.3706 48.6889 34.4644 48.2012H34.4842V47.9992L34.4891 42.9545C34.4891 42.9348 34.4891 42.9151 34.4891 42.8954C34.4891 42.3092 34.01 41.8313 33.4223 41.8313C32.9037 41.8313 32.4691 42.2008 32.3752 42.6885H32.3555V42.8905V47.9992V48.2012H32.3851C32.4789 48.6889 32.9086 49.0584 33.4223 49.0584Z" fill="white"/>
<path d="M106.494 10.78H102.484C101.376 10.78 100.479 11.6755 100.479 12.7802C100.479 13.8848 101.376 14.7803 102.484 14.7803H106.494C107.602 14.7803 108.499 13.8848 108.499 12.7802C108.499 11.6755 107.602 10.78 106.494 10.78Z" fill="#25E2CC"/>
<path d="M15.6241 21.8017C15.6241 18.6881 18.1627 16.2446 21.5213 16.2446C23.6401 16.2446 24.8304 16.9885 25.4577 17.4319L24.2229 19.7326C23.7339 19.4074 22.9882 19.0133 21.867 19.0133C20.005 19.0133 18.7455 20.1759 18.7455 21.8017C18.7455 23.4274 19.9803 24.59 21.8225 24.59C23.0129 24.59 23.7339 24.1959 24.2229 23.8708L25.433 26.1468C24.781 26.5655 23.6401 27.3538 21.5163 27.3538C18.0887 27.3538 15.6191 24.9349 15.6191 21.7967L15.6241 21.8017Z" fill="white"/>
<path d="M25.9629 21.8017C25.9629 18.6389 28.5509 16.2446 31.7662 16.2446C34.9815 16.2446 37.5696 18.6389 37.5696 21.8017C37.5696 24.9644 34.9815 27.3587 31.7662 27.3587C28.5509 27.3587 25.9629 24.9644 25.9629 21.8017ZM34.4926 21.8017C34.4926 20.2695 33.327 19.0133 31.7662 19.0133C30.2055 19.0133 29.0399 20.2695 29.0399 21.8017C29.0399 23.3338 30.2302 24.59 31.7662 24.59C33.3023 24.59 34.4926 23.3584 34.4926 21.8017Z" fill="white"/>
<path d="M50.0719 21.2447V27.1466H47.0196V21.6634C47.0196 20.0377 46.0664 18.9884 44.6637 18.9884C43.1277 18.9884 42.1695 20.151 42.1695 21.5698V27.1466H39.1172V16.4562H41.3101L41.4286 18.2691C42.0559 17.1557 43.4092 16.2493 45.365 16.2493C48.2297 16.2493 50.0719 18.2001 50.0719 21.2447Z" fill="white"/>
<path d="M51.4893 21.8017C51.4893 18.6881 54.028 16.2446 57.3865 16.2446C59.5053 16.2446 60.6956 16.9885 61.3229 17.4319L60.0881 19.7326C59.5992 19.4074 58.8534 19.0133 57.7322 19.0133C55.8702 19.0133 54.6108 20.1759 54.6108 21.8017C54.6108 23.4274 55.8455 24.59 57.6878 24.59C58.8781 24.59 59.5992 24.1959 60.0881 23.8708L61.2982 26.1468C60.6463 26.5655 59.5053 27.3538 57.3816 27.3538C53.9539 27.3538 51.4844 24.9349 51.4844 21.7967L51.4893 21.8017Z" fill="white"/>
<path d="M72.7303 22.6392H64.8525C65.2032 23.8708 66.3886 24.8019 68.0678 24.8019C69.6286 24.8019 70.4435 24.0826 70.9127 23.7082L72.1722 25.8955C71.5202 26.4769 70.1916 27.3587 67.7468 27.3587C64.3438 27.3587 61.8496 24.9398 61.8496 21.8017C61.8496 18.6635 64.1561 16.2446 67.4406 16.2446C70.725 16.2446 72.7747 18.6143 72.7747 21.8214C72.7747 22.2155 72.7303 22.6342 72.7303 22.6342V22.6392ZM64.8772 20.6883H69.8656C69.7274 19.4813 68.7692 18.6684 67.5591 18.6684C66.2305 18.6684 65.2279 19.368 64.8772 20.6883Z" fill="white"/>
<path d="M85.2653 21.2447V27.1466H82.213V21.6634C82.213 20.0377 81.2598 18.9884 79.8571 18.9884C78.321 18.9884 77.3629 20.151 77.3629 21.5698V27.1466H74.3105V16.4562H76.5035L76.622 18.2691C77.2493 17.1557 78.6026 16.2493 80.5584 16.2493C83.423 16.2493 85.2653 18.2001 85.2653 21.2447Z" fill="white"/>
<path d="M103.552 16.3379L103.295 19.3579C102.994 19.2396 102.712 19.1509 102.223 19.1509C100.524 19.1509 99.4722 20.2643 99.4722 21.7767V27.1466H96.4199V16.4562H98.9586L99.0771 18.5499C99.4475 17.2493 100.776 16.2493 102.618 16.2493C102.944 16.2493 103.27 16.2739 103.552 16.3429V16.3379Z" fill="white"/>
<path d="M104.967 16.4543H108.019V27.1447H104.967V16.4543Z" fill="white"/>
<path d="M117.046 27.1447L114.808 23.7504L112.571 27.1447H109.074L112.917 21.7749L109.257 16.4543H112.798L114.873 19.7304L117.041 16.4543H120.513L116.715 21.7059L120.632 27.1447H117.041H117.046Z" fill="white"/>
<path d="M94.1715 24.0322C93.89 24.1948 93.3072 24.6136 92.3984 24.6136C91.3019 24.6136 90.5117 24.1505 90.5117 22.8942V19.0122H94.4975V16.4554H90.5117V12.7852H87.5532V16.4554H85.8789C86.8815 17.687 87.4594 19.3324 87.4594 21.2389V23.1898C87.4594 25.8649 89.0695 27.3527 91.702 27.3527C93.727 27.3527 94.8037 26.5841 95.2186 26.2836L94.1715 24.0273V24.0322Z" fill="white"/>
<path d="M106.494 14.7803C107.601 14.7803 108.499 13.8848 108.499 12.7802C108.499 11.6755 107.601 10.78 106.494 10.78C105.386 10.78 104.488 11.6755 104.488 12.7802C104.488 13.8848 105.386 14.7803 106.494 14.7803Z" fill="white"/>
<path d="M137.937 42.4173C129.141 41.9345 119.752 42.8754 111.568 46.2697C102.391 50.0779 97.4619 57.9011 94.7405 67.1825C92.513 74.7791 92.6365 82.7008 93.7922 90.5881C93.9404 90.795 94.0886 91.0068 94.2318 91.2236C94.38 91.4453 94.5282 91.667 94.6813 91.8887C94.6813 91.8887 100.534 101.205 102.722 112.309C116.981 114.496 131.408 115.619 145.84 115.669C150.265 115.683 154.829 115.565 158.869 113.767C159.19 113.624 159.511 113.467 159.807 113.274V50.5607C154.977 44.8608 144.6 42.7867 137.937 42.4222V42.4173Z" fill="black"/>
<path d="M159.809 142.552V81.6662C156.54 80.7302 153.492 78.5478 150.099 78.4C147.042 78.2669 144.143 78.6019 141.436 77.1782C138.73 75.7544 135.534 69.3796 131.45 70.0693C126.402 70.9216 125.449 79.336 123.725 80.8533C121.152 83.1195 116.479 84.3511 113.146 85.1738C109.812 85.9965 106.364 86.7651 103.549 88.7307C100.739 90.6964 99.1039 94.6178 99.9781 97.9284L98.9805 100.401C100.926 104.998 102.902 110.988 103.406 117.191C103.406 117.191 103.406 117.196 103.406 117.206C103.594 119.526 103.574 121.876 103.272 124.191C103.011 127.935 102.393 132.753 100.976 137.557C104.853 136.409 114.474 133.778 127.009 131.936C126.95 131.955 126.896 131.975 126.837 131.995C127.182 131.931 127.523 131.872 127.869 131.808C130.975 131.364 134.26 130.97 137.668 130.66C146.217 130.404 154.001 132.803 159.809 142.557V142.552Z" fill="black"/>
<path d="M136.587 72.6517C136.459 71.0901 136.631 69.5727 137.214 68.1096C137.56 67.2376 138.009 66.4198 138.632 65.7153C139.274 64.9862 139.634 64.129 139.866 63.2028C139.911 63.0255 139.876 62.8432 139.837 62.6708C139.619 61.72 139.249 60.8184 138.997 59.8775C138.893 59.4981 138.814 59.1139 138.75 58.7247C138.701 58.4192 138.651 58.1089 138.632 57.8034C138.563 56.5422 138.726 55.3057 139.15 54.1135C139.284 53.7391 139.531 53.4189 139.763 53.0987C140.183 52.5173 140.429 51.8917 140.439 51.1626C140.444 50.4532 140.395 49.7585 140.133 49.0885C140.059 48.8964 140.084 48.6846 140.197 48.4974C140.311 48.3102 140.484 48.3151 140.588 48.5121C140.672 48.6649 140.701 48.8373 140.607 48.9851C140.425 49.2708 140.504 49.5221 140.662 49.7782C140.815 50.0344 140.973 50.2955 141.126 50.5517C141.314 50.867 141.309 51.2217 141.294 51.5665C141.279 51.9705 141.235 52.3695 141.304 52.7686C141.343 53.0001 141.467 53.1775 141.709 53.2612C142.227 53.4435 142.647 53.2514 143.013 52.8573C143.413 52.4287 143.674 51.9065 144.005 51.4286C144.376 50.8965 144.786 50.4236 145.438 50.1822C146.228 49.8866 146.613 49.2511 146.677 48.4185C146.727 47.8027 146.648 47.1918 146.628 46.576C146.618 46.1869 146.628 45.8026 146.85 45.4577C146.949 45.305 147.102 45.2065 147.221 45.0735C147.848 44.369 148.223 43.5364 148.52 42.6546C148.811 41.7777 148.974 40.8811 149.122 39.9697C149.32 38.7282 148.712 37.9892 147.833 37.5163C147.532 37.3537 147.206 37.2404 146.909 37.0778C146.628 36.9202 146.514 36.6542 146.534 36.3438C146.544 36.132 146.702 35.999 146.89 35.9398C147.151 35.861 147.423 35.861 147.675 36.0039C148.154 36.2798 148.475 36.7084 148.801 37.132C148.989 37.3685 149.162 37.6148 149.339 37.8611C149.661 38.3095 150.11 38.5804 150.599 38.8021C151.216 39.078 151.844 39.3243 152.481 39.546C153.449 39.881 154.076 40.5362 154.427 41.4772C154.659 42.0979 154.748 42.7285 154.698 43.3936C154.654 43.9699 154.634 44.5513 154.842 45.1129C154.96 45.438 155.168 45.6745 155.484 45.8223C156.012 46.0735 156.284 46.5317 156.427 47.0687C156.669 47.985 156.536 48.8767 156.239 49.7585C156.022 50.4039 155.938 51.0788 155.894 51.7587C155.859 52.3055 155.894 52.8474 155.973 53.3795C156.086 54.1086 156.284 54.818 156.797 55.3845C157.252 55.8821 157.805 56.0447 158.477 55.9215C159.03 55.8181 159.548 55.6604 160.023 55.3599C160.852 54.8328 161.277 54.0642 161.307 53.0888C161.312 52.8622 161.129 52.7341 160.941 52.6356C160.793 52.5568 160.63 52.537 160.477 52.4878C160.442 52.4779 160.398 52.473 160.363 52.4582C160.215 52.404 160.047 52.3597 160.037 52.1626C160.023 51.9508 160.215 51.9212 160.353 51.8621C160.803 51.67 161.198 51.8227 161.499 52.1528C162.082 52.7932 162.645 53.4583 162.942 54.2909C163.144 54.8574 163.272 55.4486 163.277 56.0496C163.277 56.5324 163.139 56.892 162.675 57.0595C162.492 57.1236 162.295 57.1778 162.097 57.0152C161.954 56.892 161.761 56.9314 161.598 57.0152C161.455 57.094 161.435 57.2369 161.44 57.3896C161.465 58.0153 161.593 58.6261 161.707 59.2321C161.865 60.1041 162.344 60.8283 162.917 61.4933C163.307 61.9466 163.771 62.321 164.201 62.7348C164.848 63.3605 165.312 64.1191 165.712 64.9123C166.152 65.7843 166.488 66.7006 166.735 67.6465C166.893 68.2623 167.026 68.883 167.115 69.5185C167.155 69.819 167.214 70.1196 167.229 70.4201C167.298 71.8783 167.219 73.3168 166.671 74.6962C166.068 76.2086 165.036 77.2925 163.495 77.8689C163.406 77.9034 163.376 77.9575 163.342 78.0314C162.981 78.7507 162.566 79.4305 162.057 80.0562C160.951 81.4208 159.548 82.3716 157.914 82.9924C157.267 83.2387 156.6 83.4357 155.923 83.5835C155.385 83.7018 154.842 83.8003 154.298 83.8939C153.276 84.0713 152.244 84.1501 151.211 84.2486C151.019 84.2683 150.841 84.3324 150.643 84.3422C149.903 84.3767 149.162 84.4506 148.421 84.4555C147.334 84.4555 146.258 84.3471 145.215 84.0023C144.425 83.7412 143.694 83.3668 143.022 82.884C141.684 81.9233 140.637 80.6819 139.59 79.4305C138.721 78.3911 137.975 77.2728 137.456 76.0165C137.16 75.3022 136.918 74.5681 136.78 73.8095C136.705 73.4203 136.621 73.036 136.597 72.637L136.587 72.6517Z" fill="white"/>
<path d="M142.493 39.202C142.626 39.8227 142.616 40.473 142.937 41.0543C143.199 41.5224 143.515 41.951 143.92 42.3057C144.508 42.818 144.942 43.419 145.115 44.1826C145.239 44.7295 145.337 45.2812 145.328 45.8478C145.328 46.3158 145.268 46.7592 145.036 47.173C144.824 47.5573 144.547 47.8824 144.103 47.9957C143.648 48.109 143.219 48.0105 142.828 47.7543C142.488 47.5326 142.216 47.242 142.038 46.8676C142.004 46.7937 141.939 46.7838 141.885 46.7592C141.366 46.5227 140.897 46.2074 140.547 45.764C140.028 45.1088 139.998 44.3698 140.25 43.6013C140.334 43.3451 140.443 43.0988 140.571 42.8624C140.774 42.483 140.739 42.0741 140.695 41.6652C140.64 41.1972 140.453 40.7735 140.235 40.3597C139.746 39.4138 139.796 38.4827 140.384 37.5812C140.695 37.1083 141.12 36.793 141.643 36.5861C141.727 36.5516 141.811 36.5614 141.895 36.5368C142.167 36.458 142.448 36.0343 142.374 35.7584C142.305 35.5022 142.068 35.4333 141.841 35.384C141.752 35.3643 141.658 35.3544 141.579 35.3003C141.52 35.2559 141.436 35.2214 141.441 35.118C141.441 35.0145 141.525 34.9702 141.599 34.9357C141.885 34.7928 142.241 34.8322 142.463 35.0638C142.952 35.5761 143.406 36.123 143.614 36.8176C143.742 37.2511 143.866 37.6945 143.806 38.1576C143.767 38.5074 143.466 38.7586 143.11 38.7488C143.061 38.7488 143.026 38.734 142.986 38.7044C142.878 38.6256 142.764 38.5763 142.626 38.665C142.483 38.7537 142.468 38.8769 142.483 39.0247C142.488 39.0838 142.493 39.1429 142.497 39.202H142.493Z" fill="white"/>
<path d="M157.718 54.67C157.333 54.7538 157.115 54.4631 157.046 54.1134C156.972 53.7291 157.076 53.3645 157.199 53.0148C157.397 52.4728 157.269 51.9654 157.14 51.4481C157.041 51.059 157.056 50.6698 157.229 50.2954C157.293 50.1525 157.407 50.0737 157.575 50.1082C157.772 50.1476 157.753 50.3052 157.743 50.4382C157.688 51.1279 157.93 51.724 158.434 52.1625C159.299 52.9162 158.953 54.2956 157.95 54.6208C157.871 54.6454 157.792 54.6454 157.718 54.6602V54.67Z" fill="white"/>
<path d="M96.1358 76.3673C96.0073 74.8056 96.1802 73.2883 96.763 71.8251C97.1087 70.9532 97.5582 70.1354 98.1805 69.4309C98.8226 68.7018 99.1831 67.8446 99.4153 66.9184C99.4597 66.741 99.4251 66.5588 99.3856 66.3863C99.1683 65.4355 98.7979 64.534 98.546 63.593C98.4423 63.2137 98.3633 62.8294 98.2991 62.4402C98.2497 62.1348 98.2003 61.8244 98.1805 61.519C98.1114 60.2578 98.2744 59.0213 98.6991 57.8291C98.8325 57.4547 99.0794 57.1345 99.3116 56.8142C99.7314 56.2329 99.9783 55.6073 99.9882 54.8781C99.9931 54.1687 99.9437 53.4741 99.682 52.8041C99.6079 52.612 99.6326 52.4001 99.7462 52.2129C99.8598 52.0257 100.033 52.0307 100.136 52.2277C100.22 52.3804 100.25 52.5529 100.156 52.7006C99.9734 52.9864 100.052 53.2376 100.21 53.4938C100.364 53.75 100.522 54.0111 100.675 54.2673C100.862 54.5826 100.857 54.9373 100.843 55.2821C100.828 55.6861 100.783 56.0851 100.853 56.4842C100.892 56.7157 101.016 56.8931 101.258 56.9768C101.776 57.1591 102.196 56.967 102.561 56.5728C102.961 56.1442 103.223 55.622 103.554 55.1442C103.925 54.6121 104.335 54.1392 104.986 53.8978C105.777 53.6022 106.162 52.9667 106.226 52.1341C106.276 51.5183 106.197 50.9074 106.177 50.2916C106.167 49.9024 106.177 49.5182 106.399 49.1733C106.498 49.0206 106.651 48.9221 106.769 48.7891C107.397 48.0846 107.772 47.252 108.068 46.3702C108.36 45.4933 108.523 44.5966 108.671 43.6853C108.869 42.4438 108.261 41.7048 107.382 41.2319C107.081 41.0693 106.755 40.956 106.458 40.7934C106.177 40.6358 106.063 40.3697 106.083 40.0594C106.093 39.8475 106.251 39.7145 106.439 39.6554C106.7 39.5766 106.972 39.5766 107.224 39.7195C107.703 39.9953 108.024 40.4239 108.35 40.8476C108.538 41.0841 108.71 41.3304 108.888 41.5767C109.209 42.025 109.659 42.296 110.148 42.5177C110.765 42.7936 111.392 43.0399 112.03 43.2616C112.998 43.5966 113.625 44.2518 113.976 45.1927C114.208 45.8135 114.297 46.4441 114.247 47.1091C114.203 47.6855 114.183 48.2668 114.39 48.8285C114.509 49.1536 114.716 49.3901 115.032 49.5379C115.561 49.7891 115.833 50.2473 115.976 50.7843C116.218 51.7006 116.084 52.5923 115.788 53.4741C115.571 54.1195 115.487 54.7944 115.442 55.4742C115.408 56.0211 115.442 56.563 115.521 57.095C115.635 57.8242 115.833 58.5336 116.346 59.1001C116.801 59.5977 117.354 59.7603 118.025 59.6371C118.579 59.5336 119.097 59.376 119.571 59.0755C120.401 58.5483 120.826 57.7798 120.856 56.8044C120.86 56.5778 120.678 56.4497 120.49 56.3512C120.342 56.2723 120.179 56.2526 120.026 56.2034C119.991 56.1935 119.947 56.1886 119.912 56.1738C119.764 56.1196 119.596 56.0753 119.586 55.8782C119.571 55.6664 119.764 55.6368 119.902 55.5777C120.352 55.3856 120.747 55.5383 121.048 55.8684C121.631 56.5088 122.194 57.1739 122.49 58.0064C122.693 58.573 122.821 59.1642 122.826 59.7652C122.826 60.248 122.688 60.6076 122.224 60.7751C122.041 60.8391 121.843 60.8933 121.646 60.7308C121.503 60.6076 121.31 60.647 121.147 60.7308C121.004 60.8096 120.984 60.9525 120.989 61.1052C121.014 61.7308 121.142 62.3417 121.256 62.9477C121.414 63.8196 121.893 64.5438 122.466 65.2089C122.856 65.6621 123.32 66.0366 123.75 66.4504C124.397 67.076 124.861 67.8347 125.261 68.6279C125.701 69.4998 126.037 70.4162 126.284 71.362C126.442 71.9779 126.575 72.5986 126.664 73.2341C126.703 73.5346 126.763 73.8351 126.777 74.1356C126.847 75.5939 126.768 77.0324 126.219 78.4118C125.617 79.9242 124.585 81.008 123.044 81.5844C122.955 81.6189 122.925 81.6731 122.89 81.747C122.53 82.4663 122.115 83.1461 121.606 83.7718C120.5 85.1364 119.097 86.0872 117.462 86.7079C116.815 86.9543 116.149 87.1513 115.472 87.2991C114.934 87.4174 114.39 87.5159 113.847 87.6095C112.825 87.7868 111.792 87.8657 110.76 87.9642C110.568 87.9839 110.39 88.0479 110.192 88.0578C109.451 88.0923 108.711 88.1662 107.97 88.1711C106.883 88.1711 105.806 88.0627 104.764 87.7179C103.974 87.4568 103.243 87.0824 102.571 86.5996C101.233 85.6389 100.186 84.3974 99.1387 83.1461C98.2694 82.1066 97.5236 80.9883 97.005 79.7321C96.7087 79.0178 96.4667 78.2837 96.3284 77.525C96.2543 77.1358 96.1703 76.7516 96.1456 76.3525L96.1358 76.3673Z" fill="white"/>
<path d="M117.267 58.381C116.882 58.4647 116.664 58.1741 116.595 57.8243C116.521 57.44 116.625 57.0755 116.748 56.7257C116.946 56.1838 116.817 55.6764 116.689 55.1591C116.59 54.7699 116.605 54.3807 116.778 54.0063C116.842 53.8634 116.956 53.7846 117.124 53.8191C117.321 53.8585 117.301 54.0161 117.292 54.1492C117.237 54.8389 117.479 55.435 117.983 55.8734C118.847 56.6272 118.502 58.0066 117.499 58.3317C117.42 58.3564 117.341 58.3564 117.267 58.3711V58.381Z" fill="white"/>
</g>
<defs>
<clipPath id="clip0_21_9725">
<rect width="159" height="308" fill="white" transform="translate(0.5 0.866699)"/>
</clipPath>
</defs>
</svg>
