<svg width="24" height="28" viewBox="0 0 24 28" fill="none" xmlns="http://www.w3.org/2000/svg">
<path d="M6.3938 10.3C6.3938 10.3 8.6338 9.00604 8.8508 8.80004C9.0678 8.59404 10.1158 7.96804 9.3158 6.10804C8.5158 4.24804 7.8608 1.31404 6.7618 1.33804C5.6628 1.36204 2.9788 3.08604 2.1768 6.07004C1.3748 9.05404 2.6898 14.92 5.6078 19.232C8.5258 23.544 14.4728 26.883 17.8028 26.652C21.1328 26.421 22.5338 23.552 21.9138 22.733C21.2938 21.914 18.0918 17.653 17.3068 18.281C16.5218 18.909 14.4788 22.567 12.1788 20.125C9.8788 17.683 6.0008 11.89 6.3938 10.3Z" stroke="black" stroke-width="2" stroke-linecap="round" stroke-linejoin="round"/>
</svg>
