<svg role="img" width="182" height="28" viewBox="0 0 182 28" fill="none" xmlns="http://www.w3.org/2000/svg">
<title>Concentrix</title>
<path d="M153.044 6.75281H146.291C145.395 6.75281 144.536 6.39709 143.903 5.76389C143.27 5.13069 142.914 4.27189 142.914 3.37641C142.914 2.48093 143.27 1.62213 143.903 0.988927C144.536 0.355728 145.395 0 146.291 0L153.044 0C153.939 0 154.798 0.355728 155.431 0.988927C156.065 1.62213 156.42 2.48093 156.42 3.37641C156.42 4.27189 156.065 5.13069 155.431 5.76389C154.798 6.39709 153.939 6.75281 153.044 6.75281Z" fill="#25E2CC"/>
<path d="M0 18.6087C0 13.3502 4.2774 9.22977 9.9288 9.22977C12.2993 9.14979 14.6302 9.85307 16.5608 11.2308L14.4813 15.1154C13.3173 14.3104 11.9326 13.8855 10.5175 13.8989C7.37818 13.8989 5.25873 15.8587 5.25873 18.608C5.25873 21.3573 7.33829 23.317 10.4384 23.317C11.8804 23.3484 13.2954 22.9226 14.4806 22.1006L16.5188 25.9466C14.598 27.3183 12.2859 28.0338 9.926 27.9869C4.15981 27.9869 0 23.9057 0 18.6087Z" fill="white"/>
<path d="M17.4141 18.6055C17.4141 13.2686 21.7699 9.22656 27.1854 9.22656C32.6009 9.22656 36.9567 13.2686 36.9567 18.6055C36.9567 23.9423 32.6009 27.9844 27.1854 27.9844C21.7699 27.9844 17.4141 23.9423 17.4141 18.6055ZM31.7771 18.6055C31.7542 17.7023 31.4655 16.826 30.947 16.0861C30.4286 15.3462 29.7034 14.7757 28.8623 14.4458C28.0212 14.116 27.1015 14.0415 26.2183 14.2318C25.3351 14.422 24.5276 14.8685 23.8969 15.5153C23.2661 16.1622 22.8402 16.9807 22.6723 17.8684C22.5045 18.7561 22.6022 19.6736 22.9532 20.506C23.3042 21.3385 23.8929 22.0489 24.6457 22.5485C25.3985 23.0481 26.2819 23.3145 27.1854 23.3145C27.7981 23.3138 28.4045 23.1906 28.969 22.9522C29.5334 22.7138 30.0445 22.365 30.4723 21.9263C30.9001 21.4876 31.2358 20.9679 31.4599 20.3976C31.684 19.8273 31.7918 19.218 31.7771 18.6055Z" fill="white"/>
<path d="M57.9849 17.6627V27.6302H52.8437V18.3689C52.8437 15.6217 51.2338 13.8558 48.8799 13.8558C48.3118 13.8441 47.7474 13.9499 47.2222 14.1667C46.697 14.3835 46.2223 14.7066 45.8279 15.1156C45.4335 15.5247 45.128 16.0108 44.9305 16.5436C44.733 17.0763 44.6477 17.6442 44.6802 18.2114V27.6302H39.5391V9.57932H43.2278L43.4238 12.6408C44.4835 10.7566 46.7598 9.22656 50.0558 9.22656C54.8855 9.22656 57.9828 12.5232 57.9828 17.6634" fill="white"/>
<path d="M60.3679 18.6087C60.3679 13.3502 64.6453 9.22977 70.296 9.22977C72.6665 9.14979 74.9974 9.85307 76.928 11.2308L74.8485 15.1154C73.6844 14.3105 72.2998 13.8856 70.8846 13.8989C67.7447 13.8989 65.6259 15.8587 65.6259 18.608C65.6259 21.3573 67.7055 23.317 70.8056 23.317C72.2476 23.3484 73.6626 22.9226 74.8478 22.1006L76.8881 25.9466C74.9673 27.3183 72.6552 28.0338 70.2953 27.9869C64.5263 27.9869 60.3672 23.9057 60.3672 18.608" fill="white"/>
<path d="M96.1821 20.0198H82.9173C83.506 22.0992 85.5072 23.6691 88.3329 23.6691C90.1056 23.6879 91.8185 23.028 93.1205 21.8249L95.24 25.5134C94.1411 26.4933 91.904 27.9855 87.7834 27.9855C82.0543 27.9855 77.8546 23.9043 77.8546 18.6066C77.8225 17.3629 78.0445 16.1257 78.507 14.9707C78.9695 13.8157 79.6627 12.7672 80.5444 11.8893C81.426 11.0114 82.4774 10.3226 83.6344 9.86494C84.7913 9.4073 86.0295 9.19048 87.2731 9.22773C92.7279 9.22773 96.2598 13.2306 96.2598 18.6458C96.2598 19.3129 96.1814 20.0191 96.1814 20.0191M82.9565 16.7225H91.3559C91.2626 15.7665 90.8092 14.8819 90.0877 14.2479C89.3662 13.6139 88.4306 13.278 87.4705 13.3083C86.4352 13.2481 85.4122 13.5587 84.5852 14.1843C83.7581 14.81 83.1803 15.7098 82.9565 16.7225Z" fill="white"/>
<path d="M117.274 17.6627V27.6302H112.133V18.3689C112.133 15.6217 110.523 13.8558 108.169 13.8558C107.601 13.8441 107.037 13.9499 106.511 14.1667C105.986 14.3835 105.511 14.7066 105.117 15.1156C104.723 15.5247 104.417 16.0108 104.22 16.5436C104.022 17.0763 103.937 17.6442 103.969 18.2114V27.6302H98.8281V9.57932H102.517L102.713 12.6408C103.773 10.7566 106.049 9.22656 109.345 9.22656C114.175 9.22656 117.272 12.5232 117.272 17.6634" fill="white"/>
<path d="M148.087 9.38356L147.655 14.4853C147.085 14.2442 146.47 14.125 145.85 14.1353C142.985 14.1353 141.219 16.0188 141.219 18.5693V27.6304H136.078V9.57954H140.356L140.552 13.1113C141.181 10.9143 143.416 9.22678 146.516 9.22678C147.044 9.21678 147.571 9.26965 148.086 9.38426" fill="white"/>
<path d="M155.59 9.58105H150.449V27.6327H155.59V9.58105Z" fill="white"/>
<path d="M170.785 27.6327L167.018 21.9031L163.25 27.6327H157.363L163.838 18.568L157.678 9.58105H163.643L167.136 15.1146L170.786 9.58105H176.633L170.235 18.4504L176.828 27.6327H170.785Z" fill="white"/>
<path d="M132.273 22.3778C131.397 22.9923 130.359 23.3333 129.29 23.3576C127.446 23.3576 126.112 22.5723 126.112 20.4537V13.901H132.822V9.58464H126.112V3.38477H121.125V9.59234H118.309C120.102 11.8964 121.041 14.7502 120.968 17.6687V20.9646C120.968 25.477 123.676 27.989 128.108 27.989C130.23 28.0721 132.318 27.4361 134.034 26.1839L132.273 22.3778Z" fill="white"/>
<path d="M156.411 3.37641C156.411 4.0442 156.213 4.69699 155.842 5.25224C155.471 5.80749 154.944 6.24025 154.327 6.4958C153.71 6.75135 153.031 6.81822 152.376 6.68794C151.721 6.55766 151.119 6.23609 150.647 5.76389C150.175 5.29169 149.853 4.69007 149.723 4.03511C149.593 3.38015 149.66 2.70127 149.915 2.08431C150.171 1.46735 150.604 0.940032 151.159 0.569027C151.714 0.198023 152.367 0 153.035 0C153.93 0 154.789 0.355728 155.422 0.988927C156.056 1.62213 156.411 2.48093 156.411 3.37641Z" fill="white"/>
<path d="M177.766 9.95621H178.403V11.573H178.865V9.95621H179.502V9.58105H177.766L177.766 9.95621Z" fill="white"/>
<path d="M182 11.5737L181.994 9.58105H181.616L180.882 10.8185L180.135 9.58105H179.754V11.5737H180.186V10.4042L180.77 11.3637H180.98L181.566 10.379V11.5744L182 11.5737Z" fill="white"/>
</svg>
