<svg width="20" height="26" viewBox="0 0 20 26" fill="none" xmlns="http://www.w3.org/2000/svg">
<path d="M3.5332 17.8203C3.3262 17.6423 3.12759 17.4548 2.93359 17.2578C1.05388 15.3528 0 12.7847 0 10.1084C0 7.4321 1.05388 4.86306 2.93359 2.95801C3.8568 2.02081 4.95642 1.27656 6.16992 0.768555C7.38342 0.260551 8.68641 -0.000976562 10.002 -0.000976562C11.3175 -0.000976563 12.6185 0.260551 13.832 0.768555C15.0455 1.27656 16.1471 2.02081 17.0703 2.95801C18.9476 4.86432 20 7.43289 20 10.1084C20 12.7839 18.9476 15.3515 17.0703 17.2578C16.8773 17.4578 16.6777 17.6404 16.4707 17.8174L10.0039 25.9961L3.5332 17.8203ZM6.42383 10.1084C6.43054 10.8135 6.64644 11.5 7.04297 12.083C7.4395 12.666 7.99907 13.1195 8.65234 13.3848C9.30561 13.6501 10.0221 13.7157 10.7129 13.5742C11.4036 13.4328 12.0368 13.0906 12.5332 12.5898C13.0296 12.0891 13.3684 11.4527 13.5039 10.7607C13.6394 10.0688 13.5659 9.35213 13.2949 8.70117C13.024 8.05022 12.5669 7.49402 11.9805 7.10254C11.394 6.71106 10.7051 6.5016 10 6.50098C9.04817 6.50732 8.13694 6.89045 7.4668 7.56641C6.79665 8.24236 6.42196 9.15655 6.42383 10.1084Z" fill="black"/>
</svg>
